<?xml version="1.0" encoding="UTF-8"?>
<!DOCTYPE svg  PUBLIC '-//W3C//DTD SVG 1.1//EN'  'http://www.w3.org/Graphics/SVG/1.1/DTD/svg11.dtd'>
<svg version="1.1" xmlns="http://www.w3.org/2000/svg">
<defs>
<font id="GraphikLCG-Semibold" horiz-adv-x="612">
<font-face font-family="G" font-weight="600" ascent="822" bbox="-232 -228 1165 1128" cap-height="715" descent="-178" panose-1="2 11 7 3 3 2 2 6 2 3" underline-position="-200" underline-thickness="50" unicode-range="U+000D-FB02" units-per-em="1000" x-height="523"/>
<missing-glyph horiz-adv-x="512"/>
<glyph d="M94 420h-69v103h69v54q0 90 48.5 136.5t137.5 46.5q38 0 74 -11v-108q-30 8 -52 8q-64 0 -64 -69v-57h171v60q0 91 49 137t138 46q42 0 75 -10v-109q-27 9 -53 9q-65 0 -65 -69v-64h114v-103h-114v-420h-144v420h-171v-420h-144v420z" glyph-name="f_f" horiz-adv-x="698" unicode="ff"/>
<glyph glyph-name=".notdef" horiz-adv-x="512"/>
<glyph glyph-name=".null" horiz-adv-x="0"/>
<glyph glyph-name="nonmarkingreturn" horiz-adv-x="333"/>
<glyph glyph-name="NULL" horiz-adv-x="0"/>
<glyph glyph-name="NULL" horiz-adv-x="0"/>
<glyph glyph-name="CR" horiz-adv-x="222" unicode=""/>
<glyph glyph-name="space" horiz-adv-x="222" unicode=" "/>
<glyph d="M164 -9q-39 0 -64 25q-27 25 -27 61q0 37 26.5 62t64.5 25t64.5 -25t26.5 -62q0 -35 -26 -61q-27 -25 -65 -25zM84 715h162l-22 -492h-118z" glyph-name="exclam" horiz-adv-x="328" unicode="!"/>
<glyph d="M54 715h140l-19 -264h-102zM248 715h140l-18 -264h-103z" glyph-name="quotedbl" horiz-adv-x="442" unicode='"'/>
<glyph d="M293 256h-75l-23 -157h-102l23 157h-74v115h91l14 96h-80v111h96l21 137h101l-20 -137h75l21 137h101l-21 -137h78v-111h-94l-14 -96h83v-115h-100l-23 -157h-101zM235 371h75l14 96h-75z" glyph-name="numbersign" horiz-adv-x="561" unicode="#"/>
<glyph d="M293 -10q-124 7 -189 74q-60 58 -66 159h148q7 -51 26 -75q27 -35 81 -42v193q-122 18 -177 68q-58 49 -58 147q0 87 64 145q66 58 171 65v89h71v-90q212 -19 230 -209h-143q-14 79 -87 94v-179q121 -19 178 -62q64 -52 64 -150q0 -93 -61 -154q-66 -66 -181 -73v-125 h-71v125zM458 200q0 37 -20 56.5t-74 31.5v-182q44 8 69 32.5t25 61.5zM202 527q0 -36 18 -54q17 -20 73 -32v169q-44 -6 -67.5 -28t-23.5 -55z" glyph-name="dollar" horiz-adv-x="652" unicode="$"/>
<glyph d="M215 461q32 0 50 22.5t18 64.5q0 40 -18 63t-50 23q-33 0 -51.5 -22.5t-18.5 -63.5q0 -42 18.5 -64.5t51.5 -22.5zM214 371q-79 0 -130 51q-50 48 -50 125q0 75 53 125q52 50 128 50t127 -49q52 -50 52 -124q0 -76 -51 -127t-129 -51zM605 715h90l-475 -715h-90zM609 80 q33 0 51 22.5t18 63.5t-18 63.5t-51 22.5t-51 -22t-18 -64t18 -64t51 -22zM609 -11q-79 0 -130 51q-50 48 -50 125q0 75 53 126q52 50 127 50q77 0 128 -49q52 -50 52 -124q0 -77 -51 -128t-129 -51z" glyph-name="percent" horiz-adv-x="823" unicode="%"/>
<glyph d="M600 146l119 -146h-185l-52 64q-81 -74 -195 -74q-111 0 -175 56q-67 56 -67 153q0 133 159 210q-50 69 -50 135q0 83 63 133q57 45 147 45q81 0 136 -41q58 -45 58 -119q0 -118 -146 -179l112 -137l64 125h128zM308 109q58 0 99 48l-136 165q-36 -19 -55 -43.5 t-19 -63.5q0 -49 29 -77.5t82 -28.5zM295 542q0 -39 48 -95q46 21 66 46t20 61q0 28 -17.5 46t-45.5 18q-31 0 -51 -19.5t-20 -56.5z" glyph-name="ampersand" horiz-adv-x="746" unicode="&amp;"/>
<glyph d="M54 715h144l-19 -264h-106z" glyph-name="quotesingle" horiz-adv-x="252" unicode="'"/>
<glyph d="M216 -148q-74 88 -114 187q-53 126 -53 274t53 274q40 99 114 187h119q-63 -89 -100 -192q-45 -122 -45 -269t45 -269q35 -99 100 -192h-119z" glyph-name="parenleft" horiz-adv-x="355" unicode="("/>
<glyph d="M21 -148q63 89 100 192q44 124 44 269t-44 269q-35 99 -100 192h119q71 -85 114 -187q52 -127 52 -274t-52 -274q-43 -102 -114 -187h-119z" glyph-name="parenright" horiz-adv-x="355" unicode=")"/>
<glyph d="M72 448l87 97l-119 19l30 103l112 -51l-17 127h117l-18 -127l112 51l30 -103l-120 -19l87 -97l-89 -64l-62 117l-61 -117z" glyph-name="asterisk" horiz-adv-x="446" unicode="*"/>
<glyph d="M223 286h-180v109h180v195h118v-195h180v-109h-180v-195h-118v195z" glyph-name="plus" horiz-adv-x="563" unicode="+"/>
<glyph d="M29 -86l88 247l136 -51l-136 -233z" glyph-name="comma" horiz-adv-x="310" unicode=","/>
<glyph d="M60 339h256v-115h-256v115z" glyph-name="hyphen" horiz-adv-x="376" unicode="-"/>
<glyph d="M152 -9q-38 0 -63.5 25.5t-25.5 62.5q0 36 25.5 61.5t63.5 25.5t64 -25.5t26 -61.5t-26 -62t-64 -26z" glyph-name="period" horiz-adv-x="305" unicode="."/>
<glyph d="M300 776h119l-308 -924h-118z" glyph-name="slash" horiz-adv-x="435" unicode="/"/>
<glyph d="M366 116q147 0 147 227v32q0 225 -149 225q-151 0 -151 -225v-34q0 -225 153 -225zM362 -11q-144 0 -226 94q-85 93 -85 257v34q0 163 87 258q85 93 225 93t225 -90q86 -94 86 -258v-33q0 -164 -83 -260q-86 -95 -229 -95z" glyph-name="zero" horiz-adv-x="725" unicode="0"/>
<glyph d="M183 555l-145 -95v138l165 117h142v-715h-162v555z" glyph-name="one" horiz-adv-x="443" unicode="1"/>
<glyph d="M18 26l262 277q56 59 84.5 107t28.5 94t-24.5 71.5t-70.5 25.5q-50 0 -78 -31t-36 -100h-147q6 124 76 189.5t192 65.5q114 0 184 -60q64 -61 64 -157q0 -67 -35 -127.5t-103 -125.5l-135 -132h278v-123h-540v26z" glyph-name="two" horiz-adv-x="605" unicode="2"/>
<glyph d="M319 -11q-134 0 -205 63t-76 175h146q12 -119 129 -119q119 0 119 103t-115 103h-56v108h52q109 0 109 95q0 40 -25.5 64.5t-73.5 24.5q-51 0 -81.5 -28.5t-36.5 -79.5h-143q6 101 74 163q70 64 190 64q115 0 183 -55q66 -54 66 -139q0 -114 -118 -155q65 -15 102 -58 t37 -110q0 -102 -73.5 -160.5t-203.5 -58.5z" glyph-name="three" horiz-adv-x="647" unicode="3"/>
<glyph d="M383 142h-351v59l309 514h199v-457h94v-116h-94v-142h-157v142zM386 258v335l-192 -335h192z" glyph-name="four" horiz-adv-x="668" unicode="4"/>
<glyph d="M303 -11q-126 0 -195 64q-64 58 -70 160h149q6 -48 30 -72q25 -28 85 -28q54 0 83 34.5t29 92.5t-31 91.5t-85 33.5q-87 0 -137 -57h-90l10 407h453v-123h-332l-3 -179q53 66 159 66q97 0 158 -63q61 -64 61 -178t-75 -181q-74 -68 -199 -68z" glyph-name="five" horiz-adv-x="627" unicode="5"/>
<glyph d="M345 -11q-152 0 -228 98q-66 84 -66 243v18q0 178 87 279q84 98 219 98q108 0 172 -50t76 -148h-150q-9 38 -30 57t-66 19q-68 0 -106.5 -57.5t-41.5 -167.5q55 89 173 89q102 0 169 -62q67 -65 67 -170q0 -111 -73 -178q-76 -68 -202 -68zM343 106q54 0 86 35t32 92 t-32 92t-86 35t-88 -34q-34 -37 -34 -88q0 -61 33.5 -96.5t88.5 -35.5z" glyph-name="six" horiz-adv-x="666" unicode="6"/>
<glyph d="M348 584h-315v131h518v-18l-256 -697h-165z" glyph-name="seven" horiz-adv-x="570" unicode="7"/>
<glyph d="M326 -11q-126 0 -199 54q-81 57 -81 159q0 65 34.5 111t97.5 68q-104 43 -104 149q0 91 76 144q73 51 177 51q107 0 177 -51q74 -54 74 -143q0 -103 -104 -149q63 -22 97 -67t34 -109q0 -101 -79 -161q-77 -56 -200 -56zM326 107q53 0 86 29.5t33 81.5t-32.5 80.5 t-85.5 28.5t-84 -28q-36 -30 -36 -82q0 -50 35 -82q31 -28 84 -28zM328 426q45 0 72.5 25t27.5 69q0 41 -28.5 66.5t-72.5 25.5t-73 -25t-29 -68t29.5 -68t73.5 -25z" glyph-name="eight" horiz-adv-x="651" unicode="8"/>
<glyph d="M316 -10q-116 0 -183.5 52.5t-79.5 150.5h151q18 -80 107 -80q140 0 145 221q-55 -87 -171 -87q-105 0 -171 61q-68 63 -68 170q0 112 74 180q76 68 203 68q145 0 220 -92q72 -90 72 -247v-32q0 -177 -77 -271t-222 -94zM321 355q55 0 88.5 33.5t33.5 86.5q0 62 -33.5 98 t-88.5 36q-54 0 -86 -35t-32 -92t32 -92t86 -35z" glyph-name="nine" horiz-adv-x="667" unicode="9"/>
<glyph d="M155 -9q-38 0 -63 25.5t-25 62.5q0 36 25 61.5t63 25.5t64 -25.5t26 -61.5t-26 -62t-64 -26zM155 281q-38 0 -63 25.5t-25 62.5q0 36 25 61.5t63 25.5t64 -25.5t26 -61.5t-26 -62t-64 -26z" glyph-name="colon" horiz-adv-x="312" unicode=":"/>
<glyph d="M20 -86l88 247l136 -51l-136 -233zM174 281q-38 0 -63.5 25.5t-25.5 62.5q0 36 25.5 61.5t63.5 25.5t64 -25.5t26 -61.5t-26 -62t-64 -26z" glyph-name="semicolon" horiz-adv-x="322" unicode=";"/>
<glyph d="M52 308v29l408 235v-132l-217 -117l217 -121v-130z" glyph-name="less" horiz-adv-x="521" unicode="&lt;"/>
<glyph d="M45 281h452v-103h-452v103zM45 472h452v-104h-452v104z" glyph-name="equal" horiz-adv-x="542" unicode="="/>
<glyph d="M62 205l216 117l-216 121v130l408 -236v-29l-408 -235v132z" glyph-name="greater" horiz-adv-x="521" unicode="&gt;"/>
<glyph d="M179 253q0 52 32 99q21 30 67 74q23 22 35 35t22.5 33t10.5 39q0 74 -77 74q-42 0 -68 -27.5t-31 -75.5h-139q4 102 73 163q67 58 174 58q108 0 166 -50q56 -48 56 -130q0 -79 -82 -157q-61 -58 -68 -67q-33 -38 -37 -73v-25h-134v30zM245 -9q-40 0 -65 25q-27 25 -27 61 q0 37 27 62q25 25 65 25q38 0 64.5 -25t26.5 -62q0 -35 -26 -61q-27 -25 -65 -25z" glyph-name="question" horiz-adv-x="544" unicode="?"/>
<glyph d="M466 -154q-197 0 -313 121q-112 115 -112 288q0 188 133 314q60 57 140.5 89t167.5 32q178 0 293 -102q115 -104 115 -263q0 -137 -66 -206q-57 -61 -140 -61q-116 0 -135 83q-44 -87 -140 -87q-75 0 -118.5 48.5t-43.5 132.5q0 103 58 169q55 65 139 65q87 0 114 -63 l7 55h124l-32 -265q-11 -71 45 -71q45 0 76 47q35 53 35 153q0 133 -88 215q-90 82 -242 82q-155 0 -256 -101q-104 -102 -104 -267q0 -150 87 -240q93 -100 258 -100q156 0 249 86h86q-45 -68 -134 -112q-92 -42 -203 -42zM446 152q40 0 69 36q29 39 29 97q0 86 -79 86 q-39 0 -65 -36t-26 -95q0 -40 19.5 -64t52.5 -24z" glyph-name="at" horiz-adv-x="931" unicode="@"/>
<glyph d="M262 715h211l232 -715h-169l-49 159h-259l-49 -159h-152zM263 274h189l-94 309z" glyph-name="A" horiz-adv-x="732" unicode="A"/>
<glyph d="M83 715h281q237 0 237 -186v-4q0 -120 -116 -153q143 -29 143 -168v-4q0 -200 -251 -200h-294v715zM352 112q116 0 116 101v4q0 51 -29.5 75.5t-94.5 24.5h-103v-205h111zM338 421q59 0 84 21.5t25 70.5v4q0 45 -26.5 66t-83.5 21h-96v-183h97z" glyph-name="B" horiz-adv-x="671" unicode="B"/>
<glyph d="M405 -11q-173 0 -267 100q-92 95 -92 264v8q0 162 102 264q99 101 253 101q134 0 217 -64q88 -69 100 -196h-166q-18 132 -150 132q-85 0 -135 -62.5t-50 -173.5v-8q0 -112 48.5 -173t137.5 -61q68 0 111 34.5t53 102.5h159q-13 -131 -101 -200q-85 -68 -220 -68z" glyph-name="C" horiz-adv-x="760" unicode="C"/>
<glyph d="M311 126q212 0 212 229v8q0 113 -51.5 169.5t-162.5 56.5h-64v-463h66zM83 715h234q183 0 282 -94q93 -93 93 -256v-8q0 -165 -94 -259q-98 -98 -282 -98h-233v715z" glyph-name="D" horiz-adv-x="738" unicode="D"/>
<glyph d="M83 715h466v-126h-305v-167h244v-118h-244v-178h321v-126h-482v715z" glyph-name="E" horiz-adv-x="607" unicode="E"/>
<glyph d="M83 715h459v-127h-297v-189h235v-122h-235v-277h-162v715z" glyph-name="F" horiz-adv-x="579" unicode="F"/>
<glyph d="M410 -11q-172 0 -269 103q-95 97 -95 261v8q0 162 103 263q102 102 261 102q129 0 212 -58q95 -68 106 -192h-161q-22 122 -155 122q-93 0 -145 -64t-52 -175v-8q0 -110 47 -170q50 -67 152 -67q85 0 130 45q40 39 42 106h-161v118h321v-76q0 -145 -88 -230 q-90 -88 -248 -88z" glyph-name="G" horiz-adv-x="792" unicode="G"/>
<glyph d="M83 715h162v-292h287v292h162v-715h-162v295h-287v-295h-162v715z" glyph-name="H" horiz-adv-x="776" unicode="H"/>
<glyph d="M87 715h163v-715h-163v715z" glyph-name="I" horiz-adv-x="337" unicode="I"/>
<glyph d="M160 -9q-77 0 -119 22v124q45 -17 90 -17q101 0 101 113v482h163v-484q0 -120 -61 -180t-174 -60z" glyph-name="J" horiz-adv-x="469" unicode="J"/>
<glyph d="M83 715h162v-308l250 309h172l-283 -339l297 -377h-189l-247 321v-321h-162v715z" glyph-name="K" horiz-adv-x="698" unicode="K"/>
<glyph d="M83 715h162v-588h291v-127h-453v715z" glyph-name="L" horiz-adv-x="572" unicode="L"/>
<glyph d="M83 715h214l167 -445l165 445h210v-715h-161v502l-198 -502h-53l-199 502v-502h-145v715z" glyph-name="M" horiz-adv-x="923" unicode="M"/>
<glyph d="M83 715h188l272 -471v471h144v-715h-162l-298 509v-509h-144v715z" glyph-name="N" horiz-adv-x="770" unicode="N"/>
<glyph d="M416 118q89 0 144 65q53 64 53 172v8q0 104 -52 169q-55 65 -147 65q-91 0 -146 -63q-53 -62 -53 -172v-8q0 -109 57 -172q55 -64 144 -64zM413 -11q-166 0 -267 104q-100 100 -100 260v8q0 162 105 262q104 102 263 102q163 0 265 -99q103 -103 103 -261v-8 q0 -161 -101 -264q-102 -104 -268 -104z" glyph-name="O" horiz-adv-x="828" unicode="O"/>
<glyph d="M83 715h247q133 0 203 -57.5t70 -170.5v-4q0 -111 -73 -168q-70 -55 -195 -55h-91v-260h-161v715zM326 373q121 0 121 109v4q0 106 -121 106h-82v-219h82z" glyph-name="P" horiz-adv-x="638" unicode="P"/>
<glyph d="M548 10q-66 -21 -135 -21q-166 0 -267 104q-100 100 -100 260v8q0 162 105 262q104 102 263 102q163 0 265 -99q103 -103 103 -261v-8q0 -177 -118 -281l73 -78l-92 -91zM416 114q12 0 34 2l-68 74l94 88l88 -95q49 68 49 172v8q0 104 -52 169q-55 65 -147 65 q-93 0 -146 -63t-53 -172v-8q0 -113 57 -176q55 -64 144 -64z" glyph-name="Q" horiz-adv-x="828" unicode="Q"/>
<glyph d="M83 715h256q130 0 201 -53q75 -56 75 -164v-4q0 -78 -42 -126q-39 -45 -105 -64l189 -304h-172l-171 276h-70v-276h-161v715zM335 386q122 0 122 103v4q0 53 -30 75.5t-92 22.5h-91v-205h91z" glyph-name="R" horiz-adv-x="684" unicode="R"/>
<glyph d="M333 -11q-143 0 -218 64q-71 61 -77 171h155q7 -57 33 -82q35 -35 107 -35q54 0 86 26.5t32 68.5q0 41 -28 62q-31 19 -107 31q-141 18 -197 66q-61 47 -61 151q0 91 71 153q73 60 189 60q122 0 190 -54t78 -160h-149q-13 95 -119 95q-52 0 -79.5 -22t-27.5 -59 q0 -41 26 -58q27 -21 107 -33q136 -17 196 -61q66 -50 66 -156q0 -99 -73 -161q-77 -67 -200 -67z" glyph-name="S" horiz-adv-x="652" unicode="S"/>
<glyph d="M223 589h-193v126h549v-126h-193v-589h-163v589z" glyph-name="T" horiz-adv-x="609" unicode="T"/>
<glyph d="M372 -11q-143 0 -219 74t-76 216v436h163v-426q0 -91 30 -131t103 -40t105.5 40t32.5 137v420h163v-430q0 -146 -77.5 -221t-224.5 -75z" glyph-name="U" horiz-adv-x="751" unicode="U"/>
<glyph d="M25 715h171l170 -549l170 549h152l-238 -715h-186z" glyph-name="V" horiz-adv-x="713" unicode="V"/>
<glyph d="M27 715h164l112 -494l122 494h138l127 -497l116 497h150l-174 -715h-165l-129 494l-131 -494h-156z" glyph-name="W" horiz-adv-x="983" unicode="W"/>
<glyph d="M263 367l-210 348h183l136 -238l135 238h166l-204 -343l226 -372h-184l-155 266l-154 -266h-166z" glyph-name="X" horiz-adv-x="731" unicode="X"/>
<glyph d="M255 308l-236 407h178l145 -274l142 274h157l-223 -407v-308h-163v308z" glyph-name="Y" horiz-adv-x="660" unicode="Y"/>
<glyph d="M24 20l341 569h-303v126h532v-19l-334 -569h322v-127h-558v20z" glyph-name="Z" horiz-adv-x="627" unicode="Z"/>
<glyph d="M80 776h276v-107h-131v-710h131v-107h-276v924z" glyph-name="bracketleft" horiz-adv-x="402" unicode="["/>
<glyph d="M16 776h118l308 -924h-118z" glyph-name="backslash" horiz-adv-x="435" unicode="\"/>
<glyph d="M47 -41h130v710h-130v107h275v-924h-275v107z" glyph-name="bracketright" horiz-adv-x="402" unicode="]"/>
<glyph d="M202 715h130l166 -316h-129l-103 198l-104 -198h-125z" glyph-name="asciicircum" horiz-adv-x="534" unicode="^"/>
<glyph d="M5 -81h421v-79h-421v79z" glyph-name="underscore" horiz-adv-x="431" unicode="_"/>
<glyph d="M57 753h152l57 -159h-105z" glyph-name="grave" horiz-adv-x="412" unicode="`"/>
<glyph d="M211 -11q-76 0 -123 37q-52 41 -52 119q0 87 76 130q68 38 196 38h59v21q0 50 -18.5 73t-66.5 23q-77 0 -89 -74h-137q6 88 73 136q61 43 162 43t158 -44q61 -48 61 -150v-341h-141v63q-53 -74 -158 -74zM254 90q49 0 81 25t32 68v44h-56q-66 0 -99.5 -17t-33.5 -57 q0 -63 76 -63z" glyph-name="a" horiz-adv-x="576" unicode="a"/>
<glyph d="M382 -11q-59 0 -102.5 25.5t-64.5 68.5v-83h-145v760h145v-319q23 41 67.5 67.5t99.5 26.5q99 0 162 -69q66 -72 66 -199v-8q0 -126 -65 -199q-62 -71 -163 -71zM339 102q60 0 92 39.5t32 116.5v8q0 78 -34 118t-91 40q-59 0 -93.5 -40.5t-34.5 -117.5v-8 q0 -77 34 -116.5t95 -39.5z" glyph-name="b" horiz-adv-x="649" unicode="b"/>
<glyph d="M307 -11q-118 0 -192 69q-77 72 -77 197v8q0 123 79 200q75 72 191 72q101 0 164 -45q72 -52 82 -158h-137q-13 89 -106 89q-58 0 -91.5 -41t-33.5 -115v-8q0 -78 33.5 -118.5t94.5 -40.5q46 0 76.5 26t35.5 75h131q-6 -97 -71 -151q-69 -59 -179 -59z" glyph-name="c" horiz-adv-x="590" unicode="c"/>
<glyph d="M266 -11q-99 0 -161 68q-66 71 -66 197v8q0 125 66 201q63 72 164 72q116 0 165 -90v315h144v-760h-144v87q-21 -42 -67 -70t-101 -28zM309 102q59 0 94 39.5t35 117.5v8q0 77 -32 117t-93 40t-93.5 -40.5t-32.5 -118.5v-8q0 -76 33 -115.5t89 -39.5z" glyph-name="d" horiz-adv-x="649" unicode="d"/>
<glyph d="M311 -11q-122 0 -195 71q-78 72 -78 195v8q0 122 78 198q76 74 191 74q109 0 178 -63q77 -70 77 -203v-40h-377q3 -66 36.5 -101.5t93.5 -35.5q94 0 109 73h137q-13 -85 -77.5 -130.5t-172.5 -45.5zM421 318q-7 117 -114 117q-49 0 -80.5 -30.5t-39.5 -86.5h234z" glyph-name="e" horiz-adv-x="599" unicode="e"/>
<glyph d="M94 420h-69v103h69v60q0 91 49 137t138 46q42 0 75 -10v-109q-27 9 -53 9q-65 0 -65 -69v-64h114v-103h-114v-420h-144v420z" glyph-name="f" horiz-adv-x="383" unicode="f"/>
<glyph d="M302 -193q-124 0 -188 50q-61 45 -72 132h144q15 -76 116 -76q132 0 132 128v79q-26 -44 -66 -67q-46 -30 -102 -30q-99 0 -161 67q-67 70 -67 183v7q0 112 66 184q66 71 164 71q113 0 166 -90v78h144v-482q-1 -115 -72.5 -174.5t-203.5 -59.5zM309 132q58 0 93.5 38.5 t35.5 104.5v7q0 67 -33 105t-93 38t-93 -39t-33 -105v-8q0 -65 34 -103t89 -38z" glyph-name="g" horiz-adv-x="648" unicode="g"/>
<glyph d="M70 760h145v-320q49 95 170 95q79 0 127 -48q49 -52 49 -154v-333h-145v312q0 54 -22 79.5t-70 25.5q-49 0 -79 -29.5t-30 -85.5v-302h-145v760z" glyph-name="h" horiz-adv-x="627" unicode="h"/>
<glyph d="M145 594q-35 0 -58.5 22.5t-23.5 56.5t23.5 56.5t58.5 22.5t59 -22.5t24 -56.5t-24 -56.5t-59 -22.5zM74 523h144v-523h-144v523z" glyph-name="i" horiz-adv-x="293" unicode="i"/>
<glyph d="M5 -79q37 3 53 19.5t16 49.5v533h144v-532q0 -85 -45 -129q-51 -48 -168 -49v108zM145 594q-35 0 -58.5 22.5t-23.5 56.5t23.5 56.5t58.5 22.5t59 -22.5t24 -56.5t-24 -56.5t-59 -22.5z" glyph-name="j" horiz-adv-x="293" unicode="j"/>
<glyph d="M70 760h145v-458l168 221h154l-190 -238l205 -285h-164l-173 247v-247h-145v760z" glyph-name="k" horiz-adv-x="567" unicode="k"/>
<glyph d="M74 760h144v-760h-144v760z" glyph-name="l" horiz-adv-x="292" unicode="l"/>
<glyph d="M70 523h145v-80q22 40 63 66t97 26q110 0 146 -91q61 91 176 91q76 0 123 -47q49 -52 49 -153v-335h-144v319q0 97 -82 97q-44 0 -72.5 -27.5t-28.5 -79.5v-309h-144v319q0 97 -82 97q-44 0 -72.5 -27.5t-28.5 -79.5v-309h-145v523z" glyph-name="m" horiz-adv-x="935" unicode="m"/>
<glyph d="M70 523h145v-83q49 95 170 95q79 0 127 -48q49 -52 49 -154v-333h-145v312q0 54 -22 79.5t-70 25.5q-49 0 -79 -29.5t-30 -85.5v-302h-145v523z" glyph-name="n" horiz-adv-x="627" unicode="n"/>
<glyph d="M314 99q61 0 94.5 42t33.5 117v7q0 75 -33.5 117.5t-94.5 42.5q-60 0 -94 -41.5t-34 -116.5v-8q0 -76 33 -118t95 -42zM313 -11q-120 0 -196 73q-79 73 -79 194v8q0 121 79 197q77 74 197 74q121 0 197 -73q78 -76 78 -195v-8q0 -121 -79 -197q-76 -73 -197 -73z" glyph-name="o" horiz-adv-x="628" unicode="o"/>
<glyph d="M70 523h145v-82q23 41 67.5 67.5t99.5 26.5q99 0 162 -69q66 -72 66 -199v-8q0 -126 -65 -199q-62 -71 -163 -71q-58 0 -102 25.5t-65 65.5v-258h-145v701zM339 102q60 0 92 39.5t32 116.5v8q0 78 -34 118t-91 40q-59 0 -93.5 -40.5t-34.5 -117.5v-8q0 -77 34 -116.5 t95 -39.5z" glyph-name="p" horiz-adv-x="649" unicode="p"/>
<glyph d="M434 84q-20 -39 -65 -66q-49 -29 -103 -29q-99 0 -161 68q-66 71 -66 197v8q0 125 66 201q63 72 164 72q116 0 165 -90v78h144v-701h-144v262zM309 102q59 0 94 39.5t35 117.5v8q0 77 -32 117t-93 40t-93.5 -40.5t-32.5 -118.5v-8q0 -76 33 -115.5t89 -39.5z" glyph-name="q" horiz-adv-x="649" unicode="q"/>
<glyph d="M70 523h145v-100q50 107 169 108v-135q-84 1 -126.5 -30t-42.5 -104v-262h-145v523z" glyph-name="r" horiz-adv-x="421" unicode="r"/>
<glyph d="M260 -11q-106 0 -165 45t-63 130h135q6 -38 26 -56t66 -18q82 0 82 57q0 27 -24 40.5t-82 21.5q-106 17 -148 51q-45 35 -45 112t64 123q55 40 143 40q91 0 147 -36q59 -40 69 -126h-133q-6 33 -25 48t-57 15q-35 0 -54.5 -15t-19.5 -39q0 -25 21.5 -37t79.5 -20 q103 -14 151 -47q52 -39 52 -117q0 -84 -57.5 -128t-162.5 -44z" glyph-name="s" horiz-adv-x="514" unicode="s"/>
<glyph d="M261 -10q-169 0 -169 165v265h-67v103h67v113h144v-113h110v-103h-110v-252q0 -62 58 -62q32 0 55 10v-112q-40 -14 -88 -14z" glyph-name="t" horiz-adv-x="389" unicode="t"/>
<glyph d="M244 -11q-80 0 -127 47q-51 51 -51 150v337h144v-317q0 -105 91 -105q48 0 78.5 29.5t30.5 85.5v307h144v-523h-144v82q-47 -93 -166 -93z" glyph-name="u" horiz-adv-x="624" unicode="u"/>
<glyph d="M20 523h155l125 -374l124 374h140l-190 -523h-163z" glyph-name="v" horiz-adv-x="584" unicode="v"/>
<glyph d="M22 523h152l93 -352l101 352h119l92 -352l99 352h139l-165 -523h-142l-89 328l-96 -328h-144z" glyph-name="w" horiz-adv-x="838" unicode="w"/>
<glyph d="M202 267l-167 256h166l98 -157l96 157h150l-167 -245l184 -278h-167l-110 176l-113 -176h-149z" glyph-name="x" horiz-adv-x="586" unicode="x"/>
<glyph d="M228 53l-208 470h156l127 -314l117 314h139l-283 -701h-140z" glyph-name="y" horiz-adv-x="579" unicode="y"/>
<glyph d="M20 16l258 395h-232v112h442v-18l-260 -393h250v-112h-458v16z" glyph-name="z" horiz-adv-x="511" unicode="z"/>
<glyph d="M370 -148q-140 0 -200.5 53t-40.5 169l16 92q7 42 -18 69.5t-87 27.5v103q62 0 87 27.5t18 69.5l-16 91q-22 116 42 172q57 51 199 51v-106q-64 -2 -87 -26.5t-13 -87.5l15 -107q8 -52 -19 -87t-82 -48q55 -12 82 -47t19 -88l-15 -106q-10 -64 13 -89.5t87 -27.5v-105z " glyph-name="braceleft" horiz-adv-x="417" unicode="{"/>
<glyph d="M85 776h104v-924h-104v924z" glyph-name="bar" horiz-adv-x="274" unicode="|"/>
<glyph d="M46 -43q65 2 87.5 27.5t13.5 89.5l-15 106q-8 53 19 88t82 47q-55 13 -82 48t-19 87l15 107q9 63 -13.5 87.5t-87.5 26.5v106q142 0 200 -51q61 -55 42 -172l-16 -91q-7 -44 17 -68q27 -29 87 -29v-103q-60 0 -87 -29q-24 -24 -17 -68l16 -92q20 -116 -41 -169t-201 -53 v105z" glyph-name="braceright" horiz-adv-x="417" unicode="}"/>
<glyph d="M40 218q6 86 45 132q34 40 87 40q38 0 88 -23l33 -17q14 -7 28 -7q39 0 45 49h98q-4 -84 -44 -130q-36 -43 -87 -43q-41 0 -89 24q-50 23 -61 23q-39 0 -45 -48h-98z" glyph-name="asciitilde" horiz-adv-x="504" unicode="~"/>
<glyph glyph-name="uni00A0" horiz-adv-x="266" unicode=" "/>
<glyph d="M105 375h118l22 -492h-162zM165 434q-38 0 -65 25t-27 62q0 35 28 61q25 25 64 25q38 0 65 -25q26 -26 26 -61q0 -37 -26.5 -62t-64.5 -25z" glyph-name="exclamdown" horiz-adv-x="329" unicode="¡"/>
<glyph d="M278 -9q-108 11 -172 78q-68 70 -68 186v8q0 113 69 188q67 70 171 82v96h71v-96q87 -8 144 -55q62 -55 69 -146h-134q-10 73 -79 91v-328q81 19 88 104h128q-5 -88 -62.5 -143.5t-153.5 -64.5v-126h-71v126zM182 257q0 -134 96 -160v325q-45 -12 -70.5 -52.5 t-25.5 -104.5v-8z" glyph-name="cent" horiz-adv-x="596" unicode="¢"/>
<glyph d="M45 396h57q-15 53 -15 108q0 102 74 163q71 58 181 58q118 0 185 -61q61 -58 67 -161h-149q-9 50 -31.5 74t-67.5 24q-44 0 -71 -28t-27 -76q0 -55 10 -101h191v-99h-171q7 -47 7 -83q0 -28 -12 -61q13 -4 42 -14.5t46.5 -15t32.5 -4.5q69 0 73 69h144q-5 -89 -52 -141 q-51 -56 -136 -56q-59 0 -124 28q-8 3 -24.5 9.5t-25 9.5t-20 6t-20.5 3q-49 0 -55 -47h-123q5 56 29 95q27 45 77 62q9 29 9 57q0 34 -14 83h-87v99z" glyph-name="sterling" horiz-adv-x="647" unicode="£"/>
<glyph d="M77 356h144l-198 359h176l129 -266l126 266h155l-187 -359h145v-67h-164v-61h164v-66h-164v-162h-162v162h-164v66h164v61h-164v67z" glyph-name="yen" horiz-adv-x="633" unicode="¥"/>
<glyph d="M85 300h104v-448h-104v448zM85 776h104v-406h-104v406z" glyph-name="brokenbar" horiz-adv-x="278" unicode="¦"/>
<glyph d="M289 -137q-97 0 -152 46.5t-58 129.5h135q5 -74 76 -74q37 0 55.5 17t18.5 45t-24 45q-26 16 -95 34q-107 27 -152 63q-58 45 -58 123q0 99 110 136q-51 45 -51 120q0 78 62 129q57 48 149 48q95 0 149 -46t57 -128h-133q-6 70 -75 70q-37 0 -55 -17t-18 -45 q0 -30 23 -46q19 -14 92 -33q105 -25 154 -60q60 -45 60 -126q0 -97 -109 -137q50 -44 50 -119q0 -76 -60 -126q-58 -49 -151 -49zM359 210q60 15 60 64q0 29 -26 47q-22 13 -82 31l-76 23q-60 -11 -60 -65q0 -27 24 -42.5t86 -34.5z" glyph-name="section" horiz-adv-x="594" unicode="§"/>
<glyph d="M104 600q-31 0 -52.5 21t-21.5 51t21.5 51t52.5 21t52.5 -21t21.5 -51t-21.5 -51t-52.5 -21zM308 600q-31 0 -52.5 21t-21.5 51t21.5 51t52.5 21t52.5 -21t21.5 -51t-21.5 -51t-52.5 -21z" glyph-name="dieresis" horiz-adv-x="412" unicode="¨"/>
<glyph d="M432 152q-99 0 -151.5 54t-52.5 147v8q0 90 57 147q57 55 144 55q79 0 127.5 -37.5t54.5 -112.5h-109q-7 65 -73 65q-42 0 -65.5 -30t-23.5 -87v-7q0 -116 91 -116q70 0 80 69h104q-6 -76 -56 -115q-47 -40 -127 -40zM427 32q133 0 226 90q95 92 95 237q0 141 -93 234 q-93 90 -226 90q-137 0 -228 -91q-94 -91 -94 -235t96 -235q90 -90 224 -90zM427 -16q-159 0 -267 108q-110 108 -110 265q0 155 110 265q109 109 269 109q159 0 269 -108q108 -110 108 -264q0 -159 -110 -267q-111 -108 -269 -108z" glyph-name="copyright" horiz-adv-x="855" unicode="©"/>
<glyph d="M175 288q-63 0 -99 30q-42 34 -42 95q0 70 59 103q54 29 158 29h47v19q0 34 -14 50.5t-47 16.5q-56 0 -65 -53h-122q6 74 59 110q49 36 134 36q84 0 132 -36q50 -39 50 -121v-269h-125v49q-42 -59 -125 -59zM216 378q36 0 59 17.5t23 48.5v31h-43q-93 0 -93 -52 q0 -45 54 -45z" glyph-name="ordfeminine" horiz-adv-x="472" unicode="ª"/>
<glyph d="M47 261l127 186h103l-122 -186l122 -186h-103zM226 261l127 186h103l-122 -186l122 -186h-103z" glyph-name="guillemotleft" horiz-adv-x="499" unicode="«"/>
<glyph d="M60 339h256v-115h-256v115z" glyph-name="uni00AD" horiz-adv-x="376" unicode="­"/>
<glyph d="M182 615h85q89 0 89 -69v-1q0 -40 -40 -59l53 -90h-64l-45 79h-16v-79h-62v219zM264 515q32 0 32 27v1q0 25 -32 25h-20v-53h20zM264 319q78 0 131 51t53 133t-51 133q-53 51 -133 51q-81 0 -132 -51q-52 -52 -52 -134q0 -81 54 -133q50 -50 130 -50zM264 281 q-95 0 -161 64q-66 63 -66 157q0 92 66 158q67 65 161 65q96 0 161 -65t65 -157q0 -93 -65 -158q-66 -64 -161 -64z" glyph-name="registered" horiz-adv-x="528" unicode="®"/>
<glyph d="M60 712h291v-87h-291v87z" glyph-name="macron" horiz-adv-x="412" unicode="¯"/>
<glyph d="M228 456q39 0 64.5 28.5t25.5 71.5q0 44 -25 73t-65 29q-41 0 -67 -29t-26 -73q0 -43 26 -71.5t67 -28.5zM228 390q-71 0 -121 50q-51 46 -51 116t51 119q52 49 121 49t121 -49q50 -50 50 -119t-50 -116q-50 -50 -121 -50z" glyph-name="degree" horiz-adv-x="455" unicode="°"/>
<glyph d="M223 336h-180v108h180v172h118v-172h180v-108h-180v-171h-118v171zM43 100h480v-100h-480v100z" glyph-name="plusminus" horiz-adv-x="563" unicode="±"/>
<glyph d="M12 366l128 134q33 34 48 56t15 44q0 39 -38 39q-40 0 -47 -57h-99q3 67 42.5 102.5t108.5 35.5q67 0 103 -31t36 -82q0 -36 -18 -65.5t-54 -63.5l-49 -48h124v-78h-300v14z" glyph-name="twosuperior" horiz-adv-x="341" unicode="²"/>
<glyph d="M180 345q-74 0 -116 35q-37 34 -39 91h96q5 -49 53 -49t48 41t-50 41h-29v64h28q49 0 49 40q0 36 -40 36q-43 0 -49 -45h-96q4 55 42 88t105 33q66 0 103.5 -27t37.5 -73q0 -60 -64 -78q33 -6 53 -28t20 -54q0 -53 -39.5 -84t-112.5 -31z" glyph-name="threesuperior" horiz-adv-x="363" unicode="³"/>
<glyph d="M203 753h152l-104 -159h-105z" glyph-name="acute" horiz-adv-x="412" unicode="´"/>
<glyph d="M64 523h144v-323q0 -101 91 -101q49 0 79.5 29.5t30.5 85.5v309h143v-523h-142v75q-31 -77 -119 -77q-57 0 -83 43v-219h-144v701z" glyph-name="mu" horiz-adv-x="615" unicode="µ"/>
<glyph d="M269 335h-10q-104 0 -158 47q-61 48 -61 140q0 94 62 145q59 48 157 48h233v-815h-74v754h-76v-754h-73v435z" glyph-name="paragraph" horiz-adv-x="576" unicode="¶"/>
<glyph d="M152 239q-38 0 -63.5 25.5t-25.5 62.5q0 36 25.5 61.5t63.5 25.5t64 -25.5t26 -61.5t-26 -62t-64 -26z" glyph-name="periodcentered" horiz-adv-x="305" unicode="·"/>
<glyph d="M211 -222q-51 0 -81.5 24t-35.5 66h74q6 -31 38 -31q35 0 35 33q0 31 -34 31q-17 0 -31 -10l-36 35l45 74h65l-29 -48q43 5 72 -17q32 -22 32 -67q0 -43 -31 -66.5t-83 -23.5z" glyph-name="cedilla" horiz-adv-x="412" unicode="¸"/>
<glyph d="M109 610l-82 -49v89l97 65h95v-363h-110v258z" glyph-name="onesuperior" horiz-adv-x="278" unicode="¹"/>
<glyph d="M262 386q45 0 68 30.5t23 87.5v6q0 55 -23 85.5t-68 30.5q-44 0 -68 -30t-24 -86v-6q0 -57 23.5 -87.5t68.5 -30.5zM261 288q-97 0 -159 57q-64 58 -64 155v6q0 98 64 160q63 58 160 58q96 0 159 -57q64 -59 64 -156v-6q0 -100 -64 -159q-63 -58 -160 -58z" glyph-name="ordmasculine" horiz-adv-x="523" unicode="º"/>
<glyph d="M165 261l-121 186h103l126 -186l-126 -186h-103zM344 261l-121 186h103l126 -186l-126 -186h-103z" glyph-name="guillemotright" horiz-adv-x="499" unicode="»"/>
<glyph d="M112 610l-82 -49v89l97 65h95v-363h-110v258zM606 715h84l-540 -715h-84zM584 69h-181v40l155 254h131v-221h47v-73h-47v-69h-105v69zM587 142v147l-85 -147h85z" glyph-name="onequarter" horiz-adv-x="765" unicode="¼"/>
<glyph d="M112 610l-82 -49v89l97 65h95v-363h-110v258zM593 715h84l-540 -715h-84zM439 14l128 134q33 34 48 56t15 44q0 39 -38 39q-40 0 -47 -57h-99q3 67 42.5 102.5t108.5 35.5q67 0 103 -31t36 -82q0 -36 -18 -65.5t-54 -63.5l-49 -48h124v-78h-300v14z" glyph-name="onehalf" horiz-adv-x="772" unicode="½"/>
<glyph d="M183 345q-74 0 -116 35q-37 34 -39 91h96q5 -49 53 -49t48 41t-50 41h-29v64h28q49 0 49 40q0 36 -40 36q-43 0 -49 -45h-96q4 55 42 88t105 33q66 0 103.5 -27t37.5 -73q0 -60 -64 -78q33 -6 53 -28t20 -54q0 -53 -39.5 -84t-112.5 -31zM649 715h84l-540 -715h-84z M602 69h-181v40l155 254h131v-221h47v-73h-47v-69h-105v69zM605 142v147l-85 -147h85z" glyph-name="threequarters" horiz-adv-x="785" unicode="¾"/>
<glyph d="M365 345q0 -53 -32 -98q-19 -28 -67 -74q-34 -32 -51 -56t-17 -51q0 -75 77 -75q42 0 68 27.5t31 75.5h139q-4 -101 -72 -162q-69 -58 -175 -58q-109 0 -167 50q-56 48 -56 130q0 46 25 88q16 28 57 68q5 5 31 30t38 38q33 38 37 72v25h134v-30zM299 607q38 0 64.5 -25 t26.5 -61q0 -37 -26 -61q-28 -26 -65 -26q-38 0 -64 26q-27 24 -27 61q0 36 27 61q25 25 64 25z" glyph-name="questiondown" horiz-adv-x="544" unicode="¿"/>
<glyph d="M262 715h211l232 -715h-169l-49 159h-259l-49 -159h-152zM263 274h189l-94 309zM219 902h156l52 -139h-109z" glyph-name="Agrave" horiz-adv-x="732" unicode="À"/>
<glyph d="M262 715h211l232 -715h-169l-49 159h-259l-49 -159h-152zM263 274h189l-94 309zM356 902h157l-101 -139h-109z" glyph-name="Aacute" horiz-adv-x="732" unicode="Á"/>
<glyph d="M262 715h211l232 -715h-169l-49 159h-259l-49 -159h-152zM263 274h189l-94 309zM305 902h123l108 -139h-104l-68 53l-69 -53h-102z" glyph-name="Acircumflex" horiz-adv-x="732" unicode="Â"/>
<glyph d="M262 715h211l232 -715h-169l-49 159h-259l-49 -159h-152zM263 274h189l-94 309zM426 764q-26 0 -66 19q-5 2 -16.5 7.5t-18.5 8t-14 2.5q-28 0 -35 -37h-86q5 67 36.5 103.5t77.5 36.5q23 0 65 -19q40 -19 51 -19q27 0 34 37h87q-6 -66 -38 -102.5t-77 -36.5z" glyph-name="Atilde" horiz-adv-x="732" unicode="Ã"/>
<glyph d="M262 715h211l232 -715h-169l-49 159h-259l-49 -159h-152zM263 274h189l-94 309zM257 769q-31 0 -52.5 21.5t-21.5 51.5t21.5 51t52.5 21q30 0 52 -21t22 -51t-22 -51.5t-52 -21.5zM472 769q-30 0 -51.5 21.5t-21.5 51.5t21.5 51t51.5 21q31 0 52.5 -21t21.5 -51 t-21.5 -51.5t-52.5 -21.5z" glyph-name="Adieresis" horiz-adv-x="732" unicode="Ä"/>
<glyph d="M262 715h211l232 -715h-169l-49 159h-259l-49 -159h-152zM263 274h189l-94 309zM365 808q21 0 35 15t14 38t-14 38.5t-35 15.5q-22 0 -35.5 -15.5t-13.5 -38.5t13.5 -38t35.5 -15zM365 750q-46 0 -81 33q-34 32 -34 78q0 47 34 79q35 33 81 33t81 -33q34 -32 34 -79 q0 -46 -34 -78q-35 -33 -81 -33z" glyph-name="Aring" horiz-adv-x="732" unicode="Å"/>
<glyph d="M363 715h574v-126h-300v-167h239v-118h-239v-178h317v-126h-479v168h-218l-77 -168h-157zM309 280h166v309h-24z" glyph-name="AE" horiz-adv-x="995" unicode="Æ"/>
<glyph d="M385 -222q-51 0 -81.5 24t-35.5 66h74q6 -31 38 -31q35 0 35 33q0 31 -34 31q-17 0 -31 -10l-36 35l40 66q-148 13 -229 111q-79 96 -79 250v8q0 162 102 264q99 101 253 101q134 0 217 -64q88 -69 100 -196h-166q-18 132 -150 132q-85 0 -135 -62.5t-50 -173.5v-8 q0 -112 48.5 -173t137.5 -61q68 0 111 34.5t53 102.5h159q-13 -126 -97 -197q-81 -66 -212 -71l-22 -37q43 5 72 -17q32 -22 32 -67q0 -43 -31 -66.5t-83 -23.5z" glyph-name="Ccedilla" horiz-adv-x="760" unicode="Ç"/>
<glyph d="M83 715h466v-126h-305v-167h244v-118h-244v-178h321v-126h-482v715zM177 902h156l52 -139h-109z" glyph-name="Egrave" horiz-adv-x="607" unicode="È"/>
<glyph d="M83 715h466v-126h-305v-167h244v-118h-244v-178h321v-126h-482v715zM314 902h157l-101 -139h-109z" glyph-name="Eacute" horiz-adv-x="607" unicode="É"/>
<glyph d="M83 715h466v-126h-305v-167h244v-118h-244v-178h321v-126h-482v715zM263 902h123l108 -139h-104l-68 53l-69 -53h-102z" glyph-name="Ecircumflex" horiz-adv-x="607" unicode="Ê"/>
<glyph d="M83 715h466v-126h-305v-167h244v-118h-244v-178h321v-126h-482v715zM215 769q-31 0 -52.5 21.5t-21.5 51.5t21.5 51t52.5 21q30 0 52 -21t22 -51t-22 -51.5t-52 -21.5zM430 769q-30 0 -51.5 21.5t-21.5 51.5t21.5 51t51.5 21q31 0 52.5 -21t21.5 -51t-21.5 -51.5 t-52.5 -21.5z" glyph-name="Edieresis" horiz-adv-x="607" unicode="Ë"/>
<glyph d="M87 715h163v-715h-163v715zM22 902h156l52 -139h-109z" glyph-name="Igrave" horiz-adv-x="337" unicode="Ì"/>
<glyph d="M87 715h163v-715h-163v715zM159 902h157l-101 -139h-109z" glyph-name="Iacute" horiz-adv-x="337" unicode="Í"/>
<glyph d="M87 715h163v-715h-163v715zM108 902h123l108 -139h-104l-68 53l-69 -53h-102z" glyph-name="Icircumflex" horiz-adv-x="337" unicode="Î"/>
<glyph d="M87 715h163v-715h-163v715zM60 769q-31 0 -52.5 21.5t-21.5 51.5t21.5 51t52.5 21q30 0 52 -21t22 -51t-22 -51.5t-52 -21.5zM275 769q-30 0 -51.5 21.5t-21.5 51.5t21.5 51t51.5 21q31 0 52.5 -21t21.5 -51t-21.5 -51.5t-52.5 -21.5z" glyph-name="Idieresis" horiz-adv-x="337" unicode="Ï"/>
<glyph d="M37 415h65v300h234q183 0 282 -94q93 -93 93 -256v-8q0 -165 -94 -259q-98 -98 -282 -98h-233v303h-65v112zM330 126q212 0 212 229v8q0 113 -51 169.5t-162 56.5h-67v-174h151v-112h-151v-177h68z" glyph-name="Eth" horiz-adv-x="765" unicode="Ð"/>
<glyph d="M83 715h188l272 -471v471h144v-715h-162l-298 509v-509h-144v715zM461 764q-26 0 -66 19q-5 2 -16.5 7.5t-18.5 8t-14 2.5q-28 0 -35 -37h-86q5 67 36.5 103.5t77.5 36.5q23 0 65 -19q40 -19 51 -19q27 0 34 37h87q-6 -66 -38 -102.5t-77 -36.5z" glyph-name="Ntilde" horiz-adv-x="770" unicode="Ñ"/>
<glyph d="M416 118q89 0 144 65q53 64 53 172v8q0 104 -52 169q-55 65 -147 65q-91 0 -146 -63q-53 -62 -53 -172v-8q0 -109 57 -172q55 -64 144 -64zM413 -11q-166 0 -267 104q-100 100 -100 260v8q0 162 105 262q104 102 263 102q163 0 265 -99q103 -103 103 -261v-8 q0 -161 -101 -264q-102 -104 -268 -104zM267 902h156l52 -139h-109z" glyph-name="Ograve" horiz-adv-x="828" unicode="Ò"/>
<glyph d="M416 118q89 0 144 65q53 64 53 172v8q0 104 -52 169q-55 65 -147 65q-91 0 -146 -63q-53 -62 -53 -172v-8q0 -109 57 -172q55 -64 144 -64zM413 -11q-166 0 -267 104q-100 100 -100 260v8q0 162 105 262q104 102 263 102q163 0 265 -99q103 -103 103 -261v-8 q0 -161 -101 -264q-102 -104 -268 -104zM404 902h157l-101 -139h-109z" glyph-name="Oacute" horiz-adv-x="828" unicode="Ó"/>
<glyph d="M416 118q89 0 144 65q53 64 53 172v8q0 104 -52 169q-55 65 -147 65q-91 0 -146 -63q-53 -62 -53 -172v-8q0 -109 57 -172q55 -64 144 -64zM413 -11q-166 0 -267 104q-100 100 -100 260v8q0 162 105 262q104 102 263 102q163 0 265 -99q103 -103 103 -261v-8 q0 -161 -101 -264q-102 -104 -268 -104zM353 902h123l108 -139h-104l-68 53l-69 -53h-102z" glyph-name="Ocircumflex" horiz-adv-x="828" unicode="Ô"/>
<glyph d="M416 118q89 0 144 65q53 64 53 172v8q0 104 -52 169q-55 65 -147 65q-91 0 -146 -63q-53 -62 -53 -172v-8q0 -109 57 -172q55 -64 144 -64zM413 -11q-166 0 -267 104q-100 100 -100 260v8q0 162 105 262q104 102 263 102q163 0 265 -99q103 -103 103 -261v-8 q0 -161 -101 -264q-102 -104 -268 -104zM474 764q-26 0 -66 19q-5 2 -16.5 7.5t-18.5 8t-14 2.5q-28 0 -35 -37h-86q5 67 36.5 103.5t77.5 36.5q23 0 65 -19q40 -19 51 -19q27 0 34 37h87q-6 -66 -38 -102.5t-77 -36.5z" glyph-name="Otilde" horiz-adv-x="828" unicode="Õ"/>
<glyph d="M416 118q89 0 144 65q53 64 53 172v8q0 104 -52 169q-55 65 -147 65q-91 0 -146 -63q-53 -62 -53 -172v-8q0 -109 57 -172q55 -64 144 -64zM413 -11q-166 0 -267 104q-100 100 -100 260v8q0 162 105 262q104 102 263 102q163 0 265 -99q103 -103 103 -261v-8 q0 -161 -101 -264q-102 -104 -268 -104zM305 769q-31 0 -52.5 21.5t-21.5 51.5t21.5 51t52.5 21q30 0 52 -21t22 -51t-22 -51.5t-52 -21.5zM520 769q-30 0 -51.5 21.5t-21.5 51.5t21.5 51t51.5 21q31 0 52.5 -21t21.5 -51t-21.5 -51.5t-52.5 -21.5z" glyph-name="Odieresis" horiz-adv-x="828" unicode="Ö"/>
<glyph d="M42 182l153 153l-154 154l77 78l154 -155l153 153l78 -77l-154 -153l155 -154l-78 -78l-154 155l-153 -153z" glyph-name="multiply" horiz-adv-x="546" unicode="×"/>
<glyph d="M39 21l87 93q-80 97 -80 239v8q0 162 105 262q104 102 263 102q127 0 222 -65l76 81l54 -54l-73 -78q89 -100 89 -244v-8q0 -161 -101 -264q-102 -104 -268 -104q-140 0 -233 72l-87 -93zM416 118q90 0 145 65q54 62 54 172v8q0 77 -28 132l-306 -327q55 -50 135 -50z M213 354q0 -68 23 -122l303 324q-48 41 -125 41q-94 0 -147.5 -63t-53.5 -172v-8z" glyph-name="Oslash" horiz-adv-x="828" unicode="Ø"/>
<glyph d="M372 -11q-143 0 -219 74t-76 216v436h163v-426q0 -91 30 -131t103 -40t105.5 40t32.5 137v420h163v-430q0 -146 -77.5 -221t-224.5 -75zM228 902h156l52 -139h-109z" glyph-name="Ugrave" horiz-adv-x="751" unicode="Ù"/>
<glyph d="M372 -11q-143 0 -219 74t-76 216v436h163v-426q0 -91 30 -131t103 -40t105.5 40t32.5 137v420h163v-430q0 -146 -77.5 -221t-224.5 -75zM365 902h157l-101 -139h-109z" glyph-name="Uacute" horiz-adv-x="751" unicode="Ú"/>
<glyph d="M372 -11q-143 0 -219 74t-76 216v436h163v-426q0 -91 30 -131t103 -40t105.5 40t32.5 137v420h163v-430q0 -146 -77.5 -221t-224.5 -75zM314 902h123l108 -139h-104l-68 53l-69 -53h-102z" glyph-name="Ucircumflex" horiz-adv-x="751" unicode="Û"/>
<glyph d="M372 -11q-143 0 -219 74t-76 216v436h163v-426q0 -91 30 -131t103 -40t105.5 40t32.5 137v420h163v-430q0 -146 -77.5 -221t-224.5 -75zM266 769q-31 0 -52.5 21.5t-21.5 51.5t21.5 51t52.5 21q30 0 52 -21t22 -51t-22 -51.5t-52 -21.5zM481 769q-30 0 -51.5 21.5 t-21.5 51.5t21.5 51t51.5 21q31 0 52.5 -21t21.5 -51t-21.5 -51.5t-52.5 -21.5z" glyph-name="Udieresis" horiz-adv-x="751" unicode="Ü"/>
<glyph d="M255 308l-236 407h178l145 -274l142 274h157l-223 -407v-308h-163v308zM325 902h157l-101 -139h-109z" glyph-name="Yacute" horiz-adv-x="660" unicode="Ý"/>
<glyph d="M83 715h161v-123h86q273 0 273 -221v-4q0 -110 -73 -166q-70 -55 -195 -55h-91v-146h-161v715zM326 260q121 0 121 107v4q0 55 -30.5 79t-90.5 24h-82v-214h82z" glyph-name="Thorn" horiz-adv-x="638" unicode="Þ"/>
<glyph d="M370 -10q-50 0 -94 13v112q26 -12 63 -12q48 0 74 26q34 32 34 102v6q0 70 -42.5 105t-116.5 34v110q58 0 89 31q25 25 25 66v4q0 41 -23.5 63.5t-68.5 22.5q-44 0 -70 -29.5t-26 -80.5v-563h-144v552q0 106 74 167q66 54 173 54q103 0 162 -47q60 -49 60 -135v-2 q0 -51 -32.5 -91.5t-86.5 -57.5q78 -19 124 -70q50 -58 50 -140v-7q0 -118 -65 -178q-61 -55 -159 -55z" glyph-name="germandbls" horiz-adv-x="631" unicode="ß"/>
<glyph d="M211 -11q-76 0 -123 37q-52 41 -52 119q0 87 76 130q68 38 196 38h59v21q0 50 -18.5 73t-66.5 23q-77 0 -89 -74h-137q6 88 73 136q61 43 162 43t158 -44q61 -48 61 -150v-341h-141v63q-53 -74 -158 -74zM254 90q49 0 81 25t32 68v44h-56q-66 0 -99.5 -17t-33.5 -57 q0 -63 76 -63zM139 753h152l57 -159h-105z" glyph-name="agrave" horiz-adv-x="576" unicode="à"/>
<glyph d="M211 -11q-76 0 -123 37q-52 41 -52 119q0 87 76 130q68 38 196 38h59v21q0 50 -18.5 73t-66.5 23q-77 0 -89 -74h-137q6 88 73 136q61 43 162 43t158 -44q61 -48 61 -150v-341h-141v63q-53 -74 -158 -74zM254 90q49 0 81 25t32 68v44h-56q-66 0 -99.5 -17t-33.5 -57 q0 -63 76 -63zM289 753h152l-104 -159h-105z" glyph-name="aacute" horiz-adv-x="576" unicode="á"/>
<glyph d="M211 -11q-76 0 -123 37q-52 41 -52 119q0 87 76 130q68 38 196 38h59v21q0 50 -18.5 73t-66.5 23q-77 0 -89 -74h-137q6 88 73 136q61 43 162 43t158 -44q61 -48 61 -150v-341h-141v63q-53 -74 -158 -74zM254 90q49 0 81 25t32 68v44h-56q-66 0 -99.5 -17t-33.5 -57 q0 -63 76 -63zM230 751h109l114 -156h-102l-69 63l-70 -63h-99z" glyph-name="acircumflex" horiz-adv-x="576" unicode="â"/>
<glyph d="M211 -11q-76 0 -123 37q-52 41 -52 119q0 87 76 130q68 38 196 38h59v21q0 50 -18.5 73t-66.5 23q-77 0 -89 -74h-137q6 88 73 136q61 43 162 43t158 -44q61 -48 61 -150v-341h-141v63q-53 -74 -158 -74zM254 90q49 0 81 25t32 68v44h-56q-66 0 -99.5 -17t-33.5 -57 q0 -63 76 -63zM350 598q-28 0 -64 19l-26 13q-12 6 -23 6q-13 0 -22.5 -10.5t-12.5 -26.5h-83q5 68 34.5 104.5t75.5 36.5q21 0 64 -18q40 -19 51 -19q28 0 34 37h84q-6 -68 -37 -105t-75 -37z" glyph-name="atilde" horiz-adv-x="576" unicode="ã"/>
<glyph d="M211 -11q-76 0 -123 37q-52 41 -52 119q0 87 76 130q68 38 196 38h59v21q0 50 -18.5 73t-66.5 23q-77 0 -89 -74h-137q6 88 73 136q61 43 162 43t158 -44q61 -48 61 -150v-341h-141v63q-53 -74 -158 -74zM254 90q49 0 81 25t32 68v44h-56q-66 0 -99.5 -17t-33.5 -57 q0 -63 76 -63zM188 600q-31 0 -52.5 21t-21.5 51t21.5 51t52.5 21t52.5 -21t21.5 -51t-21.5 -51t-52.5 -21zM392 600q-31 0 -52.5 21t-21.5 51t21.5 51t52.5 21t52.5 -21t21.5 -51t-21.5 -51t-52.5 -21z" glyph-name="adieresis" horiz-adv-x="576" unicode="ä"/>
<glyph d="M211 -11q-76 0 -123 37q-52 41 -52 119q0 87 76 130q68 38 196 38h59v21q0 50 -18.5 73t-66.5 23q-77 0 -89 -74h-137q6 88 73 136q61 43 162 43t158 -44q61 -48 61 -150v-341h-141v63q-53 -74 -158 -74zM254 90q49 0 81 25t32 68v44h-56q-66 0 -99.5 -17t-33.5 -57 q0 -63 76 -63zM292 643q21 0 35 15t14 38t-14 38.5t-35 15.5q-22 0 -35.5 -15.5t-13.5 -38.5t13.5 -38t35.5 -15zM292 585q-46 0 -81 33q-34 32 -34 78q0 47 34 79q35 33 81 33t81 -33q34 -32 34 -79q0 -46 -34 -78q-35 -33 -81 -33z" glyph-name="aring" horiz-adv-x="576" unicode="å"/>
<glyph d="M629 -11q-139 0 -201 97q-68 -97 -206 -97q-82 0 -131 37q-55 39 -55 119q0 88 76 132q68 39 194 39h62v18q0 49 -19.5 72.5t-65.5 23.5q-79 0 -90 -74h-137q6 88 73 136q59 43 157 43q123 0 167 -70q67 70 171 70q109 0 174 -62q75 -72 75 -202v-39h-367 q8 -140 124 -140q92 0 105 73h136q-12 -85 -75 -130.5t-167 -45.5zM254 90q52 0 83 24.5t31 68.5v46h-59q-65 0 -98 -16.5t-33 -56.5q0 -66 76 -66zM732 318q-8 117 -108 117q-48 0 -78.5 -31t-37.5 -86h224z" glyph-name="ae" horiz-adv-x="910" unicode="æ"/>
<glyph d="M288 -222q-51 0 -81.5 24t-35.5 66h74q6 -31 38 -31q35 0 35 33q0 31 -34 31q-17 0 -31 -10l-36 35l40 67q-97 14 -157 81q-62 68 -62 181v8q0 123 79 200q75 72 191 72q101 0 164 -45q72 -52 82 -158h-137q-13 89 -106 89q-58 0 -91.5 -41t-33.5 -115v-8 q0 -78 33.5 -118.5t94.5 -40.5q46 0 76.5 26t35.5 75h131q-6 -92 -68.5 -149t-168.5 -61l-22 -37q43 5 72 -17q32 -22 32 -67q0 -43 -31 -66.5t-83 -23.5z" glyph-name="ccedilla" horiz-adv-x="590" unicode="ç"/>
<glyph d="M311 -11q-122 0 -195 71q-78 72 -78 195v8q0 122 78 198q76 74 191 74q109 0 178 -63q77 -70 77 -203v-40h-377q3 -66 36.5 -101.5t93.5 -35.5q94 0 109 73h137q-13 -85 -77.5 -130.5t-172.5 -45.5zM421 318q-7 117 -114 117q-49 0 -80.5 -30.5t-39.5 -86.5h234zM153 753 h152l57 -159h-105z" glyph-name="egrave" horiz-adv-x="599" unicode="è"/>
<glyph d="M311 -11q-122 0 -195 71q-78 72 -78 195v8q0 122 78 198q76 74 191 74q109 0 178 -63q77 -70 77 -203v-40h-377q3 -66 36.5 -101.5t93.5 -35.5q94 0 109 73h137q-13 -85 -77.5 -130.5t-172.5 -45.5zM421 318q-7 117 -114 117q-49 0 -80.5 -30.5t-39.5 -86.5h234zM303 753 h152l-104 -159h-105z" glyph-name="eacute" horiz-adv-x="599" unicode="é"/>
<glyph d="M311 -11q-122 0 -195 71q-78 72 -78 195v8q0 122 78 198q76 74 191 74q109 0 178 -63q77 -70 77 -203v-40h-377q3 -66 36.5 -101.5t93.5 -35.5q94 0 109 73h137q-13 -85 -77.5 -130.5t-172.5 -45.5zM421 318q-7 117 -114 117q-49 0 -80.5 -30.5t-39.5 -86.5h234zM251 751 h109l114 -156h-102l-69 63l-70 -63h-99z" glyph-name="ecircumflex" horiz-adv-x="599" unicode="ê"/>
<glyph d="M311 -11q-122 0 -195 71q-78 72 -78 195v8q0 122 78 198q76 74 191 74q109 0 178 -63q77 -70 77 -203v-40h-377q3 -66 36.5 -101.5t93.5 -35.5q94 0 109 73h137q-13 -85 -77.5 -130.5t-172.5 -45.5zM421 318q-7 117 -114 117q-49 0 -80.5 -30.5t-39.5 -86.5h234zM202 600 q-31 0 -52.5 21t-21.5 51t21.5 51t52.5 21t52.5 -21t21.5 -51t-21.5 -51t-52.5 -21zM406 600q-31 0 -52.5 21t-21.5 51t21.5 51t52.5 21t52.5 -21t21.5 -51t-21.5 -51t-52.5 -21z" glyph-name="edieresis" horiz-adv-x="599" unicode="ë"/>
<glyph d="M74 523h144v-523h-144v523zM-4 753h152l57 -159h-105z" glyph-name="igrave" horiz-adv-x="293" unicode="ì"/>
<glyph d="M74 523h144v-523h-144v523zM146 753h152l-104 -159h-105z" glyph-name="iacute" horiz-adv-x="293" unicode="í"/>
<glyph d="M74 523h144v-523h-144v523zM94 751h109l114 -156h-102l-69 63l-70 -63h-99z" glyph-name="icircumflex" horiz-adv-x="293" unicode="î"/>
<glyph d="M46 600q-30 0 -51.5 21t-21.5 51t21.5 51t51.5 21q31 0 52.5 -21t21.5 -51t-21.5 -51t-52.5 -21zM245 600q-30 0 -51.5 21t-21.5 51t21.5 51t51.5 21q31 0 52.5 -21t21.5 -51t-21.5 -51t-52.5 -21zM74 523h144v-523h-144v523z" glyph-name="idieresis" horiz-adv-x="293" unicode="ï"/>
<glyph d="M137 619l106 46q-49 42 -123 95h165q37 -21 70 -47l99 43l25 -58l-69 -30q80 -76 124 -158q55 -105 55 -213v-22q0 -131 -77 -208q-75 -78 -201 -78q-119 0 -195 74q-78 75 -78 198v10q0 114 73 189q68 70 163 70q75 0 123 -54q-32 69 -104 142l-130 -56zM314 99 q61 0 94.5 42t33.5 117v7q0 75 -33.5 117.5t-93.5 42.5t-94.5 -41.5t-34.5 -116.5v-8q0 -76 33 -118t95 -42z" glyph-name="eth" horiz-adv-x="628" unicode="ð"/>
<glyph d="M70 523h145v-83q49 95 170 95q79 0 127 -48q49 -52 49 -154v-333h-145v312q0 54 -22 79.5t-70 25.5q-49 0 -79 -29.5t-30 -85.5v-302h-145v523zM373 598q-28 0 -64 19l-26 13q-12 6 -23 6q-13 0 -22.5 -10.5t-12.5 -26.5h-83q5 68 34.5 104.5t75.5 36.5q21 0 64 -18 q40 -19 51 -19q28 0 34 37h84q-6 -68 -37 -105t-75 -37z" glyph-name="ntilde" horiz-adv-x="627" unicode="ñ"/>
<glyph d="M314 99q61 0 94.5 42t33.5 117v7q0 75 -33.5 117.5t-94.5 42.5q-60 0 -94 -41.5t-34 -116.5v-8q0 -76 33 -118t95 -42zM313 -11q-120 0 -196 73q-79 73 -79 194v8q0 121 79 197q77 74 197 74q121 0 197 -73q78 -76 78 -195v-8q0 -121 -79 -197q-76 -73 -197 -73zM162 753 h152l57 -159h-105z" glyph-name="ograve" horiz-adv-x="628" unicode="ò"/>
<glyph d="M314 99q61 0 94.5 42t33.5 117v7q0 75 -33.5 117.5t-94.5 42.5q-60 0 -94 -41.5t-34 -116.5v-8q0 -76 33 -118t95 -42zM313 -11q-120 0 -196 73q-79 73 -79 194v8q0 121 79 197q77 74 197 74q121 0 197 -73q78 -76 78 -195v-8q0 -121 -79 -197q-76 -73 -197 -73zM312 753 h152l-104 -159h-105z" glyph-name="oacute" horiz-adv-x="628" unicode="ó"/>
<glyph d="M314 99q61 0 94.5 42t33.5 117v7q0 75 -33.5 117.5t-94.5 42.5q-60 0 -94 -41.5t-34 -116.5v-8q0 -76 33 -118t95 -42zM313 -11q-120 0 -196 73q-79 73 -79 194v8q0 121 79 197q77 74 197 74q121 0 197 -73q78 -76 78 -195v-8q0 -121 -79 -197q-76 -73 -197 -73zM260 751 h109l114 -156h-102l-69 63l-70 -63h-99z" glyph-name="ocircumflex" horiz-adv-x="628" unicode="ô"/>
<glyph d="M314 99q61 0 94.5 42t33.5 117v7q0 75 -33.5 117.5t-94.5 42.5q-60 0 -94 -41.5t-34 -116.5v-8q0 -76 33 -118t95 -42zM313 -11q-120 0 -196 73q-79 73 -79 194v8q0 121 79 197q77 74 197 74q121 0 197 -73q78 -76 78 -195v-8q0 -121 -79 -197q-76 -73 -197 -73zM373 598 q-28 0 -64 19l-26 13q-12 6 -23 6q-13 0 -22.5 -10.5t-12.5 -26.5h-83q5 68 34.5 104.5t75.5 36.5q21 0 64 -18q40 -19 51 -19q28 0 34 37h84q-6 -68 -37 -105t-75 -37z" glyph-name="otilde" horiz-adv-x="628" unicode="õ"/>
<glyph d="M314 99q61 0 94.5 42t33.5 117v7q0 75 -33.5 117.5t-94.5 42.5q-60 0 -94 -41.5t-34 -116.5v-8q0 -76 33 -118t95 -42zM313 -11q-120 0 -196 73q-79 73 -79 194v8q0 121 79 197q77 74 197 74q121 0 197 -73q78 -76 78 -195v-8q0 -121 -79 -197q-76 -73 -197 -73zM211 600 q-31 0 -52.5 21t-21.5 51t21.5 51t52.5 21t52.5 -21t21.5 -51t-21.5 -51t-52.5 -21zM415 600q-31 0 -52.5 21t-21.5 51t21.5 51t52.5 21t52.5 -21t21.5 -51t-21.5 -51t-52.5 -21z" glyph-name="odieresis" horiz-adv-x="628" unicode="ö"/>
<glyph d="M282 60q-35 0 -59 23.5t-24 58.5q0 34 24 58t59 24t59 -24t24 -58q0 -35 -24 -58.5t-59 -23.5zM43 393h479v-104h-479v104zM282 458q-35 0 -59 23.5t-24 58.5t24 58.5t59 23.5t59 -23.5t24 -58.5t-24 -58.5t-59 -23.5z" glyph-name="divide" horiz-adv-x="565" unicode="÷"/>
<glyph d="M28 6l70 75q-60 69 -60 175v8q0 121 79 197q77 74 197 74q96 0 161 -46l66 71l49 -44l-65 -70q64 -72 64 -179v-8q0 -121 -79 -197q-76 -73 -197 -73q-96 0 -166 48l-70 -75zM314 98q62 0 95.5 42t33.5 118v7q0 41 -13 78l-200 -216q32 -29 84 -29zM185 259q0 -44 10 -73 l197 213q-31 26 -78 26q-61 0 -95 -41.5t-34 -116.5v-8z" glyph-name="oslash" horiz-adv-x="628" unicode="ø"/>
<glyph d="M244 -11q-80 0 -127 47q-51 51 -51 150v337h144v-317q0 -105 91 -105q48 0 78.5 29.5t30.5 85.5v307h144v-523h-144v82q-47 -93 -166 -93zM160 753h152l57 -159h-105z" glyph-name="ugrave" horiz-adv-x="624" unicode="ù"/>
<glyph d="M244 -11q-80 0 -127 47q-51 51 -51 150v337h144v-317q0 -105 91 -105q48 0 78.5 29.5t30.5 85.5v307h144v-523h-144v82q-47 -93 -166 -93zM310 753h152l-104 -159h-105z" glyph-name="uacute" horiz-adv-x="624" unicode="ú"/>
<glyph d="M244 -11q-80 0 -127 47q-51 51 -51 150v337h144v-317q0 -105 91 -105q48 0 78.5 29.5t30.5 85.5v307h144v-523h-144v82q-47 -93 -166 -93zM258 751h109l114 -156h-102l-69 63l-70 -63h-99z" glyph-name="ucircumflex" horiz-adv-x="624" unicode="û"/>
<glyph d="M244 -11q-80 0 -127 47q-51 51 -51 150v337h144v-317q0 -105 91 -105q48 0 78.5 29.5t30.5 85.5v307h144v-523h-144v82q-47 -93 -166 -93zM209 600q-31 0 -52.5 21t-21.5 51t21.5 51t52.5 21t52.5 -21t21.5 -51t-21.5 -51t-52.5 -21zM413 600q-31 0 -52.5 21t-21.5 51 t21.5 51t52.5 21t52.5 -21t21.5 -51t-21.5 -51t-52.5 -21z" glyph-name="udieresis" horiz-adv-x="624" unicode="ü"/>
<glyph d="M228 53l-208 470h156l127 -314l117 314h139l-283 -701h-140zM298 753h152l-104 -159h-105z" glyph-name="yacute" horiz-adv-x="579" unicode="ý"/>
<glyph d="M70 760h145v-319q23 41 67.5 67.5t99.5 26.5q99 0 162 -69q66 -72 66 -199v-8q0 -126 -65 -199q-62 -71 -163 -71q-58 0 -102 25.5t-65 65.5v-258h-145v938zM339 102q60 0 92 39.5t32 116.5v8q0 78 -34 118t-91 40q-59 0 -93.5 -40.5t-34.5 -117.5v-8q0 -77 34 -116.5 t95 -39.5z" glyph-name="thorn" horiz-adv-x="649" unicode="þ"/>
<glyph d="M228 53l-208 470h156l127 -314l117 314h139l-283 -701h-140zM197 600q-31 0 -52.5 21t-21.5 51t21.5 51t52.5 21t52.5 -21t21.5 -51t-21.5 -51t-52.5 -21zM401 600q-31 0 -52.5 21t-21.5 51t21.5 51t52.5 21t52.5 -21t21.5 -51t-21.5 -51t-52.5 -21z" glyph-name="ydieresis" horiz-adv-x="579" unicode="ÿ"/>
<glyph d="M262 715h211l232 -715h-169l-49 159h-259l-49 -159h-152zM263 274h189l-94 309zM214 868h302v-91h-302v91z" glyph-name="Amacron" horiz-adv-x="720" unicode="Ā"/>
<glyph d="M211 -11q-76 0 -123 37q-52 41 -52 119q0 87 76 130q68 38 196 38h59v21q0 50 -18.5 73t-66.5 23q-77 0 -89 -74h-137q6 88 73 136q61 43 162 43t158 -44q61 -48 61 -150v-341h-141v63q-53 -74 -158 -74zM254 90q49 0 81 25t32 68v44h-56q-66 0 -99.5 -17t-33.5 -57 q0 -63 76 -63zM144 712h291v-87h-291v87z" glyph-name="amacron" horiz-adv-x="564" unicode="ā"/>
<glyph d="M262 715h211l232 -715h-169l-49 159h-259l-49 -159h-152zM263 274h189l-94 309zM364 757q-66 0 -107.5 40t-45.5 106h97q8 -52 56 -52t59 52h96q-5 -66 -47 -106t-108 -40z" glyph-name="Abreve" horiz-adv-x="720" unicode="Ă"/>
<glyph d="M211 -11q-76 0 -123 37q-52 41 -52 119q0 87 76 130q68 38 196 38h59v21q0 50 -18.5 73t-66.5 23q-77 0 -89 -74h-137q6 88 73 136q61 43 162 43t158 -44q61 -48 61 -150v-341h-141v63q-53 -74 -158 -74zM254 90q49 0 81 25t32 68v44h-56q-66 0 -99.5 -17t-33.5 -57 q0 -63 76 -63zM289 598q-66 0 -107 40t-45 109h95q7 -54 57 -54t61 54h93q-4 -68 -46.5 -108.5t-107.5 -40.5z" glyph-name="abreve" horiz-adv-x="564" unicode="ă"/>
<glyph d="M618 -182q-54 0 -85.5 21.5t-31.5 59.5q0 60 83 101h-54l-49 159h-259l-49 -159h-152l235 715h211l229 -705q-68 -39 -68 -79q0 -30 33 -30q24 0 38 7v-75q-36 -15 -81 -15zM257 274h189l-94 309z" glyph-name="Aogonek" horiz-adv-x="720" unicode="Ą"/>
<glyph d="M430 -182q-52 0 -82 21t-30 59q0 63 83 102h-38v63q-53 -74 -158 -74q-76 0 -125.5 39t-49.5 117q0 168 272 168h59v21q0 50 -18.5 73t-66.5 23q-77 0 -89 -74h-137q6 89 70 134t165 45q219 0 219 -194v-333q-64 -41 -64 -79q0 -31 33 -31q24 0 38 7v-72q-36 -15 -81 -15 zM248 90q49 0 81 25t32 68v44h-56q-66 0 -99.5 -17t-33.5 -57q0 -63 76 -63z" glyph-name="aogonek" horiz-adv-x="564" unicode="ą"/>
<glyph d="M405 -11q-173 0 -267 100q-92 95 -92 264v8q0 162 102 264q99 101 253 101q134 0 217 -64q88 -69 100 -196h-166q-18 132 -150 132q-85 0 -135 -62.5t-50 -173.5v-8q0 -112 48.5 -173t137.5 -61q68 0 111 34.5t53 102.5h159q-13 -131 -101 -200q-85 -68 -220 -68z M391 902h157l-101 -139h-109z" glyph-name="Cacute" horiz-adv-x="748" unicode="Ć"/>
<glyph d="M307 -11q-118 0 -192 69q-77 72 -77 197v8q0 123 79 200q75 72 191 72q101 0 164 -45q72 -52 82 -158h-137q-13 89 -106 89q-58 0 -91.5 -41t-33.5 -115v-8q0 -78 33.5 -118.5t94.5 -40.5q46 0 76.5 26t35.5 75h131q-6 -97 -71 -151q-69 -59 -179 -59zM303 753h152 l-104 -159h-105z" glyph-name="cacute" horiz-adv-x="578" unicode="ć"/>
<glyph d="M405 -11q-173 0 -267 100q-92 95 -92 264v8q0 162 102 264q99 101 253 101q134 0 217 -64q88 -69 100 -196h-166q-18 132 -150 132q-85 0 -135 -62.5t-50 -173.5v-8q0 -112 48.5 -173t137.5 -61q68 0 111 34.5t53 102.5h159q-13 -131 -101 -200q-85 -68 -220 -68z M340 902h123l108 -139h-104l-68 53l-69 -53h-102z" glyph-name="Ccircumflex" horiz-adv-x="748" unicode="Ĉ"/>
<glyph d="M307 -11q-118 0 -192 69q-77 72 -77 197v8q0 123 79 200q75 72 191 72q101 0 164 -45q72 -52 82 -158h-137q-13 89 -106 89q-58 0 -91.5 -41t-33.5 -115v-8q0 -78 33.5 -118.5t94.5 -40.5q46 0 76.5 26t35.5 75h131q-6 -97 -71 -151q-69 -59 -179 -59zM252 751h109 l114 -156h-102l-69 63l-70 -63h-99z" glyph-name="ccircumflex" horiz-adv-x="578" unicode="ĉ"/>
<glyph d="M405 -11q-173 0 -267 100q-92 95 -92 264v8q0 162 102 264q99 101 253 101q134 0 217 -64q88 -69 100 -196h-166q-18 132 -150 132q-85 0 -135 -62.5t-50 -173.5v-8q0 -112 48.5 -173t137.5 -61q68 0 111 34.5t53 102.5h159q-13 -131 -101 -200q-85 -68 -220 -68z M398 768q-35 0 -58 22t-23 55t23 55t58 22q34 0 57 -22.5t23 -54.5t-23 -54.5t-57 -22.5z" glyph-name="Cdotaccent" horiz-adv-x="748" unicode="Ċ"/>
<glyph d="M307 -11q-118 0 -192 69q-77 72 -77 197v8q0 123 79 200q75 72 191 72q101 0 164 -45q72 -52 82 -158h-137q-13 89 -106 89q-58 0 -91.5 -41t-33.5 -115v-8q0 -78 33.5 -118.5t94.5 -40.5q46 0 76.5 26t35.5 75h131q-6 -97 -71 -151q-69 -59 -179 -59zM306 598 q-35 0 -58 22t-23 55t23 55t58 22q34 0 57 -22.5t23 -54.5t-23 -54.5t-57 -22.5z" glyph-name="cdotaccent" horiz-adv-x="578" unicode="ċ"/>
<glyph d="M405 -11q-173 0 -267 100q-92 95 -92 264v8q0 162 102 264q99 101 253 101q134 0 217 -64q88 -69 100 -196h-166q-18 132 -150 132q-85 0 -135 -62.5t-50 -173.5v-8q0 -112 48.5 -173t137.5 -61q68 0 111 34.5t53 102.5h159q-13 -131 -101 -200q-85 -68 -220 -68z M228 902h104l69 -52l68 52h102l-112 -139h-123z" glyph-name="Ccaron" horiz-adv-x="748" unicode="Č"/>
<glyph d="M307 -11q-118 0 -192 69q-77 72 -77 197v8q0 123 79 200q75 72 191 72q101 0 164 -45q72 -52 82 -158h-137q-13 89 -106 89q-58 0 -91.5 -41t-33.5 -115v-8q0 -78 33.5 -118.5t94.5 -40.5q46 0 76.5 26t35.5 75h131q-6 -97 -71 -151q-69 -59 -179 -59zM135 751h102 l69 -63l69 63h100l-117 -156h-109z" glyph-name="ccaron" horiz-adv-x="578" unicode="č"/>
<glyph d="M311 126q212 0 212 229v8q0 113 -51.5 169.5t-162.5 56.5h-64v-463h66zM83 715h234q183 0 282 -94q93 -93 93 -256v-8q0 -165 -94 -259q-98 -98 -282 -98h-233v715zM163 902h104l69 -52l68 52h102l-112 -139h-123z" glyph-name="Dcaron" horiz-adv-x="726" unicode="Ď"/>
<glyph d="M266 -11q-99 0 -161 68q-66 71 -66 197v8q0 125 66 201q63 72 164 72q116 0 165 -90v315h144v-760h-144v87q-21 -42 -67 -70t-101 -28zM309 102q59 0 94 39.5t35 117.5v8q0 77 -32 117t-93 40t-93.5 -40.5t-32.5 -118.5v-8q0 -76 33 -115.5t89 -39.5zM629 760h119 l-49 -174h-80z" glyph-name="dcaron" horiz-adv-x="637" unicode="ď"/>
<glyph d="M31 415h65v300h234q184 0 279.5 -93t95.5 -257v-8q0 -165 -96 -261t-280 -96h-233v303h-65v112zM324 126q212 0 212 229v8q0 113 -51 169.5t-162 56.5h-67v-174h151v-112h-151v-177h68z" glyph-name="Dcroat" horiz-adv-x="753" unicode="Đ"/>
<glyph d="M265 680h163v80h144v-80h64v-83h-64v-597h-144v87q-21 -42 -67 -70t-101 -28q-99 0 -163 70t-64 195v8q0 126 64.5 199.5t165.5 73.5q116 0 165 -90v152h-163v83zM303 102q59 0 94 39.5t35 117.5v8q0 77 -32 117t-93 40t-93.5 -40.5t-32.5 -118.5v-8q0 -76 33 -115.5 t89 -39.5z" glyph-name="dcroat" horiz-adv-x="637" unicode="đ"/>
<glyph d="M83 715h466v-126h-305v-167h244v-118h-244v-178h321v-126h-482v715zM172 868h302v-91h-302v91z" glyph-name="Emacron" horiz-adv-x="595" unicode="Ē"/>
<glyph d="M311 -11q-122 0 -195 71q-78 72 -78 195v8q0 122 78 198q76 74 191 74q109 0 178 -63q77 -70 77 -203v-40h-377q3 -66 36.5 -101.5t93.5 -35.5q94 0 109 73h137q-13 -85 -77.5 -130.5t-172.5 -45.5zM421 318q-7 117 -114 117q-49 0 -80.5 -30.5t-39.5 -86.5h234zM158 712 h291v-87h-291v87z" glyph-name="emacron" horiz-adv-x="587" unicode="ē"/>
<glyph d="M83 715h466v-126h-305v-167h244v-118h-244v-178h321v-126h-482v715zM324 757q-66 0 -107.5 40t-45.5 106h97q8 -52 56 -52t59 52h96q-5 -66 -47 -106t-108 -40z" glyph-name="Ebreve" horiz-adv-x="595" unicode="Ĕ"/>
<glyph d="M311 -11q-122 0 -195 71q-78 72 -78 195v8q0 122 78 198q76 74 191 74q109 0 178 -63q77 -70 77 -203v-40h-377q3 -66 36.5 -101.5t93.5 -35.5q94 0 109 73h137q-13 -85 -77.5 -130.5t-172.5 -45.5zM421 318q-7 117 -114 117q-49 0 -80.5 -30.5t-39.5 -86.5h234zM297 598 q-66 0 -107 40t-45 109h95q7 -54 57 -54t61 54h93q-4 -68 -46.5 -108.5t-107.5 -40.5z" glyph-name="ebreve" horiz-adv-x="587" unicode="ĕ"/>
<glyph d="M83 715h466v-126h-305v-167h244v-118h-244v-178h321v-126h-482v715zM323 768q-35 0 -58 22t-23 55t23 55t58 22q34 0 57 -22.5t23 -54.5t-23 -54.5t-57 -22.5z" glyph-name="Edotaccent" horiz-adv-x="595" unicode="Ė"/>
<glyph d="M311 -11q-122 0 -195 71q-78 72 -78 195v8q0 122 78 198q76 74 191 74q109 0 178 -63q77 -70 77 -203v-40h-377q3 -66 36.5 -101.5t93.5 -35.5q94 0 109 73h137q-13 -85 -77.5 -130.5t-172.5 -45.5zM421 318q-7 117 -114 117q-49 0 -80.5 -30.5t-39.5 -86.5h234zM305 598 q-35 0 -58 22t-23 55t23 55t58 22q34 0 57 -22.5t23 -54.5t-23 -54.5t-57 -22.5z" glyph-name="edotaccent" horiz-adv-x="587" unicode="ė"/>
<glyph d="M462 -182q-54 0 -84.5 21.5t-30.5 59.5q0 60 83 101h-353v715h466v-126h-305v-167h244v-118h-244v-178h321v-126h-34q-51 -36 -51 -69q0 -30 33 -30q24 0 38 7v-75q-36 -15 -83 -15z" glyph-name="Eogonek" horiz-adv-x="595" unicode="Ę"/>
<glyph d="M399 -182q-52 0 -82.5 20.5t-30.5 58.5q0 51 77 96q-23 -4 -58 -4q-120 0 -196.5 71.5t-76.5 194.5v8q0 121 76.5 196.5t192.5 75.5q110 0 182.5 -67t72.5 -199v-40h-377q3 -66 36.5 -101.5t93.5 -35.5q94 0 109 73h137q-5 -34 -21 -64t-26 -40.5t-32 -32.5 q-36 -34 -52.5 -56t-16.5 -43q0 -31 33 -31q24 0 38 7v-72q-32 -15 -79 -15zM415 318q-7 117 -114 117q-49 0 -80.5 -30.5t-39.5 -86.5h234z" glyph-name="eogonek" horiz-adv-x="587" unicode="ę"/>
<glyph d="M83 715h466v-126h-305v-167h244v-118h-244v-178h321v-126h-482v715zM153 902h104l69 -52l68 52h102l-112 -139h-123z" glyph-name="Ecaron" horiz-adv-x="595" unicode="Ě"/>
<glyph d="M311 -11q-122 0 -195 71q-78 72 -78 195v8q0 122 78 198q76 74 191 74q109 0 178 -63q77 -70 77 -203v-40h-377q3 -66 36.5 -101.5t93.5 -35.5q94 0 109 73h137q-13 -85 -77.5 -130.5t-172.5 -45.5zM421 318q-7 117 -114 117q-49 0 -80.5 -30.5t-39.5 -86.5h234zM134 751 h102l69 -63l69 63h100l-117 -156h-109z" glyph-name="ecaron" horiz-adv-x="587" unicode="ě"/>
<glyph d="M410 -11q-172 0 -269 103q-95 97 -95 261v8q0 162 103 263q102 102 261 102q129 0 212 -58q95 -68 106 -192h-161q-22 122 -155 122q-93 0 -145 -64t-52 -175v-8q0 -110 47 -170q50 -67 152 -67q85 0 130 45q40 39 42 106h-161v118h321v-76q0 -145 -88 -230 q-90 -88 -248 -88zM346 902h123l108 -139h-104l-68 53l-69 -53h-102z" glyph-name="Gcircumflex" horiz-adv-x="780" unicode="Ĝ"/>
<glyph d="M302 -193q-124 0 -188 50q-61 45 -72 132h144q15 -76 116 -76q132 0 132 128v79q-26 -44 -66 -67q-46 -30 -102 -30q-99 0 -161 67q-67 70 -67 183v7q0 112 66 184q66 71 164 71q113 0 166 -90v78h144v-482q-1 -115 -72.5 -174.5t-203.5 -59.5zM309 132q58 0 93.5 38.5 t35.5 104.5v7q0 67 -33 105t-93 38t-93 -39t-33 -105v-8q0 -65 34 -103t89 -38zM254 751h109l114 -156h-102l-69 63l-70 -63h-99z" glyph-name="gcircumflex" horiz-adv-x="636" unicode="ĝ"/>
<glyph d="M410 -11q-172 0 -269 103q-95 97 -95 261v8q0 162 103 263q102 102 261 102q129 0 212 -58q95 -68 106 -192h-161q-22 122 -155 122q-93 0 -145 -64t-52 -175v-8q0 -110 47 -170q50 -67 152 -67q85 0 130 45q40 39 42 106h-161v118h321v-76q0 -145 -88 -230 q-90 -88 -248 -88zM405 757q-66 0 -107.5 40t-45.5 106h97q8 -52 56 -52t59 52h96q-5 -66 -47 -106t-108 -40z" glyph-name="Gbreve" horiz-adv-x="780" unicode="Ğ"/>
<glyph d="M302 -193q-124 0 -188 50q-61 45 -72 132h144q15 -76 116 -76q132 0 132 128v79q-26 -44 -66 -67q-46 -30 -102 -30q-99 0 -161 67q-67 70 -67 183v7q0 112 66 184q66 71 164 71q113 0 166 -90v78h144v-482q-1 -115 -72.5 -174.5t-203.5 -59.5zM309 132q58 0 93.5 38.5 t35.5 104.5v7q0 67 -33 105t-93 38t-93 -39t-33 -105v-8q0 -65 34 -103t89 -38zM306 598q-66 0 -107 40t-45 109h95q7 -54 57 -54t61 54h93q-4 -68 -46.5 -108.5t-107.5 -40.5z" glyph-name="gbreve" horiz-adv-x="636" unicode="ğ"/>
<glyph d="M410 -11q-172 0 -269 103q-95 97 -95 261v8q0 162 103 263q102 102 261 102q129 0 212 -58q95 -68 106 -192h-161q-22 122 -155 122q-93 0 -145 -64t-52 -175v-8q0 -110 47 -170q50 -67 152 -67q85 0 130 45q40 39 42 106h-161v118h321v-76q0 -145 -88 -230 q-90 -88 -248 -88zM406 768q-35 0 -58 22t-23 55t23 55t58 22q34 0 57 -22.5t23 -54.5t-23 -54.5t-57 -22.5z" glyph-name="Gdotaccent" horiz-adv-x="780" unicode="Ġ"/>
<glyph d="M302 -193q-124 0 -188 50q-61 45 -72 132h144q15 -76 116 -76q132 0 132 128v79q-26 -44 -66 -67q-46 -30 -102 -30q-99 0 -161 67q-67 70 -67 183v7q0 112 66 184q66 71 164 71q113 0 166 -90v78h144v-482q-1 -115 -72.5 -174.5t-203.5 -59.5zM309 132q58 0 93.5 38.5 t35.5 104.5v7q0 67 -33 105t-93 38t-93 -39t-33 -105v-8q0 -65 34 -103t89 -38zM307 598q-35 0 -58 22t-23 55t23 55t58 22q34 0 57 -22.5t23 -54.5t-23 -54.5t-57 -22.5z" glyph-name="gdotaccent" horiz-adv-x="636" unicode="ġ"/>
<glyph d="M410 -11q-172 0 -269 103q-95 97 -95 261v8q0 162 103 263q102 102 261 102q129 0 212 -58q95 -68 106 -192h-161q-22 122 -155 122q-93 0 -145 -64t-52 -175v-8q0 -110 47 -170q50 -67 152 -67q85 0 130 45q40 39 42 106h-161v118h321v-76q0 -145 -88 -230 q-90 -88 -248 -88zM302 -201l47 170l130 -21l-95 -176z" glyph-name="uni0122" horiz-adv-x="780" unicode="Ģ"/>
<glyph d="M302 -193q-124 0 -188 50q-61 45 -72 132h144q15 -76 116 -76q132 0 132 128v79q-26 -44 -66 -67q-46 -30 -102 -30q-99 0 -161 67q-67 70 -67 183v7q0 112 66 184q66 71 164 71q113 0 166 -90v78h144v-482q-1 -115 -72.5 -174.5t-203.5 -59.5zM309 132q58 0 93.5 38.5 t35.5 104.5v7q0 67 -33 105t-93 38t-93 -39t-33 -105v-8q0 -65 34 -103t89 -38zM244 600l95 175l82 -26l-47 -170z" glyph-name="uni0123" horiz-adv-x="636" unicode="ģ"/>
<glyph d="M83 715h162v-292h287v292h162v-715h-162v295h-287v-295h-162v715zM328 902h123l108 -139h-104l-68 53l-69 -53h-102z" glyph-name="Hcircumflex" horiz-adv-x="764" unicode="Ĥ"/>
<glyph d="M70 760h145v-320q49 95 170 95q79 0 127 -48q49 -52 49 -154v-333h-145v312q0 54 -22 79.5t-70 25.5q-49 0 -79 -29.5t-30 -85.5v-302h-145v760zM261 937h123l108 -139h-104l-68 53l-69 -53h-102z" glyph-name="hcircumflex" horiz-adv-x="615" unicode="ĥ"/>
<glyph d="M13 596h64v119h162v-119h287v119h162v-119h64v-85h-64v-511h-162v295h-287v-295h-162v511h-64v85zM526 423v88h-287v-88h287z" glyph-name="Hbar" horiz-adv-x="764" unicode="Ħ"/>
<glyph d="M1 680h63v80h145v-80h163v-83h-163v-157q49 95 170 95q81 0 128.5 -50.5t47.5 -151.5v-333h-145v312q0 54 -22 79.5t-70 25.5q-49 0 -79 -29.5t-30 -85.5v-302h-145v597h-63v83z" glyph-name="hbar" horiz-adv-x="615" unicode="ħ"/>
<glyph d="M87 715h163v-715h-163v715zM231 764q-26 0 -66 19q-5 2 -16.5 7.5t-18.5 8t-14 2.5q-28 0 -35 -37h-86q5 67 36.5 103.5t77.5 36.5q23 0 65 -19q40 -19 51 -19q27 0 34 37h87q-6 -66 -38 -102.5t-77 -36.5z" glyph-name="Itilde" horiz-adv-x="325" unicode="Ĩ"/>
<glyph d="M74 523h144v-523h-144v523zM207 598q-28 0 -64 19l-26 13q-12 6 -23 6q-13 0 -22.5 -10.5t-12.5 -26.5h-83q5 68 34.5 104.5t75.5 36.5q21 0 64 -18q40 -19 51 -19q28 0 34 37h84q-6 -68 -37 -105t-75 -37z" glyph-name="itilde" horiz-adv-x="281" unicode="ĩ"/>
<glyph d="M87 715h163v-715h-163v715zM17 868h302v-91h-302v91z" glyph-name="Imacron" horiz-adv-x="325" unicode="Ī"/>
<glyph d="M27 712h226v-87h-226v87zM68 523h144v-523h-144v523z" glyph-name="imacron" horiz-adv-x="281" unicode="ī"/>
<glyph d="M87 715h163v-715h-163v715zM169 757q-66 0 -107.5 40t-45.5 106h97q8 -52 56 -52t59 52h96q-5 -66 -47 -106t-108 -40z" glyph-name="Ibreve" horiz-adv-x="325" unicode="Ĭ"/>
<glyph d="M74 523h144v-523h-144v523zM146 598q-66 0 -107 40t-45 109h95q7 -54 57 -54t61 54h93q-4 -68 -46.5 -108.5t-107.5 -40.5z" glyph-name="ibreve" horiz-adv-x="281" unicode="ĭ"/>
<glyph d="M170 -182q-54 0 -85 21.5t-31 59.5q0 60 83 101h-56v715h163v-706q-63 -41 -63 -78q0 -30 33 -30q24 0 38 7v-75q-36 -15 -82 -15z" glyph-name="Iogonek" horiz-adv-x="325" unicode="Į"/>
<glyph d="M142 -182q-51 0 -81.5 21.5t-30.5 59.5q0 60 83 101h-45v523h144v-516q-61 -43 -61 -78q0 -31 34 -31q22 0 37 7v-72q-32 -15 -80 -15zM139 594q-35 0 -58.5 22.5t-23.5 56.5t23.5 56.5t58.5 22.5t59 -22.5t24 -56.5t-24 -56.5t-59 -22.5z" glyph-name="iogonek" horiz-adv-x="281" unicode="į"/>
<glyph d="M87 715h163v-715h-163v715zM169 768q-35 0 -58 22t-23 55t23 55t58 22q34 0 57 -22.5t23 -54.5t-23 -54.5t-57 -22.5z" glyph-name="Idotaccent" horiz-adv-x="325" unicode="İ"/>
<glyph d="M74 523h144v-523h-144v523z" glyph-name="dotlessi" horiz-adv-x="293" unicode="ı"/>
<glyph d="M87 715h163v-715h-163v715zM453 -9q-77 0 -119 22v124q45 -17 90 -17q101 0 101 113v482h163v-484q0 -120 -61 -180t-174 -60z" glyph-name="IJ" horiz-adv-x="750" unicode="Ĳ"/>
<glyph d="M145 594q-35 0 -58.5 22.5t-23.5 56.5t23.5 56.5t58.5 22.5t59 -22.5t24 -56.5t-24 -56.5t-59 -22.5zM74 523h144v-523h-144v523zM285 -79q37 3 53 19.5t16 49.5v533h144v-532q0 -85 -45 -129q-51 -48 -168 -49v108zM425 594q-35 0 -58.5 22.5t-23.5 56.5t23.5 56.5 t58.5 22.5t59 -22.5t24 -56.5t-24 -56.5t-59 -22.5z" glyph-name="ij" horiz-adv-x="281" unicode="ĳ"/>
<glyph d="M160 -9q-77 0 -119 22v124q45 -17 90 -17q101 0 101 113v482h163v-484q0 -120 -61 -180t-174 -60zM251 902h123l108 -139h-104l-68 53l-69 -53h-102z" glyph-name="Jcircumflex" horiz-adv-x="457" unicode="Ĵ"/>
<glyph d="M-1 -79q37 3 53 19.5t16 49.5v533h144v-532q0 -87 -48 -131.5t-165 -46.5v108zM93 751h109l114 -156h-102l-69 63l-70 -63h-99z" glyph-name="jcircumflex" horiz-adv-x="281" unicode="ĵ"/>
<glyph d="M83 715h162v-308l250 309h172l-283 -339l297 -377h-189l-247 321v-321h-162v715zM256 -201l47 170l130 -21l-95 -176z" glyph-name="uni0136" horiz-adv-x="686" unicode="Ķ"/>
<glyph d="M70 760h145v-458l168 221h154l-190 -238l205 -285h-164l-173 247v-247h-145v760zM192 -201l47 170l130 -21l-95 -176z" glyph-name="uni0137" horiz-adv-x="555" unicode="ķ"/>
<glyph d="M83 715h162v-588h291v-127h-453v715zM158 902h157l-101 -139h-109z" glyph-name="Lacute" horiz-adv-x="560" unicode="Ĺ"/>
<glyph d="M74 760h144v-760h-144v760zM140 937h157l-101 -139h-109z" glyph-name="lacute" horiz-adv-x="280" unicode="ĺ"/>
<glyph d="M83 715h162v-588h291v-127h-453v715zM204 -201l47 170l130 -21l-95 -176z" glyph-name="uni013B" horiz-adv-x="560" unicode="Ļ"/>
<glyph d="M74 760h144v-760h-144v760zM43 -201l47 170l130 -21l-95 -176z" glyph-name="uni013C" horiz-adv-x="280" unicode="ļ"/>
<glyph d="M344 715h128l-60 -169h-87zM77 715h162v-588h291v-127h-453v715z" glyph-name="Lcaron" horiz-adv-x="560" unicode="Ľ"/>
<glyph d="M74 760h144v-760h-144v760zM269 760h119l-49 -174h-80z" glyph-name="lcaron" horiz-adv-x="280" unicode="ľ"/>
<glyph d="M83 715h162v-588h291v-127h-453v715z" glyph-name="Ldot" horiz-adv-x="577" unicode="Ŀ"/>
<glyph d="M74 760h144v-760h-144v760z" glyph-name="ldot" horiz-adv-x="409" unicode="ŀ"/>
<glyph d="M37 330l65 23v362h162v-305l187 67v-94l-187 -66v-190h291v-127h-453v260l-65 -23v93z" glyph-name="Lslash" horiz-adv-x="591" unicode="Ł"/>
<glyph d="M24 378l66 33v349h144v-275l70 36v-99l-70 -36v-386h-144v312l-66 -33v99z" glyph-name="lslash" horiz-adv-x="325" unicode="ł"/>
<glyph d="M83 715h188l272 -471v471h144v-715h-162l-298 509v-509h-144v715zM391 902h157l-101 -139h-109z" glyph-name="Nacute" horiz-adv-x="758" unicode="Ń"/>
<glyph d="M70 523h145v-83q49 95 170 95q79 0 127 -48q49 -52 49 -154v-333h-145v312q0 54 -22 79.5t-70 25.5q-49 0 -79 -29.5t-30 -85.5v-302h-145v523zM312 753h152l-104 -159h-105z" glyph-name="nacute" horiz-adv-x="615" unicode="ń"/>
<glyph d="M83 715h188l272 -471v471h144v-715h-162l-298 509v-509h-144v715zM274 -201l47 170l130 -21l-95 -176z" glyph-name="uni0145" horiz-adv-x="758" unicode="Ņ"/>
<glyph d="M70 523h145v-83q49 95 170 95q79 0 127 -48q49 -52 49 -154v-333h-145v312q0 54 -22 79.5t-70 25.5q-49 0 -79 -29.5t-30 -85.5v-302h-145v523zM209 -201l47 170l130 -21l-95 -176z" glyph-name="uni0146" horiz-adv-x="615" unicode="ņ"/>
<glyph d="M83 715h188l272 -471v471h144v-715h-162l-298 509v-509h-144v715zM228 902h104l69 -52l68 52h102l-112 -139h-123z" glyph-name="Ncaron" horiz-adv-x="758" unicode="Ň"/>
<glyph d="M70 523h145v-83q49 95 170 95q79 0 127 -48q49 -52 49 -154v-333h-145v312q0 54 -22 79.5t-70 25.5q-49 0 -79 -29.5t-30 -85.5v-302h-145v523zM143 751h102l69 -63l69 63h100l-117 -156h-109z" glyph-name="ncaron" horiz-adv-x="615" unicode="ň"/>
<glyph d="M145 523h145v-83q49 95 170 95q79 0 127 -48q49 -52 49 -154v-333h-145v312q0 54 -22 79.5t-70 25.5q-49 0 -79 -29.5t-30 -85.5v-302h-145v523z" glyph-name="napostrophe" horiz-adv-x="690" unicode="ŉ"/>
<glyph d="M456 -193q-69 0 -115 22v119q45 -17 84 -17q85 0 95 79l-296 509v-519h-147v715h190l267 -469v469h147v-697q0 -101 -59.5 -156t-165.5 -55z" glyph-name="Eng" horiz-adv-x="758" unicode="Ŋ"/>
<glyph d="M342 -79q37 3 52.5 19.5t15.5 49.5v322q0 54 -22 79.5t-70 25.5q-49 0 -79 -29.5t-30 -85.5v-302h-145v523h145v-83q49 95 170 95q81 0 128.5 -50.5t47.5 -151.5v-342q0 -87 -48 -131.5t-165 -46.5v108z" glyph-name="eng" horiz-adv-x="615" unicode="ŋ"/>
<glyph d="M416 118q89 0 144 65q53 64 53 172v8q0 104 -52 169q-55 65 -147 65q-91 0 -146 -63q-53 -62 -53 -172v-8q0 -109 57 -172q55 -64 144 -64zM413 -11q-166 0 -267 104q-100 100 -100 260v8q0 162 105 262q104 102 263 102q163 0 265 -99q103 -103 103 -261v-8 q0 -161 -101 -264q-102 -104 -268 -104zM262 868h302v-91h-302v91z" glyph-name="Omacron" horiz-adv-x="816" unicode="Ō"/>
<glyph d="M314 99q61 0 94.5 42t33.5 117v7q0 75 -33.5 117.5t-94.5 42.5q-60 0 -94 -41.5t-34 -116.5v-8q0 -76 33 -118t95 -42zM313 -11q-120 0 -196 73q-79 73 -79 194v8q0 121 79 197q77 74 197 74q121 0 197 -73q78 -76 78 -195v-8q0 -121 -79 -197q-76 -73 -197 -73zM167 712 h291v-87h-291v87z" glyph-name="omacron" horiz-adv-x="616" unicode="ō"/>
<glyph d="M416 118q89 0 144 65q53 64 53 172v8q0 104 -52 169q-55 65 -147 65q-91 0 -146 -63q-53 -62 -53 -172v-8q0 -109 57 -172q55 -64 144 -64zM413 -11q-166 0 -267 104q-100 100 -100 260v8q0 162 105 262q104 102 263 102q163 0 265 -99q103 -103 103 -261v-8 q0 -161 -101 -264q-102 -104 -268 -104zM412 757q-66 0 -107.5 40t-45.5 106h97q8 -52 56 -52t59 52h96q-5 -66 -47 -106t-108 -40z" glyph-name="Obreve" horiz-adv-x="816" unicode="Ŏ"/>
<glyph d="M314 99q61 0 94.5 42t33.5 117v7q0 75 -33.5 117.5t-94.5 42.5q-60 0 -94 -41.5t-34 -116.5v-8q0 -76 33 -118t95 -42zM313 -11q-120 0 -196 73q-79 73 -79 194v8q0 121 79 197q77 74 197 74q121 0 197 -73q78 -76 78 -195v-8q0 -121 -79 -197q-76 -73 -197 -73zM312 598 q-66 0 -107 40t-45 109h95q7 -54 57 -54t61 54h93q-4 -68 -46.5 -108.5t-107.5 -40.5z" glyph-name="obreve" horiz-adv-x="616" unicode="ŏ"/>
<glyph d="M416 118q89 0 144 65q53 64 53 172v8q0 104 -52 169q-55 65 -147 65q-91 0 -146 -63q-53 -62 -53 -172v-8q0 -109 57 -172q55 -64 144 -64zM413 -11q-166 0 -267 104q-100 100 -100 260v8q0 162 105 262q104 102 263 102q163 0 265 -99q103 -103 103 -261v-8 q0 -161 -101 -264q-102 -104 -268 -104zM304 902h132l-73 -139h-98zM484 902h132l-74 -139h-97z" glyph-name="Ohungarumlaut" horiz-adv-x="816" unicode="Ő"/>
<glyph d="M314 99q61 0 94.5 42t33.5 117v7q0 75 -33.5 117.5t-94.5 42.5q-60 0 -94 -41.5t-34 -116.5v-8q0 -76 33 -118t95 -42zM313 -11q-120 0 -196 73q-79 73 -79 194v8q0 121 79 197q77 74 197 74q121 0 197 -73q78 -76 78 -195v-8q0 -121 -79 -197q-76 -73 -197 -73zM217 753 h123l-76 -159h-89zM385 753h124l-76 -159h-90z" glyph-name="ohungarumlaut" horiz-adv-x="616" unicode="ő"/>
<glyph d="M46 358q0 165 94 259q98 98 281 98h503v-126h-289v-167h228v-118h-228v-178h306v-126h-521q-185 0 -280 95q-94 90 -94 255v8zM426 589q-211 0 -211 -229v-8q0 -113 51 -169.5t162 -56.5h46v463h-48z" glyph-name="OE" horiz-adv-x="982" unicode="Œ"/>
<glyph d="M313 -11q-120 0 -196 73q-79 73 -79 194v8q0 121 79 197q77 74 197 74q131 0 200 -92q69 92 195 92q109 0 178 -63q77 -70 77 -203v-40h-378q4 -66 37.5 -101.5t93.5 -35.5q95 0 108 73h137q-12 -85 -76.5 -130.5t-172.5 -45.5q-134 0 -201 90q-69 -90 -199 -90zM314 99 q61 0 94.5 42t33.5 117v7q0 75 -33.5 117.5t-94.5 42.5q-60 0 -94 -41.5t-34 -116.5v-8q0 -76 33 -118t95 -42zM822 318q-7 117 -113 117q-49 0 -80.5 -30.5t-39.5 -86.5h233z" glyph-name="oe" horiz-adv-x="1001" unicode="œ"/>
<glyph d="M83 715h256q130 0 201 -53q75 -56 75 -164v-4q0 -78 -42 -126q-39 -45 -105 -64l189 -304h-172l-171 276h-70v-276h-161v715zM335 386q122 0 122 103v4q0 53 -30 75.5t-92 22.5h-91v-205h91zM324 902h157l-101 -139h-109z" glyph-name="Racute" horiz-adv-x="672" unicode="Ŕ"/>
<glyph d="M70 523h145v-100q50 107 169 108v-135q-84 1 -126.5 -30t-42.5 -104v-262h-145v523zM228 753h152l-104 -159h-105z" glyph-name="racute" horiz-adv-x="409" unicode="ŕ"/>
<glyph d="M83 715h256q130 0 201 -53q75 -56 75 -164v-4q0 -78 -42 -126q-39 -45 -105 -64l189 -304h-172l-171 276h-70v-276h-161v715zM335 386q122 0 122 103v4q0 53 -30 75.5t-92 22.5h-91v-205h91zM248 -201l47 170l130 -21l-95 -176z" glyph-name="uni0156" horiz-adv-x="672" unicode="Ŗ"/>
<glyph d="M70 523h145v-100q50 107 169 108v-135q-84 1 -126.5 -30t-42.5 -104v-262h-145v523zM40 -201l47 170l130 -21l-95 -176z" glyph-name="uni0157" horiz-adv-x="409" unicode="ŗ"/>
<glyph d="M83 715h256q130 0 201 -53q75 -56 75 -164v-4q0 -78 -42 -126q-39 -45 -105 -64l189 -304h-172l-171 276h-70v-276h-161v715zM335 386q122 0 122 103v4q0 53 -30 75.5t-92 22.5h-91v-205h91zM161 902h104l69 -52l68 52h102l-112 -139h-123z" glyph-name="Rcaron" horiz-adv-x="672" unicode="Ř"/>
<glyph d="M70 523h145v-100q50 107 169 108v-135q-84 1 -126.5 -30t-42.5 -104v-262h-145v523zM59 751h102l69 -63l69 63h100l-117 -156h-109z" glyph-name="rcaron" horiz-adv-x="409" unicode="ř"/>
<glyph d="M333 -11q-143 0 -218 64q-71 61 -77 171h155q7 -57 33 -82q35 -35 107 -35q54 0 86 26.5t32 68.5q0 41 -28 62q-31 19 -107 31q-141 18 -197 66q-61 47 -61 151q0 91 71 153q73 60 189 60q122 0 190 -54t78 -160h-149q-13 95 -119 95q-52 0 -79.5 -22t-27.5 -59 q0 -41 26 -58q27 -21 107 -33q136 -17 196 -61q66 -50 66 -156q0 -99 -73 -161q-77 -67 -200 -67zM311 902h157l-101 -139h-109z" glyph-name="Sacute" horiz-adv-x="640" unicode="Ś"/>
<glyph d="M260 -11q-106 0 -165 45t-63 130h135q6 -38 26 -56t66 -18q82 0 82 57q0 27 -24 40.5t-82 21.5q-106 17 -148 51q-45 35 -45 112t64 123q55 40 143 40q91 0 147 -36q59 -40 69 -126h-133q-6 33 -25 48t-57 15q-35 0 -54.5 -15t-19.5 -39q0 -25 21.5 -37t79.5 -20 q103 -14 151 -47q52 -39 52 -117q0 -84 -57.5 -128t-162.5 -44zM254 753h152l-104 -159h-105z" glyph-name="sacute" horiz-adv-x="502" unicode="ś"/>
<glyph d="M333 -11q-143 0 -218 64q-71 61 -77 171h155q7 -57 33 -82q35 -35 107 -35q54 0 86 26.5t32 68.5q0 41 -28 62q-31 19 -107 31q-141 18 -197 66q-61 47 -61 151q0 91 71 153q73 60 189 60q122 0 190 -54t78 -160h-149q-13 95 -119 95q-52 0 -79.5 -22t-27.5 -59 q0 -41 26 -58q27 -21 107 -33q136 -17 196 -61q66 -50 66 -156q0 -99 -73 -161q-77 -67 -200 -67zM260 902h123l108 -139h-104l-68 53l-69 -53h-102z" glyph-name="Scircumflex" horiz-adv-x="640" unicode="Ŝ"/>
<glyph d="M260 -11q-106 0 -165 45t-63 130h135q6 -38 26 -56t66 -18q82 0 82 57q0 27 -24 40.5t-82 21.5q-106 17 -148 51q-45 35 -45 112t64 123q55 40 143 40q91 0 147 -36q59 -40 69 -126h-133q-6 33 -25 48t-57 15q-35 0 -54.5 -15t-19.5 -39q0 -25 21.5 -37t79.5 -20 q103 -14 151 -47q52 -39 52 -117q0 -84 -57.5 -128t-162.5 -44zM201 751h109l114 -156h-102l-69 63l-70 -63h-99z" glyph-name="scircumflex" horiz-adv-x="502" unicode="ŝ"/>
<glyph d="M299 -222q-51 0 -81.5 24t-35.5 66h74q6 -31 38 -31q35 0 35 33q0 31 -34 31q-17 0 -31 -10l-36 35l40 66q-113 12 -171.5 72.5t-64.5 159.5h155q7 -56 37 -86.5t103 -30.5q54 0 86 26.5t32 68.5t-28.5 61.5t-106.5 31.5q-140 18 -199 66.5t-59 150.5q0 93 71.5 153 t188.5 60q122 0 190 -54t78 -160h-149q-15 95 -119 95q-52 0 -79.5 -22t-27.5 -59q0 -40 27 -59.5t106 -31.5q137 -17 199.5 -64t62.5 -153q0 -97 -73 -161.5t-196 -66.5l-22 -37q42 4 73 -17.5t31 -66.5q0 -43 -31 -66.5t-83 -23.5z" glyph-name="uni015E" horiz-adv-x="640" unicode="Ş"/>
<glyph d="M235 -222q-51 0 -81.5 24t-35.5 66h74q6 -31 38 -31q35 0 35 33q0 31 -34 31q-17 0 -31 -10l-36 35l40 66q-84 10 -129.5 53.5t-48.5 118.5h135q6 -38 26 -56t66 -18q82 0 82 57q0 27 -24 40.5t-82 21.5q-106 16 -149.5 52t-43.5 111q0 78 60.5 120.5t146.5 42.5 q198 0 216 -162h-133q-6 33 -25 48t-57 15q-35 0 -54.5 -15t-19.5 -39q0 -25 21.5 -37t79.5 -20q106 -15 154.5 -50t48.5 -114q0 -81 -54 -125t-153 -47l-22 -37q42 4 73 -17.5t31 -66.5q0 -43 -31 -66.5t-83 -23.5z" glyph-name="uni015F" horiz-adv-x="502" unicode="ş"/>
<glyph d="M333 -11q-143 0 -218 64q-71 61 -77 171h155q7 -57 33 -82q35 -35 107 -35q54 0 86 26.5t32 68.5q0 41 -28 62q-31 19 -107 31q-141 18 -197 66q-61 47 -61 151q0 91 71 153q73 60 189 60q122 0 190 -54t78 -160h-149q-13 95 -119 95q-52 0 -79.5 -22t-27.5 -59 q0 -41 26 -58q27 -21 107 -33q136 -17 196 -61q66 -50 66 -156q0 -99 -73 -161q-77 -67 -200 -67zM148 902h104l69 -52l68 52h102l-112 -139h-123z" glyph-name="Scaron" horiz-adv-x="652" unicode="Š"/>
<glyph d="M260 -11q-106 0 -165 45t-63 130h135q6 -38 26 -56t66 -18q82 0 82 57q0 27 -24 40.5t-82 21.5q-106 17 -148 51q-45 35 -45 112t64 123q55 40 143 40q91 0 147 -36q59 -40 69 -126h-133q-6 33 -25 48t-57 15q-35 0 -54.5 -15t-19.5 -39q0 -25 21.5 -37t79.5 -20 q103 -14 151 -47q52 -39 52 -117q0 -84 -57.5 -128t-162.5 -44zM82 751h102l69 -63l69 63h100l-117 -156h-109z" glyph-name="scaron" horiz-adv-x="514" unicode="š"/>
<glyph d="M223 589h-193v126h549v-126h-193v-589h-163v589zM200 -201l47 170l130 -21l-95 -176z" glyph-name="Tcommaaccent" horiz-adv-x="598" unicode="Ţ"/>
<glyph d="M261 -10q-169 0 -169 165v265h-67v103h67v113h144v-113h110v-103h-110v-252q0 -62 58 -62q32 0 55 10v-112q-40 -14 -88 -14zM105 -201l47 170l130 -21l-95 -176z" glyph-name="tcommaaccent" horiz-adv-x="377" unicode="ţ"/>
<glyph d="M223 589h-193v126h549v-126h-193v-589h-163v589zM132 902h104l69 -52l68 52h102l-112 -139h-123z" glyph-name="Tcaron" horiz-adv-x="597" unicode="Ť"/>
<glyph d="M261 -10q-169 0 -169 165v265h-67v103h67v113h144v-113h110v-103h-110v-252q0 -62 58 -62q32 0 55 10v-112q-40 -14 -88 -14zM301 760h119l-49 -174h-80z" glyph-name="tcaron" horiz-adv-x="377" unicode="ť"/>
<glyph d="M84 406h133v183h-193v126h549v-126h-193v-183h133v-106h-133v-300h-163v300h-133v106z" glyph-name="Tbar" horiz-adv-x="597" unicode="Ŧ"/>
<glyph d="M19 335h67v85h-67v103h67v113h144v-113h110v-103h-110v-85h110v-85h-110v-82q0 -62 58 -62q31 0 55 9v-112q-39 -13 -89 -13q-82 0 -125 42t-43 123v95h-67v85z" glyph-name="tbar" horiz-adv-x="377" unicode="ŧ"/>
<glyph d="M372 -11q-143 0 -219 74t-76 216v436h163v-426q0 -91 30 -131t103 -40t105.5 40t32.5 137v420h163v-430q0 -146 -77.5 -221t-224.5 -75zM435 764q-26 0 -66 19q-5 2 -16.5 7.5t-18.5 8t-14 2.5q-28 0 -35 -37h-86q5 67 36.5 103.5t77.5 36.5q23 0 65 -19q40 -19 51 -19 q27 0 34 37h87q-6 -66 -38 -102.5t-77 -36.5z" glyph-name="Utilde" horiz-adv-x="739" unicode="Ũ"/>
<glyph d="M244 -11q-80 0 -127 47q-51 51 -51 150v337h144v-317q0 -105 91 -105q48 0 78.5 29.5t30.5 85.5v307h144v-523h-144v82q-47 -93 -166 -93zM371 598q-28 0 -64 19l-26 13q-12 6 -23 6q-13 0 -22.5 -10.5t-12.5 -26.5h-83q5 68 34.5 104.5t75.5 36.5q21 0 64 -18 q40 -19 51 -19q28 0 34 37h84q-6 -68 -37 -105t-75 -37z" glyph-name="utilde" unicode="ũ"/>
<glyph d="M372 -11q-143 0 -219 74t-76 216v436h163v-426q0 -91 30 -131t103 -40t105.5 40t32.5 137v420h163v-430q0 -146 -77.5 -221t-224.5 -75zM223 868h302v-91h-302v91z" glyph-name="Umacron" horiz-adv-x="739" unicode="Ū"/>
<glyph d="M244 -11q-80 0 -127 47q-51 51 -51 150v337h144v-317q0 -105 91 -105q48 0 78.5 29.5t30.5 85.5v307h144v-523h-144v82q-47 -93 -166 -93zM165 712h291v-87h-291v87z" glyph-name="umacron" unicode="ū"/>
<glyph d="M372 -11q-143 0 -219 74t-76 216v436h163v-426q0 -91 30 -131t103 -40t105.5 40t32.5 137v420h163v-430q0 -146 -77.5 -221t-224.5 -75zM373 757q-66 0 -107.5 40t-45.5 106h97q8 -52 56 -52t59 52h96q-5 -66 -47 -106t-108 -40z" glyph-name="Ubreve" horiz-adv-x="739" unicode="Ŭ"/>
<glyph d="M244 -11q-80 0 -127 47q-51 51 -51 150v337h144v-317q0 -105 91 -105q48 0 78.5 29.5t30.5 85.5v307h144v-523h-144v82q-47 -93 -166 -93zM310 598q-66 0 -107 40t-45 109h95q7 -54 57 -54t61 54h93q-4 -68 -46.5 -108.5t-107.5 -40.5z" glyph-name="ubreve" unicode="ŭ"/>
<glyph d="M372 -11q-143 0 -219 74t-76 216v436h163v-426q0 -91 30 -131t103 -40t105.5 40t32.5 137v420h163v-430q0 -146 -77.5 -221t-224.5 -75zM374 788q21 0 35 15t14 38t-14 38.5t-35 15.5q-22 0 -35.5 -15.5t-13.5 -38.5t13.5 -38t35.5 -15zM374 730q-46 0 -81 33 q-34 32 -34 78q0 47 34 79q35 33 81 33t81 -33q34 -32 34 -79q0 -46 -34 -78q-35 -33 -81 -33z" glyph-name="Uring" horiz-adv-x="739" unicode="Ů"/>
<glyph d="M244 -11q-80 0 -127 47q-51 51 -51 150v337h144v-317q0 -105 91 -105q48 0 78.5 29.5t30.5 85.5v307h144v-523h-144v82q-47 -93 -166 -93zM310 618q21 0 35 15t14 38t-14 38.5t-35 15.5q-22 0 -35.5 -15.5t-13.5 -38.5t13.5 -38t35.5 -15zM310 560q-46 0 -81 33 q-34 32 -34 78q0 47 34 79q35 33 81 33t81 -33q34 -32 34 -79q0 -46 -34 -78q-35 -33 -81 -33z" glyph-name="uring" unicode="ů"/>
<glyph d="M372 -11q-143 0 -219 74t-76 216v436h163v-426q0 -91 30 -131t103 -40t105.5 40t32.5 137v420h163v-430q0 -146 -77.5 -221t-224.5 -75zM265 902h132l-73 -139h-98zM445 902h132l-74 -139h-97z" glyph-name="Uhungarumlaut" horiz-adv-x="739" unicode="Ű"/>
<glyph d="M244 -11q-80 0 -127 47q-51 51 -51 150v337h144v-317q0 -105 91 -105q48 0 78.5 29.5t30.5 85.5v307h144v-523h-144v82q-47 -93 -166 -93zM215 753h123l-76 -159h-89zM383 753h124l-76 -159h-90z" glyph-name="uhungarumlaut" unicode="ű"/>
<glyph d="M407 -182q-52 0 -83 21t-31 59q0 53 63 91q-138 2 -211.5 76t-73.5 214v436h163v-426q0 -91 30 -131t103 -40t105.5 40t32.5 137v420h163v-430q0 -199 -147 -267q-5 -3 -18 -9t-18 -8.5l-15 -7.5t-14.5 -8.5t-12 -8.5t-10.5 -9.5t-7 -10t-5.5 -12t-1.5 -13.5 q0 -30 33 -30q24 0 38 7v-75q-32 -15 -83 -15z" glyph-name="Uogonek" horiz-adv-x="739" unicode="Ų"/>
<glyph d="M476 -182q-51 0 -81.5 21.5t-30.5 59.5q0 60 83 101h-43v82q-47 -93 -166 -93q-80 0 -129 49.5t-49 147.5v337h144v-317q0 -105 91 -105q48 0 78.5 29.5t30.5 85.5v307h144v-514q-63 -45 -63 -80q0 -31 34 -31q22 0 37 7v-72q-32 -15 -80 -15z" glyph-name="uogonek" unicode="ų"/>
<glyph d="M27 715h164l112 -494l122 494h138l127 -497l116 497h150l-174 -715h-165l-129 494l-131 -494h-156zM432 902h123l108 -139h-104l-68 53l-69 -53h-102z" glyph-name="Wcircumflex" horiz-adv-x="971" unicode="Ŵ"/>
<glyph d="M22 523h152l93 -352l101 352h119l92 -352l99 352h139l-165 -523h-142l-89 328l-96 -328h-144zM365 751h109l114 -156h-102l-69 63l-70 -63h-99z" glyph-name="wcircumflex" horiz-adv-x="826" unicode="ŵ"/>
<glyph d="M255 308l-236 407h178l145 -274l142 274h157l-223 -407v-308h-163v308zM274 902h123l108 -139h-104l-68 53l-69 -53h-102z" glyph-name="Ycircumflex" horiz-adv-x="648" unicode="Ŷ"/>
<glyph d="M228 53l-208 470h156l127 -314l117 314h139l-283 -701h-140zM241 751h109l114 -156h-102l-69 63l-70 -63h-99z" glyph-name="ycircumflex" horiz-adv-x="567" unicode="ŷ"/>
<glyph d="M255 308l-236 407h178l145 -274l142 274h157l-223 -407v-308h-163v308zM226 769q-31 0 -52.5 21.5t-21.5 51.5t21.5 51t52.5 21q30 0 52 -21t22 -51t-22 -51.5t-52 -21.5zM441 769q-30 0 -51.5 21.5t-21.5 51.5t21.5 51t51.5 21q31 0 52.5 -21t21.5 -51t-21.5 -51.5 t-52.5 -21.5z" glyph-name="Ydieresis" horiz-adv-x="660" unicode="Ÿ"/>
<glyph d="M24 20l341 569h-303v126h532v-19l-334 -569h322v-127h-558v20zM308 902h157l-101 -139h-109z" glyph-name="Zacute" horiz-adv-x="615" unicode="Ź"/>
<glyph d="M20 16l258 395h-232v112h442v-18l-260 -393h250v-112h-458v16zM260 753h152l-104 -159h-105z" glyph-name="zacute" horiz-adv-x="499" unicode="ź"/>
<glyph d="M24 20l341 569h-303v126h532v-19l-334 -569h322v-127h-558v20zM318 768q-35 0 -58 22t-23 55t23 55t58 22q34 0 57 -22.5t23 -54.5t-23 -54.5t-57 -22.5z" glyph-name="Zdotaccent" horiz-adv-x="615" unicode="Ż"/>
<glyph d="M20 16l258 395h-232v112h442v-18l-260 -393h250v-112h-458v16zM262 598q-35 0 -58 22t-23 55t23 55t58 22q34 0 57 -22.5t23 -54.5t-23 -54.5t-57 -22.5z" glyph-name="zdotaccent" horiz-adv-x="499" unicode="ż"/>
<glyph d="M24 20l341 569h-303v126h532v-19l-334 -569h322v-127h-558v20zM145 902h104l69 -52l68 52h102l-112 -139h-123z" glyph-name="Zcaron" horiz-adv-x="627" unicode="Ž"/>
<glyph d="M20 16l258 395h-232v112h442v-18l-260 -393h250v-112h-458v16zM91 751h102l69 -63l69 63h100l-117 -156h-109z" glyph-name="zcaron" horiz-adv-x="511" unicode="ž"/>
<glyph d="M25 414h93l20 134q24 176 201 176q43 0 75 -11v-110q-27 9 -57 9q-66 0 -77 -75l-18 -123h120v-102h-135l-72 -494h-144l72 494h-78v102z" glyph-name="uni0192" horiz-adv-x="429" unicode="ƒ"/>
<glyph d="M262 715h211l232 -715h-169l-49 159h-259l-49 -159h-152zM263 274h189l-94 309zM370 803q21 0 35 15t14 38t-14 38.5t-35 15.5q-22 0 -35.5 -15.5t-13.5 -38.5t13.5 -38t35.5 -15zM370 745q-46 0 -81 33q-34 32 -34 78q0 47 34 79q35 33 81 33t81 -33q34 -32 34 -79 q0 -46 -34 -78q-35 -33 -81 -33zM367 1128h157l-101 -139h-109z" glyph-name="Aringacute" horiz-adv-x="720" unicode="Ǻ"/>
<glyph d="M211 -11q-76 0 -123 37q-52 41 -52 119q0 87 76 130q68 38 196 38h59v21q0 50 -18.5 73t-66.5 23q-77 0 -89 -74h-137q6 88 73 136q61 43 162 43t158 -44q61 -48 61 -150v-341h-141v63q-53 -74 -158 -74zM254 90q49 0 81 25t32 68v44h-56q-66 0 -99.5 -17t-33.5 -57 q0 -63 76 -63zM292 632q21 0 35 15t14 38t-14 38.5t-35 15.5q-22 0 -35.5 -15.5t-13.5 -38.5t13.5 -38t35.5 -15zM292 574q-46 0 -81 33q-34 32 -34 78q0 47 34 79q35 33 81 33t81 -33q34 -32 34 -79q0 -46 -34 -78q-35 -33 -81 -33zM294 967h157l-101 -139h-109z" glyph-name="aringacute" horiz-adv-x="564" unicode="ǻ"/>
<glyph d="M363 715h574v-126h-300v-167h239v-118h-239v-178h317v-126h-479v168h-218l-77 -168h-157zM309 280h166v309h-24zM609 902h157l-101 -139h-109z" glyph-name="AEacute" horiz-adv-x="983" unicode="Ǽ"/>
<glyph d="M629 -11q-139 0 -201 97q-68 -97 -206 -97q-82 0 -131 37q-55 39 -55 119q0 88 76 132q68 39 194 39h62v18q0 49 -19.5 72.5t-65.5 23.5q-79 0 -90 -74h-137q6 88 73 136q59 43 157 43q123 0 167 -70q67 70 171 70q109 0 174 -62q75 -72 75 -202v-39h-367 q8 -140 124 -140q92 0 105 73h136q-12 -85 -75 -130.5t-167 -45.5zM254 90q52 0 83 24.5t31 68.5v46h-59q-65 0 -98 -16.5t-33 -56.5q0 -66 76 -66zM732 318q-8 117 -108 117q-48 0 -78.5 -31t-37.5 -86h224zM465 753h152l-104 -159h-105z" glyph-name="aeacute" horiz-adv-x="898" unicode="ǽ"/>
<glyph d="M39 21l87 93q-80 97 -80 239v8q0 162 105 262q104 102 263 102q127 0 222 -65l76 81l54 -54l-73 -78q89 -100 89 -244v-8q0 -161 -101 -264q-102 -104 -268 -104q-140 0 -233 72l-87 -93zM416 118q90 0 145 65q54 62 54 172v8q0 77 -28 132l-306 -327q55 -50 135 -50z M213 354q0 -68 23 -122l303 324q-48 41 -125 41q-94 0 -147.5 -63t-53.5 -172v-8zM405 902h157l-101 -139h-109z" glyph-name="Oslashacute" horiz-adv-x="816" unicode="Ǿ"/>
<glyph d="M28 6l70 75q-60 69 -60 175v8q0 121 79 197q77 74 197 74q96 0 161 -46l66 71l49 -44l-65 -70q64 -72 64 -179v-8q0 -121 -79 -197q-76 -73 -197 -73q-96 0 -166 48l-70 -75zM314 98q62 0 95.5 42t33.5 118v7q0 41 -13 78l-200 -216q32 -29 84 -29zM185 259q0 -44 10 -73 l197 213q-31 26 -78 26q-61 0 -95 -41.5t-34 -116.5v-8zM312 753h152l-104 -159h-105z" glyph-name="oslashacute" horiz-adv-x="616" unicode="ǿ"/>
<glyph d="M333 -11q-143 0 -218 64q-71 61 -77 171h155q7 -57 33 -82q35 -35 107 -35q54 0 86 26.5t32 68.5q0 41 -28 62q-31 19 -107 31q-141 18 -197 66q-61 47 -61 151q0 91 71 153q73 60 189 60q122 0 190 -54t78 -160h-149q-13 95 -119 95q-52 0 -79.5 -22t-27.5 -59 q0 -41 26 -58q27 -21 107 -33q136 -17 196 -61q66 -50 66 -156q0 -99 -73 -161q-77 -67 -200 -67zM216 -201l47 170l130 -21l-95 -176z" glyph-name="uni0218" horiz-adv-x="642" unicode="Ș"/>
<glyph d="M259 -11q-106 0 -165 45t-63 130h135q6 -38 26 -56t66 -18q82 0 82 57q0 27 -24 40.5t-82 21.5q-106 17 -148 51q-45 35 -45 112t64 123q55 40 143 40q91 0 147 -36q59 -40 69 -126h-133q-6 33 -25 48t-57 15q-35 0 -54.5 -15t-19.5 -39q0 -25 21.5 -37t79.5 -20 q103 -14 151 -47q52 -39 52 -117q0 -84 -57.5 -128t-162.5 -44zM150 -201l47 170l130 -21l-95 -176z" glyph-name="uni0219" horiz-adv-x="502" unicode="ș"/>
<glyph d="M223 589h-193v126h549v-126h-193v-589h-163v589zM200 -201l47 170l130 -21l-95 -176z" glyph-name="uni021A" horiz-adv-x="598" unicode="Ț"/>
<glyph d="M261 -10q-169 0 -169 165v265h-67v103h67v113h144v-113h110v-103h-110v-252q0 -62 58 -62q32 0 55 10v-112q-40 -14 -88 -14zM105 -201l47 170l130 -21l-95 -176z" glyph-name="uni021B" horiz-adv-x="377" unicode="ț"/>
<glyph d="M-1 -79q37 3 53 19.5t16 49.5v533h144v-532q0 -87 -48 -131.5t-165 -46.5v108z" glyph-name="uni0237" horiz-adv-x="281" unicode="ȷ"/>
<glyph d="M50 484l83 244l129 -47l-130 -231z" glyph-name="uni02BC" horiz-adv-x="302" unicode="ʼ"/>
<glyph d="M153 751h109l114 -156h-102l-69 63l-70 -63h-99z" glyph-name="circumflex" horiz-adv-x="412" unicode="ˆ"/>
<glyph d="M36 751h102l69 -63l69 63h100l-117 -156h-109z" glyph-name="caron" horiz-adv-x="412" unicode="ˇ"/>
<glyph d="M205 598q-66 0 -107 40t-45 109h95q7 -54 57 -54t61 54h93q-4 -68 -46.5 -108.5t-107.5 -40.5z" glyph-name="breve" horiz-adv-x="412" unicode="˘"/>
<glyph d="M206 598q-35 0 -58 22t-23 55t23 55t58 22q34 0 57 -22.5t23 -54.5t-23 -54.5t-57 -22.5z" glyph-name="dotaccent" horiz-adv-x="412" unicode="˙"/>
<glyph d="M207 643q21 0 35 15t14 38t-14 38.5t-35 15.5q-22 0 -35.5 -15.5t-13.5 -38.5t13.5 -38t35.5 -15zM207 585q-46 0 -81 33q-34 32 -34 78q0 47 34 79q35 33 81 33t81 -33q34 -32 34 -79q0 -46 -34 -78q-35 -33 -81 -33z" glyph-name="ring" horiz-adv-x="412" unicode="˚"/>
<glyph d="M213 -182q-50 0 -81 21t-31 58q0 35 26 61q22 23 58 42h90q-52 -37 -52 -71q0 -31 33 -31q25 0 38 7v-72q-32 -15 -81 -15z" glyph-name="ogonek" horiz-adv-x="412" unicode="˛"/>
<glyph d="M266 598q-28 0 -64 19l-26 13q-12 6 -23 6q-13 0 -22.5 -10.5t-12.5 -26.5h-83q5 68 34.5 104.5t75.5 36.5q21 0 64 -18q40 -19 51 -19q28 0 34 37h84q-6 -68 -37 -105t-75 -37z" glyph-name="tilde" horiz-adv-x="412" unicode="˜"/>
<glyph d="M118 753h123l-76 -159h-89zM286 753h124l-76 -159h-90z" glyph-name="hungarumlaut" horiz-adv-x="412" unicode="˝"/>
<glyph d="M20 -86l88 247l136 -51l-136 -233zM174 281q-38 0 -63.5 25.5t-25.5 62.5q0 36 25.5 61.5t63.5 25.5t64 -25.5t26 -61.5t-26 -62t-64 -26z" glyph-name="uni037E" horiz-adv-x="310" unicode=";"/>
<glyph d="M203 753h152l-104 -159h-105z" glyph-name="tonos" horiz-adv-x="400" unicode="΄"/>
<glyph d="M201 776h121l-81 -167h-84zM378 604q-28 0 -47.5 19.5t-19.5 47.5q0 27 19.5 46.5t47.5 19.5q29 0 48.5 -19.5t19.5 -46.5q0 -28 -19.5 -47.5t-48.5 -19.5zM72 604q-29 0 -48.5 19.5t-19.5 47.5q0 27 19.5 46.5t48.5 19.5t48 -19.5t19 -46.5q0 -28 -19 -47.5t-48 -19.5z " glyph-name="dieresistonos" horiz-adv-x="450" unicode="΅"/>
<glyph d="M262 715h211l232 -715h-169l-49 159h-259l-49 -159h-152zM263 274h189l-94 309zM33 715h152l-104 -159h-105z" glyph-name="Alphatonos" horiz-adv-x="720" unicode="Ά"/>
<glyph glyph-name="anoteleia" horiz-adv-x="293" unicode="·"/>
<glyph d="M83 715h466v-126h-305v-167h244v-118h-244v-178h321v-126h-482v715zM-103 715h152l-104 -159h-105z" glyph-name="Epsilontonos" horiz-adv-x="595" unicode="Έ"/>
<glyph d="M83 715h162v-292h287v292h162v-715h-162v295h-287v-295h-162v715zM-103 715h152l-104 -159h-105z" glyph-name="Etatonos" horiz-adv-x="764" unicode="Ή"/>
<glyph d="M87 715h163v-715h-163v715zM-103 715h152l-104 -159h-105z" glyph-name="Iotatonos" horiz-adv-x="325" unicode="Ί"/>
<glyph d="M416 118q89 0 144 65q53 64 53 172v8q0 104 -52 169q-55 65 -147 65q-91 0 -146 -63q-53 -62 -53 -172v-8q0 -109 57 -172q55 -64 144 -64zM413 -11q-166 0 -267 104q-100 100 -100 260v8q0 162 105 262q104 102 263 102q163 0 265 -99q103 -103 103 -261v-8 q0 -161 -101 -264q-102 -104 -268 -104zM-38 715h152l-104 -159h-105z" glyph-name="Omicrontonos" horiz-adv-x="816" unicode="Ό"/>
<glyph d="M255 308l-236 407h178l145 -274l142 274h157l-223 -407v-308h-163v308zM-148 715h152l-104 -159h-105z" glyph-name="Upsilontonos" horiz-adv-x="648" unicode="Ύ"/>
<glyph d="M209 357q0 -178 151 -279v-78h-316v121h121q-52 34 -87.5 101.5t-35.5 145.5v6q0 146 102 248.5t267 102.5q167 0 268 -99.5t101 -248.5v-7q0 -83 -35.5 -148t-87.5 -101h121v-121h-316v78q151 94 151 279v8q0 103 -52 168t-150 65t-150 -64t-52 -169v-8zM-38 715h152 l-104 -159h-105z" glyph-name="Omegatonos" horiz-adv-x="822" unicode="Ώ"/>
<glyph d="M68 523h144v-523h-144v523zM139 776h121l-81 -167h-84zM316 604q-28 0 -47.5 19.5t-19.5 47.5q0 27 19.5 46.5t47.5 19.5q29 0 48.5 -19.5t19.5 -46.5q0 -28 -19.5 -47.5t-48.5 -19.5zM10 604q-29 0 -48.5 19.5t-19.5 47.5q0 27 19.5 46.5t48.5 19.5t48 -19.5t19 -46.5 q0 -28 -19 -47.5t-48 -19.5z" glyph-name="iotadieresistonos" horiz-adv-x="280" unicode="ΐ"/>
<glyph d="M262 715h211l232 -715h-169l-49 159h-259l-49 -159h-152zM263 274h189l-94 309z" glyph-name="Alpha" horiz-adv-x="720" unicode="Α"/>
<glyph d="M83 715h281q237 0 237 -186v-4q0 -120 -116 -153q143 -29 143 -168v-4q0 -200 -251 -200h-294v715zM352 112q116 0 116 101v4q0 51 -29.5 75.5t-94.5 24.5h-103v-205h111zM338 421q59 0 84 21.5t25 70.5v4q0 45 -26.5 66t-83.5 21h-96v-183h97z" glyph-name="Beta" horiz-adv-x="658" unicode="Β"/>
<glyph d="M77 715h454v-127h-292v-588h-162v715z" glyph-name="Gamma" horiz-adv-x="554" unicode="Γ"/>
<glyph d="M28 20l226 695h225l223 -695v-20h-674v20zM209 127h297l-148 475z" glyph-name="uni0394" horiz-adv-x="730" unicode="Δ"/>
<glyph d="M83 715h466v-126h-305v-167h244v-118h-244v-178h321v-126h-482v715z" glyph-name="Epsilon" horiz-adv-x="595" unicode="Ε"/>
<glyph d="M24 20l341 569h-303v126h532v-19l-334 -569h322v-127h-558v20z" glyph-name="Zeta" horiz-adv-x="615" unicode="Ζ"/>
<glyph d="M83 715h162v-292h287v292h162v-715h-162v295h-287v-295h-162v715z" glyph-name="Eta" horiz-adv-x="764" unicode="Η"/>
<glyph d="M412 -11q-169 0 -270.5 101t-101.5 263v8q0 161 105 262.5t268 101.5q166 0 269.5 -98.5t103.5 -261.5v-8q0 -164 -102.5 -266t-271.5 -102zM415 115q94 0 149 65.5t55 174.5v8q0 106 -55.5 171.5t-150.5 65.5t-150.5 -64.5t-55.5 -173.5v-8q0 -108 58 -173.5t150 -65.5z M301 414h223v-107h-223v107z" glyph-name="Theta" horiz-adv-x="826" unicode="Θ"/>
<glyph d="M87 715h163v-715h-163v715z" glyph-name="Iota" horiz-adv-x="325" unicode="Ι"/>
<glyph d="M83 715h162v-308l250 309h172l-283 -339l297 -377h-189l-247 321v-321h-162v715z" glyph-name="Kappa" horiz-adv-x="686" unicode="Κ"/>
<glyph d="M684 0h-170l-170 546l-171 -546h-152l238 715h189z" glyph-name="Lambda" horiz-adv-x="706" unicode="Λ"/>
<glyph d="M83 715h214l167 -445l165 445h210v-715h-161v502l-198 -502h-53l-199 502v-502h-145v715z" glyph-name="Mu" horiz-adv-x="910" unicode="Μ"/>
<glyph d="M83 715h188l272 -471v471h144v-715h-162l-298 509v-509h-144v715z" glyph-name="Nu" horiz-adv-x="758" unicode="Ν"/>
<glyph d="M564 715v-131h-521v131h521zM515 421v-123h-424v123h424zM36 131h535v-131h-535v131z" glyph-name="Xi" horiz-adv-x="606" unicode="Ξ"/>
<glyph d="M416 118q89 0 144 65q53 64 53 172v8q0 104 -52 169q-55 65 -147 65q-91 0 -146 -63q-53 -62 -53 -172v-8q0 -109 57 -172q55 -64 144 -64zM413 -11q-166 0 -267 104q-100 100 -100 260v8q0 162 105 262q104 102 263 102q163 0 265 -99q103 -103 103 -261v-8 q0 -161 -101 -264q-102 -104 -268 -104z" glyph-name="Omicron" horiz-adv-x="816" unicode="Ο"/>
<glyph d="M77 715h602v-715h-162v584h-278v-584h-162v715z" glyph-name="Pi" horiz-adv-x="755" unicode="Π"/>
<glyph d="M83 715h247q133 0 203 -57.5t70 -170.5v-4q0 -111 -73 -168q-70 -55 -195 -55h-91v-260h-161v715zM326 373q121 0 121 109v4q0 106 -121 106h-82v-219h82z" glyph-name="Rho" horiz-adv-x="626" unicode="Ρ"/>
<glyph d="M49 590v125h495v-124h-310l184 -220l-184 -241h326v-130h-515v105l194 255z" glyph-name="Sigma" horiz-adv-x="596" unicode="Σ"/>
<glyph d="M223 589h-193v126h549v-126h-193v-589h-163v589z" glyph-name="Tau" horiz-adv-x="597" unicode="Τ"/>
<glyph d="M255 308l-236 407h178l145 -274l142 274h157l-223 -407v-308h-163v308z" glyph-name="Upsilon" horiz-adv-x="648" unicode="Υ"/>
<glyph d="M387 46q-163 8 -255 96.5t-92 215.5v6q0 128 94 215.5t253 95.5v64h148v-64q160 -8 253.5 -93t93.5 -214v-6q0 -130 -91.5 -219t-255.5 -97v-70h-148v70zM201 359q0 -79 48.5 -130t137.5 -62v389q-93 -9 -139.5 -59.5t-46.5 -131.5v-6zM721 366q0 78 -47 129.5t-139 60.5 v-390q92 10 139 61t47 132v7z" glyph-name="Phi" horiz-adv-x="922" unicode="Φ"/>
<glyph d="M263 367l-210 348h183l136 -238l135 238h166l-204 -343l226 -372h-184l-155 266l-154 -266h-166z" glyph-name="Chi" horiz-adv-x="719" unicode="Χ"/>
<glyph d="M353 172q-150 8 -224.5 85.5t-74.5 203.5v254h155v-243q0 -83 33 -125t111 -49v417h148v-416q76 9 113 51.5t37 132.5v232h147v-243q0 -129 -73 -208t-224 -91v-173h-148v172z" glyph-name="Psi" horiz-adv-x="852" unicode="Ψ"/>
<glyph d="M209 357q0 -178 151 -279v-78h-316v121h121q-52 34 -87.5 101.5t-35.5 145.5v6q0 146 102 248.5t267 102.5q167 0 268 -99.5t101 -248.5v-7q0 -83 -35.5 -148t-87.5 -101h121v-121h-316v78q151 94 151 279v8q0 103 -52 168t-150 65t-150 -64t-52 -169v-8z" glyph-name="uni03A9" horiz-adv-x="822" unicode="Ω"/>
<glyph d="M87 715h163v-715h-163v715zM61 769q-31 0 -52.5 21.5t-21.5 51.5t21.5 51t52.5 21q30 0 52 -21t22 -51t-22 -51.5t-52 -21.5zM276 769q-30 0 -51.5 21.5t-21.5 51.5t21.5 51t51.5 21q31 0 52.5 -21t21.5 -51t-21.5 -51.5t-52.5 -21.5z" glyph-name="Iotadieresis" horiz-adv-x="325" unicode="Ϊ"/>
<glyph d="M255 308l-236 407h178l145 -274l142 274h157l-223 -407v-308h-163v308zM231 769q-31 0 -52.5 21.5t-21.5 51.5t21.5 51t52.5 21q30 0 52 -21t22 -51t-22 -51.5t-52 -21.5zM446 769q-30 0 -51.5 21.5t-21.5 51.5t21.5 51t51.5 21q31 0 52.5 -21t21.5 -51t-21.5 -51.5 t-52.5 -21.5z" glyph-name="Upsilondieresis" horiz-adv-x="648" unicode="Ϋ"/>
<glyph d="M298 102q56 0 90.5 40t34.5 117v8q0 78 -32 117.5t-88 39.5q-58 0 -90 -41t-32 -118v-8q0 -76 32 -115.5t85 -39.5zM256 -11q-94 0 -158.5 70.5t-64.5 194.5v8q0 125 65.5 199t161.5 74q107 0 159 -89v77h144v-523h-144v85q-22 -41 -65.5 -68.5t-97.5 -27.5zM329 753h152 l-104 -159h-105z" glyph-name="alphatonos" horiz-adv-x="627" unicode="ά"/>
<glyph d="M148 273q-44 7 -73 38t-29 73q0 64 58 107.5t183 43.5q227 0 249 -164h-136q-4 31 -26 47.5t-80 16.5q-51 0 -76 -15t-25 -50q0 -22 17 -39t54 -17h98v-90h-97q-85 0 -85 -65q0 -66 111 -66q110 0 118 74h132q-7 -87 -73 -132.5t-181 -45.5q-125 0 -189 41t-64 116 q0 48 30.5 82t83.5 45zM304 753h152l-104 -159h-105z" glyph-name="epsilontonos" horiz-adv-x="569" unicode="έ"/>
<glyph d="M64 523h144v-84q49 96 171 96q81 0 128 -50t47 -152v-511h-143v490q0 54 -22.5 79.5t-70.5 25.5q-49 0 -79.5 -29.5t-30.5 -85.5v-302h-144v523zM316 753h152l-104 -159h-105z" glyph-name="etatonos" horiz-adv-x="614" unicode="ή"/>
<glyph d="M68 523h144v-523h-144v523zM150 753h152l-104 -159h-105z" glyph-name="iotatonos" horiz-adv-x="280" unicode="ί"/>
<glyph d="M302 -11q-114 0 -178.5 61.5t-64.5 172.5v300h144v-305q0 -117 100 -117t100 116v306h144v-299q0 -110 -65.5 -172.5t-179.5 -62.5zM283 776h121l-81 -167h-84zM460 604q-28 0 -47.5 19.5t-19.5 47.5q0 27 19.5 46.5t47.5 19.5q29 0 48.5 -19.5t19.5 -46.5 q0 -28 -19.5 -47.5t-48.5 -19.5zM154 604q-29 0 -48.5 19.5t-19.5 47.5q0 27 19.5 46.5t48.5 19.5t48 -19.5t19 -46.5q0 -28 -19 -47.5t-48 -19.5z" glyph-name="upsilondieresistonos" horiz-adv-x="605" unicode="ΰ"/>
<glyph d="M298 102q56 0 90.5 40t34.5 117v8q0 78 -32 117.5t-88 39.5q-58 0 -90 -41t-32 -118v-8q0 -76 32 -115.5t85 -39.5zM256 -11q-94 0 -158.5 70.5t-64.5 194.5v8q0 125 65.5 199t161.5 74q107 0 159 -89v77h144v-523h-144v85q-22 -41 -65.5 -68.5t-97.5 -27.5z" glyph-name="alpha" horiz-adv-x="627" unicode="α"/>
<glyph d="M296 455q65 -2 97.5 27t32.5 79v5q0 44 -28.5 70t-79.5 26q-49 0 -79.5 -32.5t-30.5 -88.5v-302q0 -66 36.5 -101.5t84.5 -35.5q54 0 86.5 31t32.5 92v6q0 61 -38.5 92t-113.5 28v104zM440 412q69 -16 112 -65.5t43 -124.5v-7q0 -100 -65.5 -161.5t-165.5 -61.5 q-50 0 -92.5 24t-63.5 65v-259h-144v711q0 113 69 173.5t184 60.5q110 0 176.5 -52t66.5 -139v-4q0 -57 -32 -100t-88 -60z" glyph-name="beta" horiz-adv-x="625" unicode="β"/>
<glyph d="M432 523h141l-208 -516v-185h-143v185l-209 516h155l132 -357z" glyph-name="gamma" horiz-adv-x="585" unicode="γ"/>
<glyph d="M111 760h418v-111h-227l152 -159q65 -70 94.5 -120t29.5 -116v-8q0 -113 -78 -185t-196 -72q-119 0 -195.5 70.5t-76.5 185.5v6q0 97 62 165t158 68q25 0 44 -5l-185 190v91zM431 254q0 64 -34 103t-92 39q-59 0 -92 -38.5t-33 -102.5v-6q0 -68 32 -109t93 -41 q60 0 93 39.5t33 108.5v7z" glyph-name="delta" horiz-adv-x="610" unicode="δ"/>
<glyph d="M148 273q-44 7 -73 38t-29 73q0 64 58 107.5t183 43.5q227 0 249 -164h-136q-4 31 -26 47.5t-80 16.5q-51 0 -76 -15t-25 -50q0 -22 17 -39t54 -17h98v-90h-97q-85 0 -85 -65q0 -66 111 -66q110 0 118 74h132q-7 -87 -73 -132.5t-181 -45.5q-125 0 -189 41t-64 116 q0 48 30.5 82t83.5 45z" glyph-name="epsilon" horiz-adv-x="569" unicode="ε"/>
<glyph d="M261 0q-105 0 -167 57t-62 153q0 107 69 222t167 206h-202v122h439v-32q-148 -138 -236 -272.5t-88 -232.5q0 -104 108 -104h58q76 0 115 -36t39 -98q0 -55 -25 -135h-116q16 54 16 94q0 56 -57 56h-58z" glyph-name="zeta" horiz-adv-x="511" unicode="ζ"/>
<glyph d="M64 523h144v-84q49 96 171 96q81 0 128 -50t47 -152v-511h-143v490q0 54 -22.5 79.5t-70.5 25.5q-49 0 -79.5 -29.5t-30.5 -85.5v-302h-144v523z" glyph-name="eta" horiz-adv-x="614" unicode="η"/>
<glyph d="M582 362q0 -177 -68.5 -275t-198.5 -98t-198 96.5t-68 272.5v41q0 173 70.5 270.5t195.5 97.5q127 0 197 -94t70 -272v-39zM315 657q-122 0 -127 -223h253q-5 223 -126 223zM316 97q121 0 126 231h-254q2 -116 32.5 -173.5t95.5 -57.5z" glyph-name="theta" horiz-adv-x="631" unicode="θ"/>
<glyph d="M68 523h144v-523h-144v523z" glyph-name="iota" horiz-adv-x="280" unicode="ι"/>
<glyph d="M208 289l181 234h154l-201 -249l209 -274h-163l-180 239v-239h-144v523h144v-234z" glyph-name="kappa" horiz-adv-x="557" unicode="κ"/>
<glyph d="M179 605q-11 28 -26 39t-41 11q-22 0 -64 -11v108q45 15 104 15q54 0 92 -29.5t65 -101.5l177 -482q15 -44 49 -44q10 0 38 4v-111q-27 -10 -74 -10q-98 0 -135 109l-86 251l-119 -353h-149l201 517z" glyph-name="lambda" horiz-adv-x="581" unicode="λ"/>
<glyph d="M64 523h144v-323q0 -101 91 -101q49 0 79.5 29.5t30.5 85.5v309h143v-523h-142v75q-31 -77 -119 -77q-57 0 -83 43v-219h-144v701z" glyph-name="uni03BC" horiz-adv-x="615" unicode="μ"/>
<glyph d="M20 523h155l125 -374l124 374h140l-190 -523h-163z" glyph-name="nu" horiz-adv-x="571" unicode="ν"/>
<glyph d="M360 118q76 0 113.5 -35.5t37.5 -98.5q0 -54 -25 -134h-116q17 60 17 94q0 56 -57 56h-46q-114 0 -183 55.5t-69 153.5q0 74 43.5 125t110.5 65q-104 36 -104 131q0 93 98 126h-135v104h451v-115h-131q-63 0 -101 -25.5t-38 -76.5q0 -40 29.5 -64t82.5 -24h113v-119h-133 q-66 0 -102 -31t-36 -88q0 -49 34 -74t93 -25h53z" glyph-name="xi" horiz-adv-x="527" unicode="ξ"/>
<glyph d="M314 99q61 0 94.5 42t33.5 117v7q0 75 -33.5 117.5t-94.5 42.5q-60 0 -94 -41.5t-34 -116.5v-8q0 -76 33 -118t95 -42zM313 -11q-120 0 -196 73q-79 73 -79 194v8q0 121 79 197q77 74 197 74q121 0 197 -73q78 -76 78 -195v-8q0 -121 -79 -197q-76 -73 -197 -73z" glyph-name="omicron" horiz-adv-x="615" unicode="ο"/>
<glyph d="M403 415h-172v-415h-143v415h-69v108h596v-108h-69v-415h-143v415z" glyph-name="pi" horiz-adv-x="634" unicode="π"/>
<glyph d="M318 100q60 0 91 41t31 117v7q0 76 -32.5 118t-92.5 42q-61 0 -93.5 -41.5t-32.5 -116.5v-8q0 -78 33 -118.5t96 -40.5zM342 -6q-46 0 -87.5 23t-62.5 62v-257h-144v443q0 122 74 196t193 74t195.5 -73.5t76.5 -194.5v-8q0 -120 -68.5 -192.5t-176.5 -72.5z" glyph-name="rho" horiz-adv-x="620" unicode="ρ"/>
<glyph d="M180 260q0 -66 33 -105.5t99 -39.5h35q77 0 118 -34.5t41 -96.5q0 -51 -26 -134h-116q17 66 17 95q0 55 -57 55h-31q-115 0 -188 69.5t-73 185.5v8q0 123 77.5 197.5t192.5 74.5q100 0 168.5 -49.5t77.5 -153.5h-138q-13 90 -108 90q-55 0 -88.5 -41t-33.5 -112v-9z" glyph-name="uni03C2" horiz-adv-x="578" unicode="ς"/>
<glyph d="M307 -11q-119 0 -197 73.5t-78 193.5v8q0 121 75 190t199 69h311v-108h-126q41 -21 65.5 -62.5t24.5 -93.5v-7q0 -119 -77 -191t-197 -72zM308 99q61 0 94.5 42t33.5 117v8q0 75 -33 114.5t-95 39.5q-63 0 -95.5 -39.5t-32.5 -112.5v-9q0 -76 33 -118t95 -42z" glyph-name="sigma" horiz-adv-x="637" unicode="σ"/>
<glyph d="M340 -8q-89 0 -132 49t-43 134v240h-146v108h445v-108h-154v-230q0 -42 16.5 -61t53.5 -19q31 0 62 9v-111q-39 -11 -102 -11z" glyph-name="tau" horiz-adv-x="491" unicode="τ"/>
<glyph d="M302 -11q-114 0 -178.5 61.5t-64.5 172.5v300h144v-305q0 -117 100 -117t100 116v306h144v-299q0 -110 -65.5 -172.5t-179.5 -62.5z" glyph-name="upsilon" horiz-adv-x="605" unicode="υ"/>
<glyph d="M768 264q0 -128 -82 -198t-216 -72v-172h-142v172q-139 4 -217.5 72.5t-78.5 190.5v8q0 111 62 180.5t174 84.5v-108q-92 -31 -92 -159v-8q0 -74 35.5 -112.5t116.5 -44.5v432q38 5 106 5q158 0 246 -73t88 -190v-8zM624 270q0 73 -38 114.5t-116 42.5v-329 q154 4 154 165v7z" glyph-name="phi" horiz-adv-x="800" unicode="φ"/>
<glyph d="M211 189l-102 191q-19 35 -53 35q-16 0 -37 -7v107q35 16 80 16q44 0 74.5 -17t52.5 -60l80 -156l104 225h148l-182 -344l110 -204q22 -41 56 -41q16 0 31 4v-110q-33 -11 -75 -11q-85 0 -137 99l-80 155l-121 -249h-143z" glyph-name="chi" horiz-adv-x="575" unicode="χ"/>
<glyph d="M196 250q0 -137 132 -148v421h142v-421q132 12 132 148v273h143v-271q0 -116 -73 -183t-202 -73v-174h-142v174q-134 6 -204.5 72t-70.5 187v268h143v-273z" glyph-name="psi" horiz-adv-x="798" unicode="ψ"/>
<glyph d="M473 203q0 -51 19 -78t53 -27q39 0 60 37t21 106v7q0 159 -110 179v109q126 -9 191 -86.5t65 -201.5v-8q0 -112 -56 -181.5t-153 -69.5q-122 0 -160 106q-17 -46 -58 -76t-102 -30q-99 0 -155 69t-56 182v8q0 123 66 200.5t191 87.5v-109q-109 -21 -109 -178v-8 q0 -143 81 -143q33 0 51.5 27t18.5 78v147h142v-147z" glyph-name="omega" horiz-adv-x="805" unicode="ω"/>
<glyph d="M68 523h144v-523h-144v523zM45 600q-31 0 -52.5 21t-21.5 51t21.5 51t52.5 21t52.5 -21t21.5 -51t-21.5 -51t-52.5 -21zM249 600q-31 0 -52.5 21t-21.5 51t21.5 51t52.5 21t52.5 -21t21.5 -51t-21.5 -51t-52.5 -21z" glyph-name="iotadieresis" horiz-adv-x="280" unicode="ϊ"/>
<glyph d="M302 -11q-114 0 -178.5 61.5t-64.5 172.5v300h144v-305q0 -117 100 -117t100 116v306h144v-299q0 -110 -65.5 -172.5t-179.5 -62.5zM206 600q-31 0 -52.5 21t-21.5 51t21.5 51t52.5 21t52.5 -21t21.5 -51t-21.5 -51t-52.5 -21zM410 600q-31 0 -52.5 21t-21.5 51t21.5 51 t52.5 21t52.5 -21t21.5 -51t-21.5 -51t-52.5 -21z" glyph-name="upsilondieresis" horiz-adv-x="605" unicode="ϋ"/>
<glyph d="M314 99q61 0 94.5 42t33.5 117v7q0 75 -33.5 117.5t-94.5 42.5q-60 0 -94 -41.5t-34 -116.5v-8q0 -76 33 -118t95 -42zM313 -11q-120 0 -196 73q-79 73 -79 194v8q0 121 79 197q77 74 197 74q121 0 197 -73q78 -76 78 -195v-8q0 -121 -79 -197q-76 -73 -197 -73zM317 753 h152l-104 -159h-105z" glyph-name="omicrontonos" horiz-adv-x="615" unicode="ό"/>
<glyph d="M302 -11q-114 0 -178.5 61.5t-64.5 172.5v300h144v-305q0 -117 100 -117t100 116v306h144v-299q0 -110 -65.5 -172.5t-179.5 -62.5zM309 753h152l-104 -159h-105z" glyph-name="upsilontonos" horiz-adv-x="605" unicode="ύ"/>
<glyph d="M473 203q0 -51 19 -78t53 -27q39 0 60 37t21 106v7q0 159 -110 179v109q126 -9 191 -86.5t65 -201.5v-8q0 -112 -56 -181.5t-153 -69.5q-122 0 -160 106q-17 -46 -58 -76t-102 -30q-99 0 -155 69t-56 182v8q0 123 66 200.5t191 87.5v-109q-109 -21 -109 -178v-8 q0 -143 81 -143q33 0 51.5 27t18.5 78v147h142v-147zM414 753h152l-104 -159h-105z" glyph-name="omegatonos" horiz-adv-x="805" unicode="ώ"/>
<glyph d="M83 715h466v-126h-305v-167h244v-118h-244v-178h321v-126h-482v715zM215 769q-31 0 -52.5 21.5t-21.5 51.5t21.5 51t52.5 21q30 0 52 -21t22 -51t-22 -51.5t-52 -21.5zM430 769q-30 0 -51.5 21.5t-21.5 51.5t21.5 51t51.5 21q31 0 52.5 -21t21.5 -51t-21.5 -51.5 t-52.5 -21.5z" glyph-name="uni0401" horiz-adv-x="595" unicode="Ё"/>
<glyph d="M380 392q16 16 60.5 34.5t108.5 18.5q111 0 167.5 -61.5t56.5 -168.5q0 -114 -53.5 -173t-155.5 -59q-59 0 -101 21v124q30 -16 70 -16q78 0 78 102q0 104 -112 104q-42 0 -74.5 -16.5t-44.5 -32.5v-269h-163v589h-193v126h553v-126h-197v-197z" glyph-name="uni0402" horiz-adv-x="809" unicode="Ђ"/>
<glyph d="M77 715h449v-128h-287v-587h-162v715zM303 902h157l-101 -139h-109z" glyph-name="uni0403" horiz-adv-x="557" unicode="Ѓ"/>
<glyph d="M720 254q-18 -130 -102.5 -197.5t-218.5 -67.5q-173 0 -266 98t-93 266v8q0 161 100.5 263t254.5 102q134 0 218 -64.5t99 -192.5h-166q-10 66 -46 97.5t-104 31.5q-72 0 -119.5 -46t-60.5 -128h275v-121h-276q9 -88 56.5 -136t125.5 -48q142 0 164 135h159z" glyph-name="uni0404" horiz-adv-x="748" unicode="Є"/>
<glyph d="M333 -11q-143 0 -218 64q-71 61 -77 171h155q7 -57 33 -82q35 -35 107 -35q54 0 86 26.5t32 68.5q0 41 -28 62q-31 19 -107 31q-141 18 -197 66q-61 47 -61 151q0 91 71 153q73 60 189 60q122 0 190 -54t78 -160h-149q-13 95 -119 95q-52 0 -79.5 -22t-27.5 -59 q0 -41 26 -58q27 -21 107 -33q136 -17 196 -61q66 -50 66 -156q0 -99 -73 -161q-77 -67 -200 -67z" glyph-name="uni0405" horiz-adv-x="640" unicode="Ѕ"/>
<glyph d="M87 715h163v-715h-163v715z" glyph-name="uni0406" horiz-adv-x="325" unicode="І"/>
<glyph d="M87 715h163v-715h-163v715zM60 769q-31 0 -52.5 21.5t-21.5 51.5t21.5 51t52.5 21q30 0 52 -21t22 -51t-22 -51.5t-52 -21.5zM275 769q-30 0 -51.5 21.5t-21.5 51.5t21.5 51t51.5 21q31 0 52.5 -21t21.5 -51t-21.5 -51.5t-52.5 -21.5z" glyph-name="uni0407" horiz-adv-x="325" unicode="Ї"/>
<glyph d="M160 -9q-77 0 -119 22v124q45 -17 90 -17q101 0 101 113v482h163v-484q0 -120 -61 -180t-174 -60z" glyph-name="uni0408" horiz-adv-x="457" unicode="Ј"/>
<glyph d="M488 587h-191q-8 -234 -12 -286q-4 -58 -12 -103t-23.5 -85.5t-38 -67t-56 -41.5t-77.5 -15q-23 0 -41 5l-15 6v132q1 -1 3 -1q2 -1 3 -1q10 -2 22 -2q40 0 60.5 45.5t29.5 139.5q11 136 11 402h498v-266h82q126 0 196.5 -54.5t70.5 -164.5v-4q0 -113 -70 -169.5 t-203 -56.5h-237v587zM722 123q121 0 121 104v4q0 104 -122 104h-72v-212h73z" glyph-name="uni0409" horiz-adv-x="1028" unicode="Љ"/>
<glyph d="M737 123q120 0 120 104v4q0 104 -121 104h-72v-212h73zM503 295h-264v-295h-162v715h162v-292h264v292h161v-266h81q126 0 197 -54.5t71 -164.5v-4q0 -113 -70 -169.5t-204 -56.5h-236v295z" glyph-name="uni040A" horiz-adv-x="1042" unicode="Њ"/>
<glyph d="M380 393q18 16 42 26q56 26 124 26q223 0 223 -249v-196h-162v190q0 66 -24 97t-85 31q-49 0 -89 -23q-18 -11 -29 -23v-272h-163v589h-193v126h553v-126h-197v-196z" glyph-name="uni040B" horiz-adv-x="819" unicode="Ћ"/>
<glyph d="M353 902h157l-101 -139h-109zM83 715h162v-308l250 309h172l-283 -339l297 -377h-189l-247 321v-321h-162v715z" glyph-name="uni040C" horiz-adv-x="686" unicode="Ќ"/>
<glyph d="M77 0v715h162v-500l300 500h162v-715h-162v504l-300 -504h-162zM250 902h156l52 -139h-109z" glyph-name="uni040D" horiz-adv-x="778" unicode="Ѝ"/>
<glyph d="M333 757q-68 0 -108.5 39.5t-44.5 106.5h103q6 -60 50 -60q47 0 54 60h102q-5 -67 -46.5 -106.5t-109.5 -39.5zM166 -9q-42 0 -63 12v129q1 0 9 -2t19 -3.5t23 -1.5q64 0 103 73l-245 517h170l151 -340l142 340h156l-237 -538q-42 -94 -91.5 -140t-136.5 -46z" glyph-name="uni040E" horiz-adv-x="635" unicode="Ў"/>
<glyph d="M77 0v715h162v-587h277v587h162v-715h-230l-2 -130h-137l-2 130h-230z" glyph-name="uni040F" horiz-adv-x="754" unicode="Џ"/>
<glyph d="M262 715h211l232 -715h-169l-49 159h-259l-49 -159h-152zM263 274h189l-94 309z" glyph-name="uni0410" horiz-adv-x="720" unicode="А"/>
<glyph d="M607 221q0 -107 -67.5 -164t-200.5 -57h-262v715h466v-126h-305l-1 -150h107q127 0 195 -53.5t68 -160.5v-4zM333 123q119 0 119 99v4q0 99 -123 99h-92v-202h96z" glyph-name="uni0411" horiz-adv-x="639" unicode="Б"/>
<glyph d="M83 715h281q237 0 237 -186v-4q0 -120 -116 -153q143 -29 143 -168v-4q0 -200 -251 -200h-294v715zM352 112q116 0 116 101v4q0 51 -29.5 75.5t-94.5 24.5h-103v-205h111zM338 421q59 0 84 21.5t25 70.5v4q0 45 -26.5 66t-83.5 21h-96v-183h97z" glyph-name="uni0412" horiz-adv-x="658" unicode="В"/>
<glyph d="M77 715h449v-128h-287v-587h-162v715z" glyph-name="uni0413" horiz-adv-x="557" unicode="Г"/>
<glyph d="M264 308q-12 -121 -43 -180h264v459h-207q-7 -185 -14 -279zM139 -130h-141v258h45q34 14 51 59t26 130q12 144 12 398h514v-587h87v-258h-141l-5 130h-443z" glyph-name="uni0414" horiz-adv-x="740" unicode="Д"/>
<glyph d="M83 715h466v-126h-305v-167h244v-118h-244v-178h321v-126h-482v715z" glyph-name="uni0415" horiz-adv-x="595" unicode="Е"/>
<glyph d="M406 325l-219 -325h-175l262 373l-250 342h168l214 -313v313h159v-314l217 314h165l-250 -336l264 -379h-179l-217 327v-327h-159v325z" glyph-name="uni0416" horiz-adv-x="973" unicode="Ж"/>
<glyph d="M317 -11q-123 0 -199 66t-90 186h154q20 -122 137 -122q59 0 89.5 27t30.5 76t-26.5 71t-88.5 22h-76v107h72q53 0 76 22t23 68q0 41 -26 63t-72 22q-55 0 -83 -27t-38 -82h-153q14 116 86.5 176.5t191.5 60.5q115 0 186 -54.5t71 -141.5q0 -61 -30.5 -101.5t-89.5 -56.5 q146 -24 146 -161q0 -100 -80.5 -160.5t-210.5 -60.5z" glyph-name="uni0417" horiz-adv-x="645" unicode="З"/>
<glyph d="M77 0v715h162v-500l300 500h162v-715h-162v504l-300 -504h-162z" glyph-name="uni0418" horiz-adv-x="778" unicode="И"/>
<glyph d="M387 757q-68 0 -108.5 39.5t-44.5 106.5h103q6 -60 50 -60q46 0 53 60h102q-5 -66 -47 -106t-108 -40zM77 0v715h162v-500l300 500h162v-715h-162v504l-300 -504h-162z" glyph-name="uni0419" horiz-adv-x="778" unicode="Й"/>
<glyph d="M83 715h162v-308l250 309h172l-283 -339l297 -377h-189l-247 321v-321h-162v715z" glyph-name="uni041A" horiz-adv-x="686" unicode="К"/>
<glyph d="M281 264q-13 -132 -59 -203.5t-144 -71.5q-23 0 -41 5l-15 6v132q1 -1 3 -1q2 -1 3 -1q10 -2 22 -2q39 0 59 41.5t29 129.5q13 134 13 416h503v-715h-162v587h-195q-7 -240 -16 -323z" glyph-name="uni041B" horiz-adv-x="730" unicode="Л"/>
<glyph d="M83 715h214l167 -445l165 445h210v-715h-161v502l-198 -502h-53l-199 502v-502h-145v715z" glyph-name="uni041C" horiz-adv-x="911" unicode="М"/>
<glyph d="M83 715h162v-292h287v292h162v-715h-162v295h-287v-295h-162v715z" glyph-name="uni041D" horiz-adv-x="764" unicode="Н"/>
<glyph d="M416 118q89 0 144 65q53 64 53 172v8q0 104 -52 169q-55 65 -147 65q-91 0 -146 -63q-53 -62 -53 -172v-8q0 -109 57 -172q55 -64 144 -64zM413 -11q-166 0 -267 104q-100 100 -100 260v8q0 162 105 262q104 102 263 102q163 0 265 -99q103 -103 103 -261v-8 q0 -161 -101 -264q-102 -104 -268 -104z" glyph-name="uni041E" horiz-adv-x="816" unicode="О"/>
<glyph d="M516 587h-277v-587h-162v715h601v-715h-162v587z" glyph-name="uni041F" horiz-adv-x="754" unicode="П"/>
<glyph d="M83 715h247q133 0 203 -57.5t70 -170.5v-4q0 -111 -73 -168q-70 -55 -195 -55h-91v-260h-161v715zM326 373q121 0 121 109v4q0 106 -121 106h-82v-219h82z" glyph-name="uni0420" horiz-adv-x="626" unicode="Р"/>
<glyph d="M405 -11q-173 0 -267 100q-92 95 -92 264v8q0 162 102 264q99 101 253 101q134 0 217 -64q88 -69 100 -196h-166q-18 132 -150 132q-85 0 -135 -62.5t-50 -173.5v-8q0 -112 48.5 -173t137.5 -61q68 0 111 34.5t53 102.5h159q-13 -131 -101 -200q-85 -68 -220 -68z" glyph-name="uni0421" horiz-adv-x="748" unicode="С"/>
<glyph d="M223 589h-193v126h549v-126h-193v-589h-163v589z" glyph-name="uni0422" horiz-adv-x="597" unicode="Т"/>
<glyph d="M166 -9q-42 0 -63 12v129q1 0 9 -2t19 -3.5t23 -1.5q64 0 103 73l-245 517h170l151 -340l142 340h156l-237 -538q-42 -94 -91.5 -140t-136.5 -46z" glyph-name="uni0423" horiz-adv-x="635" unicode="У"/>
<glyph d="M527 641q150 -4 240 -74.5t90 -200.5v-8q0 -130 -93 -201t-237 -75v-92h-161v92q-150 4 -240 74.5t-90 200.5v7q0 130 93 201.5t237 75.5v90h161v-90zM366 525q-168 -9 -168 -161v-7q0 -80 45.5 -118t122.5 -40v326zM527 198q76 2 122.5 40.5t46.5 119.5v8 q0 149 -169 158v-326z" glyph-name="uni0424" horiz-adv-x="894" unicode="Ф"/>
<glyph d="M263 367l-210 348h183l136 -238l135 238h166l-204 -343l226 -372h-184l-155 266l-154 -266h-166z" glyph-name="uni0425" horiz-adv-x="719" unicode="Х"/>
<glyph d="M623 -130l-5 130h-541v715h162v-587h277v587h162v-587h86v-258h-141z" glyph-name="uni0426" horiz-adv-x="771" unicode="Ц"/>
<glyph d="M477 0v300q-20 -15 -44 -25q-56 -25 -130 -25q-250 0 -250 282v183h162v-186q0 -79 30 -115t93 -36q61 0 105 25q19 11 34 25v287h162v-715h-162z" glyph-name="uni0427" horiz-adv-x="716" unicode="Ч"/>
<glyph d="M77 715h162v-587h202v587h163v-587h202v587h162v-715h-891v715z" glyph-name="uni0428" horiz-adv-x="1044" unicode="Ш"/>
<glyph d="M913 -130l-5 130h-831v715h162v-587h202v587h163v-587h202v587h162v-587h86v-258h-141z" glyph-name="uni0429" horiz-adv-x="1061" unicode="Щ"/>
<glyph d="M200 588h-176v127h337v-259h91q126 0 197 -56t71 -166v-4q0 -113 -70.5 -171.5t-203.5 -58.5h-246v588zM444 123q120 0 120 107v4q0 108 -121 108h-82v-219h83z" glyph-name="uni042A" horiz-adv-x="749" unicode="Ъ"/>
<glyph d="M816 0h-162v715h162v-715zM77 715h161v-259h83q126 0 197 -56t71 -166v-4q0 -113 -70.5 -171.5t-203.5 -58.5h-238v715zM312 123q121 0 121 107v4q0 108 -121 108h-74v-219h74z" glyph-name="uni042B" horiz-adv-x="892" unicode="Ы"/>
<glyph d="M77 715h161v-259h91q126 0 197 -56t71 -166v-4q0 -113 -70.5 -171.5t-202.5 -58.5h-247v715zM321 123q120 0 120 107v4q0 108 -121 108h-82v-219h83z" glyph-name="uni042C" horiz-adv-x="626" unicode="Ь"/>
<glyph d="M349 -11q-133 0 -219.5 67.5t-100.5 193.5h161q22 -131 161 -131q76 0 123.5 46.5t58.5 135.5h-276v122h277q-11 84 -57 129t-118 45q-137 0 -157 -132h-164q17 131 100.5 196t222.5 65q153 0 250 -98t97 -256v-8q0 -172 -95 -273.5t-264 -101.5z" glyph-name="uni042D" horiz-adv-x="748" unicode="Э"/>
<glyph d="M674 -11q-146 0 -240 84t-112 222h-83v-295h-162v715h162v-292h85q20 135 116 218.5t235 83.5q157 0 256 -100t99 -260v-8q0 -161 -98 -264.5t-258 -103.5zM676 118q86 0 135.5 64t49.5 173v8q0 106 -49.5 170t-136.5 64q-89 0 -138 -62.5t-49 -172.5v-8q0 -108 52 -172 t136 -64z" glyph-name="uni042E" horiz-adv-x="1070" unicode="Ю"/>
<glyph d="M350 592q-60 0 -91 -23.5t-31 -77.5v-4q0 -105 123 -105h86v210h-87zM192 0h-173l199 302q-68 16 -108 63.5t-40 126.5v4q0 110 74 164.5t202 54.5h252v-715h-161v272h-73z" glyph-name="uni042F" horiz-adv-x="675" unicode="Я"/>
<glyph d="M211 -11q-76 0 -123 37q-52 41 -52 119q0 87 76 130q68 38 196 38h59v21q0 50 -18.5 73t-66.5 23q-77 0 -89 -74h-137q6 88 73 136q61 43 162 43t158 -44q61 -48 61 -150v-341h-141v63q-53 -74 -158 -74zM254 90q49 0 81 25t32 68v44h-56q-66 0 -99.5 -17t-33.5 -57 q0 -63 76 -63z" glyph-name="uni0430" horiz-adv-x="564" unicode="а"/>
<glyph d="M310 -11q-131 0 -203 80t-72 247v33q0 390 311 406l39 1q119 6 152 19v-110q-49 -22 -156 -28l-33 -1q-96 -6 -144.5 -61.5t-58.5 -157.5h6q60 105 193 105q107 0 174.5 -73.5t67.5 -186.5v-7q0 -121 -78 -193.5t-198 -72.5zM311 99q61 0 94.5 40.5t33.5 114.5v6 q0 73 -32 112.5t-92 39.5q-63 0 -97.5 -40.5t-34.5 -113.5v-5q0 -73 33 -113.5t95 -40.5z" glyph-name="uni0431" horiz-adv-x="618" unicode="б"/>
<glyph d="M65 523h228q92 0 144 -31.5t52 -97.5v-2q0 -93 -100 -117q121 -21 121 -119v-1q0 -75 -51 -115t-150 -40h-244v523zM208 432v-119h57q76 0 76 62v1q0 32 -20 44t-62 12h-51zM208 223v-133h69q86 0 86 66v1q0 66 -79 66h-76z" glyph-name="uni0432" horiz-adv-x="544" unicode="в"/>
<glyph d="M208 420v-420h-143v523h359v-103h-216z" glyph-name="uni0433" horiz-adv-x="445" unicode="г"/>
<glyph d="M227 234q-8 -87 -29 -131h179v318h-140q-2 -123 -10 -187zM137 -127h-125v230h30q25 11 38 44.5t20 97.5q12 102 12 278h407v-420h74v-230h-125l-2 127h-327z" glyph-name="uni0434" horiz-adv-x="607" unicode="д"/>
<glyph d="M311 -11q-122 0 -195 71q-78 72 -78 195v8q0 122 78 198q76 74 191 74q109 0 178 -63q77 -70 77 -203v-40h-377q3 -66 36.5 -101.5t93.5 -35.5q94 0 109 73h137q-13 -85 -77.5 -130.5t-172.5 -45.5zM421 318q-7 117 -114 117q-49 0 -80.5 -30.5t-39.5 -86.5h234z" glyph-name="uni0435" horiz-adv-x="587" unicode="е"/>
<glyph d="M313 250l-149 -250h-155l178 281l-165 242h149l142 -227v227h142v-228l143 228h148l-165 -239l180 -284h-158l-148 252v-252h-142v250z" glyph-name="uni0436" horiz-adv-x="770" unicode="ж"/>
<glyph d="M473 392q0 -95 -100 -117q118 -19 118 -117v-3q0 -72 -62 -119t-162 -47q-108 0 -167.5 49.5t-71.5 139.5h129q10 -42 35.5 -62.5t72.5 -20.5q78 0 78 66v3q0 59 -77 59h-68v90h59q68 0 68 56v2q0 53 -69 53q-70 0 -88 -68h-129q9 89 71.5 134t149.5 45q94 0 153.5 -38 t59.5 -103v-2z" glyph-name="uni0437" horiz-adv-x="524" unicode="з"/>
<glyph d="M65 0v523h143v-349l202 349h143v-523h-143v349l-202 -349h-143z" glyph-name="uni0438" horiz-adv-x="615" unicode="и"/>
<glyph d="M305 599q-68 0 -108 39.5t-45 106.5h104q6 -60 49 -60q47 0 54 60h102q-5 -67 -46.5 -106.5t-109.5 -39.5zM65 0v523h143v-349l202 349h143v-523h-143v349l-202 -349h-143z" glyph-name="uni0439" horiz-adv-x="615" unicode="й"/>
<glyph d="M208 247v-247h-144v523h144v-224l169 224h154l-191 -239l206 -284h-164z" glyph-name="uni043A" horiz-adv-x="555" unicode="к"/>
<glyph d="M232 215q-13 -115 -48 -170t-111 -55q-27 0 -38 4l-12 4v115q1 -1 5 -2q8 -2 17 -2q28 0 42 33.5t20 101.5q1 16 2.5 42t3 63.5t2.5 59.5q2 72 2 114h403v-523h-143v420h-135q-2 -135 -10 -205z" glyph-name="uni043B" horiz-adv-x="585" unicode="л"/>
<glyph d="M173 374v-374h-109v523h191l119 -322l122 322h178v-523h-142v374l-144 -374h-73z" glyph-name="uni043C" horiz-adv-x="741" unicode="м"/>
<glyph d="M402 215h-194v-215h-143v523h143v-205h194v205h143v-523h-143v215z" glyph-name="uni043D" horiz-adv-x="610" unicode="н"/>
<glyph d="M314 99q61 0 94.5 42t33.5 117v7q0 75 -33.5 117.5t-94.5 42.5q-60 0 -94 -41.5t-34 -116.5v-8q0 -76 33 -118t95 -42zM313 -11q-120 0 -196 73q-79 73 -79 194v8q0 121 79 197q77 74 197 74q121 0 197 -73q78 -76 78 -195v-8q0 -121 -79 -197q-76 -73 -197 -73z" glyph-name="uni043E" horiz-adv-x="615" unicode="о"/>
<glyph d="M392 420h-184v-420h-143v523h470v-523h-143v420z" glyph-name="uni043F" horiz-adv-x="600" unicode="п"/>
<glyph d="M70 523h145v-82q23 41 67.5 67.5t99.5 26.5q99 0 162 -69q66 -72 66 -199v-8q0 -126 -65 -199q-62 -71 -163 -71q-58 0 -102 25.5t-65 65.5v-258h-145v701zM339 102q60 0 92 39.5t32 116.5v8q0 78 -34 118t-91 40q-59 0 -93.5 -40.5t-34.5 -117.5v-8q0 -77 34 -116.5 t95 -39.5z" glyph-name="uni0440" horiz-adv-x="637" unicode="р"/>
<glyph d="M307 -11q-118 0 -192 69q-77 72 -77 197v8q0 123 79 200q75 72 191 72q101 0 164 -45q72 -52 82 -158h-137q-13 89 -106 89q-58 0 -91.5 -41t-33.5 -115v-8q0 -78 33.5 -118.5t94.5 -40.5q46 0 76.5 26t35.5 75h131q-6 -97 -71 -151q-69 -59 -179 -59z" glyph-name="uni0441" horiz-adv-x="578" unicode="с"/>
<glyph d="M471 420h-155v-420h-144v420h-155v103h454v-103z" glyph-name="uni0442" horiz-adv-x="488" unicode="т"/>
<glyph d="M228 53l-208 470h156l127 -314l117 314h139l-283 -701h-140z" glyph-name="uni0443" horiz-adv-x="567" unicode="у"/>
<glyph d="M461 534q124 -6 202 -74.5t78 -190.5v-8q0 -122 -79 -194.5t-201 -76.5v-168h-142v168q-124 6 -202 75t-78 191v8q0 122 79 194t201 76v226h142v-226zM319 430q-63 -4 -98.5 -46.5t-35.5 -116.5v-7q0 -75 35 -118t99 -48v336zM461 94q62 5 97.5 48t35.5 115v8 q0 74 -35 117t-98 48v-336z" glyph-name="uni0444" horiz-adv-x="779" unicode="ф"/>
<glyph d="M202 267l-167 256h166l98 -157l96 157h150l-167 -245l184 -278h-167l-110 176l-113 -176h-149z" glyph-name="uni0445" horiz-adv-x="574" unicode="х"/>
<glyph d="M488 -127l-6 127h-417v523h143v-420h184v420h143v-420h74v-230h-121z" glyph-name="uni0446" horiz-adv-x="622" unicode="ц"/>
<glyph d="M368 0v225q-9 -10 -22.5 -21t-50.5 -24.5t-81 -13.5q-78 0 -123.5 49t-45.5 147v161h144v-141q0 -55 19 -79.5t63 -24.5q63 0 97 44v201h144v-523h-144z" glyph-name="uni0447" horiz-adv-x="577" unicode="ч"/>
<glyph d="M65 523h143v-420h137v420h143v-420h137v420h143v-523h-703v523z" glyph-name="uni0448" horiz-adv-x="833" unicode="ш"/>
<glyph d="M721 -127l-6 127h-650v523h143v-420h137v420h143v-420h137v420h143v-420h74v-230h-121z" glyph-name="uni0449" horiz-adv-x="856" unicode="щ"/>
<glyph d="M146 420h-129v103h272v-166h95q94 0 148 -46t54 -132v-3q0 -86 -53.5 -131t-152.5 -45h-234v420zM352 102q46 0 67 17t21 58v3q0 76 -88 76h-63v-154h63z" glyph-name="uni044A" horiz-adv-x="613" unicode="ъ"/>
<glyph d="M546 523h143v-523h-143v523zM65 523h143v-166h88q93 0 147.5 -46.5t54.5 -131.5v-3q0 -86 -53.5 -131t-153.5 -45h-226v523zM265 102q45 0 66 17.5t21 57.5v3q0 76 -87 76h-57v-154h57z" glyph-name="uni044B" horiz-adv-x="754" unicode="ы"/>
<glyph d="M65 523h143v-166h95q94 0 148 -47t54 -133v-3q0 -86 -53.5 -130t-152.5 -44h-234v523zM271 101q88 0 88 74v3q0 78 -88 78h-63v-155h63z" glyph-name="uni044C" horiz-adv-x="532" unicode="ь"/>
<glyph d="M281 -11q-227 0 -252 199h132q21 -90 113 -90q48 0 80 31t41 88h-196v95h196q-17 110 -121 110q-90 0 -109 -89h-135q8 96 77.5 149t169.5 53q119 0 194 -71.5t75 -195.5v-8q0 -124 -75.5 -197.5t-189.5 -73.5z" glyph-name="uni044D" horiz-adv-x="578" unicode="э"/>
<glyph d="M524 -10q-102 0 -170.5 55.5t-85.5 153.5q-2 14 -2 16h-58v-215h-143v523h143v-205h59q16 99 86.5 158.5t171.5 59.5q117 0 191 -73.5t74 -194.5v-8q0 -122 -74.5 -196t-191.5 -74zM525 99q57 0 87.5 42t30.5 117v8q0 75 -30.5 117t-87.5 42q-56 0 -87 -41t-31 -116v-8 q0 -76 30.5 -118.5t87.5 -42.5z" glyph-name="uni044E" horiz-adv-x="822" unicode="ю"/>
<glyph d="M282 421q-88 0 -88 -69v-3q0 -70 88 -70h59v142h-59zM170 0h-157l134 213q-99 35 -99 138v3q0 80 53.5 124.5t152.5 44.5h231v-523h-144v183h-61z" glyph-name="uni044F" horiz-adv-x="541" unicode="я"/>
<glyph d="M311 -11q-122 0 -195 71q-78 72 -78 195v8q0 122 78 198q76 74 191 74q109 0 178 -63q77 -70 77 -203v-40h-377q3 -66 36.5 -101.5t93.5 -35.5q94 0 109 73h137q-13 -85 -77.5 -130.5t-172.5 -45.5zM421 318q-7 117 -114 117q-49 0 -80.5 -30.5t-39.5 -86.5h234zM202 600 q-31 0 -52.5 21t-21.5 51t21.5 51t52.5 21t52.5 -21t21.5 -51t-21.5 -51t-52.5 -21zM406 600q-31 0 -52.5 21t-21.5 51t21.5 51t52.5 21t52.5 -21t21.5 -51t-21.5 -51t-52.5 -21z" glyph-name="uni0451" horiz-adv-x="587" unicode="ё"/>
<glyph d="M411 312q0 54 -22.5 79.5t-70.5 25.5q-49 0 -79.5 -29.5t-30.5 -85.5v-302h-144v597h-63v83h63v80h144v-80h164v-83h-164v-158q49 96 171 96q81 0 128.5 -50t47.5 -152v-311q0 -110 -47.5 -160.5t-165.5 -50.5v108q38 3 53.5 21.5t15.5 62.5v309z" glyph-name="uni0452" horiz-adv-x="615" unicode="ђ"/>
<glyph d="M208 420v-420h-143v523h359v-103h-216zM254 753h152l-104 -159h-105z" glyph-name="uni0453" horiz-adv-x="445" unicode="ѓ"/>
<glyph d="M551 193q-12 -97 -75 -150.5t-176 -53.5q-118 0 -193 70.5t-75 195.5v8q0 123 77.5 197.5t192.5 74.5q98 0 167 -49t78 -148h-137q-16 84 -105 84q-48 0 -79.5 -28.5t-40.5 -81.5h194v-94h-196q17 -120 125 -120q94 0 112 95h131z" glyph-name="uni0454" horiz-adv-x="578" unicode="є"/>
<glyph d="M260 -11q-106 0 -165 45t-63 130h135q6 -38 26 -56t66 -18q82 0 82 57q0 27 -24 40.5t-82 21.5q-106 17 -148 51q-45 35 -45 112t64 123q55 40 143 40q91 0 147 -36q59 -40 69 -126h-133q-6 33 -25 48t-57 15q-35 0 -54.5 -15t-19.5 -39q0 -25 21.5 -37t79.5 -20 q103 -14 151 -47q52 -39 52 -117q0 -84 -57.5 -128t-162.5 -44z" glyph-name="uni0455" horiz-adv-x="502" unicode="ѕ"/>
<glyph d="M145 594q-35 0 -58.5 22.5t-23.5 56.5t23.5 56.5t58.5 22.5t59 -22.5t24 -56.5t-24 -56.5t-59 -22.5zM74 523h144v-523h-144v523z" glyph-name="uni0456" horiz-adv-x="280" unicode="і"/>
<glyph d="M46 600q-30 0 -51.5 21t-21.5 51t21.5 51t51.5 21q31 0 52.5 -21t21.5 -51t-21.5 -51t-52.5 -21zM245 600q-30 0 -51.5 21t-21.5 51t21.5 51t51.5 21q31 0 52.5 -21t21.5 -51t-21.5 -51t-52.5 -21zM74 523h144v-523h-144v523z" glyph-name="uni0457" horiz-adv-x="280" unicode="ї"/>
<glyph d="M5 -79q37 3 53 19.5t16 49.5v533h144v-532q0 -85 -45 -129q-51 -48 -168 -49v108zM145 594q-35 0 -58.5 22.5t-23.5 56.5t23.5 56.5t58.5 22.5t59 -22.5t24 -56.5t-24 -56.5t-59 -22.5z" glyph-name="uni0458" horiz-adv-x="280" unicode="ј"/>
<glyph d="M366 420h-124q-2 -107 -9 -193q-10 -120 -46 -178.5t-114 -58.5q-27 0 -38 4l-12 4v115q1 -1 5 -2q8 -2 17 -2q29 0 43.5 35.5t19.5 109.5q8 77 8 269h393v-166h85q94 0 148 -46t54 -132v-3q0 -86 -53.5 -131t-152.5 -45h-224v420zM562 102q45 0 66 17.5t21 57.5v3 q0 76 -87 76h-53v-154h53z" glyph-name="uni0459" horiz-adv-x="822" unicode="љ"/>
<glyph d="M588 102q45 0 66 17.5t21 57.5v3q0 76 -87 76h-53v-154h53zM391 215h-183v-215h-143v523h143v-205h183v205h144v-166h84q94 0 148 -46t54 -132v-3q0 -86 -53.5 -131t-152.5 -45h-224v215z" glyph-name="uni045A" horiz-adv-x="848" unicode="њ"/>
<glyph d="M1 680h63v80h145v-80h163v-83h-163v-157q49 95 170 95q81 0 128.5 -50.5t47.5 -151.5v-333h-145v312q0 54 -22 79.5t-70 25.5q-49 0 -79 -29.5t-30 -85.5v-302h-145v597h-63v83z" glyph-name="uni045B" horiz-adv-x="615" unicode="ћ"/>
<glyph d="M297 753h152l-104 -159h-105zM208 247v-247h-144v523h144v-224l169 224h154l-191 -239l206 -284h-164z" glyph-name="uni045C" horiz-adv-x="555" unicode="ќ"/>
<glyph d="M65 0v523h143v-349l202 349h143v-523h-143v349l-202 -349h-143zM170 753h152l57 -159h-105z" glyph-name="uni045D" horiz-adv-x="618" unicode="ѝ"/>
<glyph d="M294 599q-68 0 -108.5 39.5t-44.5 106.5h103q6 -60 50 -60q23 0 37 16.5t17 43.5h101q-5 -67 -46.5 -106.5t-108.5 -39.5zM228 53l-208 470h156l127 -314l117 314h139l-283 -701h-140z" glyph-name="uni045E" horiz-adv-x="567" unicode="ў"/>
<glyph d="M65 0v523h143v-420h184v420h143v-523h-173l-2 -127h-119l-3 127h-173z" glyph-name="uni045F" horiz-adv-x="600" unicode="џ"/>
<glyph d="M239 587v-587h-162v715h305l6 134h140v-262h-289z" glyph-name="uni0490" horiz-adv-x="559" unicode="Ґ"/>
<glyph d="M208 420v-420h-143v523h219l5 134h122v-237h-203z" glyph-name="uni0491" horiz-adv-x="438" unicode="ґ"/>
<glyph d="M27 715h164l112 -494l122 494h138l127 -497l116 497h150l-174 -715h-165l-129 494l-131 -494h-156zM348 902h156l52 -139h-109z" glyph-name="Wgrave" horiz-adv-x="971" unicode="Ẁ"/>
<glyph d="M22 523h152l93 -352l101 352h119l92 -352l99 352h139l-165 -523h-142l-89 328l-96 -328h-144zM276 753h152l57 -159h-105z" glyph-name="wgrave" horiz-adv-x="826" unicode="ẁ"/>
<glyph d="M27 715h164l112 -494l122 494h138l127 -497l116 497h150l-174 -715h-165l-129 494l-131 -494h-156zM492 902h157l-101 -139h-109z" glyph-name="Wacute" horiz-adv-x="971" unicode="Ẃ"/>
<glyph d="M22 523h152l93 -352l101 352h119l92 -352l99 352h139l-165 -523h-142l-89 328l-96 -328h-144zM431 753h152l-104 -159h-105z" glyph-name="wacute" horiz-adv-x="826" unicode="ẃ"/>
<glyph d="M27 715h164l112 -494l122 494h138l127 -497l116 497h150l-174 -715h-165l-129 494l-131 -494h-156zM386 769q-31 0 -52.5 21.5t-21.5 51.5t21.5 51t52.5 21q30 0 52 -21t22 -51t-22 -51.5t-52 -21.5zM601 769q-30 0 -51.5 21.5t-21.5 51.5t21.5 51t51.5 21q31 0 52.5 -21 t21.5 -51t-21.5 -51.5t-52.5 -21.5z" glyph-name="Wdieresis" horiz-adv-x="971" unicode="Ẅ"/>
<glyph d="M22 523h152l93 -352l101 352h119l92 -352l99 352h139l-165 -523h-142l-89 328l-96 -328h-144zM324 600q-31 0 -52.5 21t-21.5 51t21.5 51t52.5 21t52.5 -21t21.5 -51t-21.5 -51t-52.5 -21zM528 600q-31 0 -52.5 21t-21.5 51t21.5 51t52.5 21t52.5 -21t21.5 -51t-21.5 -51 t-52.5 -21z" glyph-name="wdieresis" horiz-adv-x="826" unicode="ẅ"/>
<glyph d="M255 308l-236 407h178l145 -274l142 274h157l-223 -407v-308h-163v308zM193 902h156l52 -139h-109z" glyph-name="Ygrave" horiz-adv-x="648" unicode="Ỳ"/>
<glyph d="M228 53l-208 470h156l127 -314l117 314h139l-283 -701h-140zM146 753h152l57 -159h-105z" glyph-name="ygrave" horiz-adv-x="567" unicode="ỳ"/>
<glyph glyph-name="uni2009" horiz-adv-x="95" unicode=" "/>
<glyph d="M51 332h445v-92h-445v92z" glyph-name="endash" horiz-adv-x="547" unicode="–"/>
<glyph d="M51 332h834v-92h-834v92z" glyph-name="emdash" horiz-adv-x="936" unicode="—"/>
<glyph d="M40 497l129 230l83 -34l-83 -243z" glyph-name="quoteleft" horiz-adv-x="302" unicode="‘"/>
<glyph d="M50 484l83 244l129 -47l-130 -231z" glyph-name="quoteright" horiz-adv-x="302" unicode="’"/>
<glyph d="M48 -75l83 244l129 -47l-130 -231z" glyph-name="quotesinglbase" horiz-adv-x="301" unicode="‚"/>
<glyph d="M40 497l129 230l83 -34l-83 -243zM249 497l129 230l83 -34l-83 -243z" glyph-name="quotedblleft" horiz-adv-x="510" unicode="“"/>
<glyph d="M50 484l83 243l129 -46l-129 -231zM259 484l83 243l129 -46l-130 -231z" glyph-name="quotedblright" horiz-adv-x="510" unicode="”"/>
<glyph d="M48 -75l83 243l129 -46l-129 -231zM257 -75l83 243l129 -46l-130 -231z" glyph-name="quotedblbase" horiz-adv-x="510" unicode="„"/>
<glyph d="M143 489h-110v105h110v121h120v-121h109v-105h-109v-276h-120v276z" glyph-name="dagger" horiz-adv-x="406" unicode="†"/>
<glyph d="M143 507h-110v97h110v111h120v-111h109v-97h-109v-86h109v-97h-109v-111h-120v111h-110v97h110v86z" glyph-name="daggerdbl" horiz-adv-x="406" unicode="‡"/>
<glyph d="M185 169q-59 0 -97 40q-39 39 -39 95q0 55 39 96q39 39 97 39t97 -39q38 -40 38 -96q0 -57 -38 -95q-38 -40 -97 -40z" glyph-name="bullet" horiz-adv-x="369" unicode="•"/>
<glyph d="M152 -9q-38 0 -63.5 25.5t-25.5 62.5q0 36 25.5 61.5t63.5 25.5t64 -25.5t26 -61.5t-26 -62t-64 -26zM437 -9q-38 0 -63.5 25.5t-25.5 62.5q0 36 25.5 61.5t63.5 25.5t64 -25.5t26 -61.5t-26 -62t-64 -26zM721 -9q-38 0 -63.5 25.5t-25.5 62.5q0 36 25.5 61.5t63.5 25.5 t64 -25.5t26 -61.5t-26 -62t-64 -26z" glyph-name="ellipsis" horiz-adv-x="873" unicode="…"/>
<glyph d="M212 467q31 0 48.5 22.5t17.5 61.5q0 38 -17.5 60.5t-48.5 22.5t-49 -22t-18 -61t18 -61.5t49 -22.5zM211 378q-78 0 -127 49q-50 48 -50 123q0 73 52 123q51 49 126 49q74 0 126 -47q51 -49 51 -122q0 -75 -50 -125q-52 -50 -128 -50zM600 715h90l-475 -715h-90zM597 79 q32 0 49 22t17 62q0 39 -17 61t-49 22q-31 0 -49 -22t-18 -61q0 -41 18 -62.5t49 -21.5zM597 -11q-80 0 -128 50q-49 49 -49 123t51 123t126 49q74 0 126 -47q51 -49 51 -122q0 -76 -49 -125q-51 -51 -128 -51zM988 79q32 0 49.5 22.5t17.5 61.5t-17.5 61t-49.5 22 q-31 0 -49 -22t-18 -61q0 -41 18 -62.5t49 -21.5zM988 -11q-80 0 -128 50q-49 49 -49 123t51 123t126 49q74 0 126 -47q51 -49 51 -122q0 -76 -49 -125q-51 -51 -128 -51z" glyph-name="perthousand" horiz-adv-x="1199" unicode="‰"/>
<glyph d="M67 715h140l-60 -264h-102z" glyph-name="uni2032" horiz-adv-x="248" unicode="′"/>
<glyph d="M67 715h140l-60 -264h-102zM261 715h140l-60 -264h-102z" glyph-name="uni2033" horiz-adv-x="442" unicode="″"/>
<glyph d="M47 261l127 186h107l-122 -186l122 -186h-107z" glyph-name="guilsinglleft" horiz-adv-x="324" unicode="‹"/>
<glyph d="M165 261l-121 186h107l126 -186l-126 -186h-107z" glyph-name="guilsinglright" horiz-adv-x="324" unicode="›"/>
<glyph d="M308 715h84l-540 -715h-84z" glyph-name="fraction" horiz-adv-x="160" unicode="⁄"/>
<glyph d="M32 452h67q17 123 93 196q82 77 202 77q121 0 191.5 -62.5t82.5 -181.5h-151q-17 121 -124 121q-116 0 -137 -150h186l-12 -66h-177v-62h166l-12 -66h-151q20 -143 138 -143q113 0 131 134h149q-14 -125 -86 -192.5t-197 -67.5q-126 0 -202 76q-76 73 -90 193h-67v66h63 v62h-63v66z" glyph-name="Euro" horiz-adv-x="715" unicode="€"/>
<glyph d="M318 -11q-123 0 -192 53t-69 149q0 45 15 78h-45v66h100q40 31 127 62h-227v66h378q23 23 23 71q0 72 -94 72q-50 0 -76 -21.5t-34 -69.5h-149q19 210 259 210q114 0 181 -49.5t67 -136.5q0 -46 -13 -76h47v-66h-93q-41 -35 -113 -62h206v-66h-367q-36 -28 -36 -79 q0 -41 28 -62t77 -21q120 0 129 113h155q-6 -109 -77.5 -170t-206.5 -61z" glyph-name="uni20B4" horiz-adv-x="643" unicode="₴"/>
<glyph d="M24 649v66h537v-66h-537zM211 459h-187v127h537v-127h-187v-459h-163v459z" glyph-name="uni20B8" horiz-adv-x="585" unicode="₸"/>
<glyph d="M364 373q122 0 122 109v4q0 106 -121 106h-82v-219h81zM283 135v-135h-162v135h-97v66h97v62h-97v66h97v386h247q133 0 203.5 -57.5t70.5 -170.5v-4q0 -111 -71 -167.5t-197 -56.5h-91v-58h219v-66h-219z" glyph-name="uni20BD" horiz-adv-x="671" unicode="₽"/>
<glyph d="M921 332q-87 0 -144 51.5t-57 138.5v6q0 88 57 141.5t145 53.5q86 0 143 -52.5t57 -139.5v-5q0 -88 -57 -141t-144 -53zM922 424q38 0 58 26.5t20 74.5v5q0 102 -78 102q-38 0 -58.5 -26t-20.5 -74v-5q0 -103 79 -103zM77 715h188l238 -464v464h144v-715h-162l-264 501 v-501h-144v715zM734 266h374v-85h-374v85z" glyph-name="uni2116" horiz-adv-x="1149" unicode="№"/>
<glyph d="M348 715h109l70 -183l71 183h111v-322h-89v208l-84 -208h-28l-83 208v-208h-77v322zM125 645h-88v70h265v-70h-88v-252h-89v252z" glyph-name="trademark" horiz-adv-x="756" unicode="™"/>
<glyph d="M209 357q0 -178 151 -279v-78h-316v121h121q-52 34 -87.5 101.5t-35.5 145.5v6q0 146 102 248.5t267 102.5q167 0 268 -99.5t101 -248.5v-7q0 -83 -35.5 -148t-87.5 -101h121v-121h-316v78q151 94 151 279v8q0 103 -52 168t-150 65t-150 -64t-52 -169v-8z" glyph-name="Omega" horiz-adv-x="822" unicode="Ω"/>
<glyph d="M112 610l-82 -49v89l97 65h95v-363h-110v258zM599 715h84l-540 -715h-84zM605 -6q-74 0 -116 35q-37 34 -39 91h96q5 -49 53 -49t48 41t-50 41h-29v64h28q49 0 49 40q0 36 -40 36q-43 0 -49 -45h-96q4 55 42 88t105 33q66 0 103.5 -27t37.5 -73q0 -60 -64 -78 q33 -6 53 -28t20 -54q0 -53 -39.5 -84t-112.5 -31z" glyph-name="onethird" horiz-adv-x="792" unicode="⅓"/>
<glyph d="M658 715h84l-540 -715h-84zM15 366l128 134q33 34 48 56t15 44q0 39 -38 39q-40 0 -47 -57h-99q3 67 42.5 102.5t108.5 35.5q67 0 103 -31t36 -82q0 -36 -18 -65.5t-54 -63.5l-49 -48h124v-78h-300v14zM639 -6q-74 0 -116 35q-37 34 -39 91h96q5 -49 53 -49t48 41t-50 41 h-29v64h28q49 0 49 40q0 36 -40 36q-43 0 -49 -45h-96q4 55 42 88t105 33q66 0 103.5 -27t37.5 -73q0 -60 -64 -78q33 -6 53 -28t20 -54q0 -53 -39.5 -84t-112.5 -31z" glyph-name="twothirds" horiz-adv-x="836" unicode="⅔"/>
<glyph d="M112 610l-82 -49v89l97 65h95v-363h-110v258zM594 715h84l-540 -715h-84zM597 -6q-73 0 -114.5 28t-41.5 80q0 67 67 90q-52 21 -52 75q0 49 42 75q40 27 100 27q62 0 101.5 -26.5t39.5 -75.5q0 -53 -52 -74q66 -23 66 -87q0 -53 -41.5 -82.5t-114.5 -29.5zM597 69 q22 0 35.5 12.5t13.5 33.5q0 20 -13.5 32.5t-35.5 12.5q-21 0 -35 -12.5t-14 -33.5t14 -33t35 -12zM598 219q18 0 30 10.5t12 28.5t-12 28.5t-30 10.5t-30.5 -11t-12.5 -28t12.5 -28t30.5 -11z" glyph-name="oneeighth" horiz-adv-x="785" unicode="⅛"/>
<glyph d="M180 345q-74 0 -116 35q-37 34 -39 91h96q5 -49 53 -49t48 41t-50 41h-29v64h28q49 0 49 40q0 36 -40 36q-43 0 -49 -45h-96q4 55 42 88t105 33q66 0 103.5 -27t37.5 -73q0 -60 -64 -78q33 -6 53 -28t20 -54q0 -53 -39.5 -84t-112.5 -31zM642 715h84l-540 -715h-84z M634 -6q-73 0 -114.5 28t-41.5 80q0 67 67 90q-52 21 -52 75q0 49 42 75q40 27 100 27q62 0 101.5 -26.5t39.5 -75.5q0 -53 -52 -74q66 -23 66 -87q0 -53 -41.5 -82.5t-114.5 -29.5zM634 69q22 0 35.5 12.5t13.5 33.5q0 20 -13.5 32.5t-35.5 12.5q-21 0 -35 -12.5t-14 -33.5 t14 -33t35 -12zM635 219q18 0 30 10.5t12 28.5t-12 28.5t-30 10.5t-30.5 -11t-12.5 -28t12.5 -28t30.5 -11z" glyph-name="threeeighths" horiz-adv-x="822" unicode="⅜"/>
<glyph d="M176 345q-72 0 -108.5 32t-38.5 86h99q3 -19 13 -28.5t33 -9.5q21 0 32.5 13.5t11.5 37.5q0 49 -46 49q-35 0 -51 -26h-78l8 216h255v-78h-178l-3 -84q29 41 90 41q52 0 82 -30.5t30 -86.5q0 -61 -40 -96.5t-111 -35.5zM630 715h84l-540 -715h-84zM623 -6 q-73 0 -114.5 28t-41.5 80q0 67 67 90q-52 21 -52 75q0 49 42 75q40 27 100 27q62 0 101.5 -26.5t39.5 -75.5q0 -53 -52 -74q66 -23 66 -87q0 -53 -41.5 -82.5t-114.5 -29.5zM623 69q22 0 35.5 12.5t13.5 33.5q0 20 -13.5 32.5t-35.5 12.5q-21 0 -35 -12.5t-14 -33.5t14 -33 t35 -12zM624 219q18 0 30 10.5t12 28.5t-12 28.5t-30 10.5t-30.5 -11t-12.5 -28t12.5 -28t30.5 -11z" glyph-name="fiveeighths" horiz-adv-x="810" unicode="⅝"/>
<glyph d="M581 715h84l-540 -715h-84zM179 629h-152v86h288v-11l-132 -352h-109zM593 -6q-73 0 -114.5 28t-41.5 80q0 67 67 90q-52 21 -52 75q0 49 42 75q40 27 100 27q62 0 101.5 -26.5t39.5 -75.5q0 -53 -52 -74q66 -23 66 -87q0 -53 -41.5 -82.5t-114.5 -29.5zM593 69 q22 0 35.5 12.5t13.5 33.5q0 20 -13.5 32.5t-35.5 12.5q-21 0 -35 -12.5t-14 -33.5t14 -33t35 -12zM594 219q18 0 30 10.5t12 28.5t-12 28.5t-30 10.5t-30.5 -11t-12.5 -28t12.5 -28t30.5 -11z" glyph-name="seveneighths" horiz-adv-x="781" unicode="⅞"/>
<glyph d="M28 20l226 695h225l223 -695v-20h-674v20zM209 127h297l-148 475z" glyph-name="Delta" horiz-adv-x="730" unicode="∆"/>
<glyph d="M43 397h479v-113h-479v113z" glyph-name="minus" horiz-adv-x="565" unicode="−"/>
<glyph d="M46 137q6 81 43 120q34 37 86 37q45 0 114 -21t93 -21q39 0 45 45h88q-4 -77 -41 -117q-35 -39 -86 -39q-48 0 -115 21q-80 20 -93 20q-39 0 -46 -45h-88zM46 342q6 80 43 119q34 37 86 37q34 0 114 -20q69 -21 93 -21q39 0 45 44h88q-4 -77 -41 -117q-35 -39 -86 -39 q-48 0 -115 21q-69 21 -93 21q-39 0 -46 -45h-88z" glyph-name="approxequal" horiz-adv-x="561" unicode="≈"/>
<glyph d="M45 472h233l39 99h101l-39 -99h118v-104h-158l-33 -87h191v-103h-231l-38 -99h-101l38 99h-120v103h160l33 87h-193v104z" glyph-name="notequal" horiz-adv-x="542" unicode="≠"/>
<glyph d="M52 352v29l408 218v-130l-200 -102l200 -101v-132zM52 100h408v-100h-408v100z" glyph-name="lessequal" horiz-adv-x="521" unicode="≤"/>
<glyph d="M62 266l200 101l-200 102v130l408 -218v-29l-408 -218v132zM62 100h408v-100h-408v100z" glyph-name="greaterequal" horiz-adv-x="521" unicode="≥"/>
<glyph d="M294 560h148q159 0 159 -132v-3q0 -63 -40 -95t-114 -32h-45v-139h-108v401zM438 371q61 0 61 54v3q0 50 -61 50h-36v-107h36zM427 32q133 0 226 90q95 92 95 237q0 141 -93 234q-93 90 -226 90q-137 0 -228 -91q-94 -91 -94 -235t96 -235q90 -90 224 -90zM427 -16 q-159 0 -267 108q-110 108 -110 265q0 155 110 265q109 109 269 109q159 0 269 -108q108 -110 108 -264q0 -159 -110 -267q-111 -108 -269 -108z" glyph-name="uni24C5" horiz-adv-x="855" unicode="Ⓟ"/>
<glyph d="M309 115q57 0 81 39t24 132v145q0 88 -25 129t-82 41t-83 -41t-26 -132v-143q0 -91 27 -130.5t84 -39.5zM306 -11q-122 0 -191.5 76t-69.5 219v143q0 144 73 223q69 75 189 75q121 0 188 -72q72 -77 72 -220v-145q0 -145 -68.5 -222t-192.5 -77z" glyph-name="zero.tab" unicode=""/>
<glyph d="M281 554l-184 -133v138l199 156h147v-715h-162v554z" glyph-name="one.tab" unicode=""/>
<glyph d="M36 26l244 276q57 67 83.5 113.5t26.5 93.5q0 93 -86 93q-46 0 -70.5 -30.5t-31.5 -101.5h-148q6 121 68 186q64 69 187 69q116 0 178.5 -56t62.5 -153q0 -64 -41 -135q-31 -54 -102 -128l-127 -127h271v-126h-515v26z" glyph-name="two.tab" unicode=""/>
<glyph d="M304 -11q-129 0 -196.5 62t-72.5 176h143q8 -118 120 -118q111 0 111 102q0 103 -109 103h-56v108h54q104 0 104 94q0 40 -23.5 64t-69.5 24q-48 0 -77.5 -28t-34.5 -79h-140q6 105 72 165q69 63 183 63q108 0 175 -54q62 -54 62 -140q0 -115 -115 -155 q62 -15 97.5 -57.5t35.5 -109.5q0 -103 -69.5 -161.5t-193.5 -58.5z" glyph-name="three.tab" unicode=""/>
<glyph d="M352 142h-319v54l278 519h187v-462h76v-111h-76v-142h-146v142zM354 253v337l-177 -337h177z" glyph-name="four.tab" unicode=""/>
<glyph d="M297 -11q-242 0 -253 226h142q6 -52 29 -73q25 -27 81 -27q52 0 79.5 33.5t27.5 94.5q0 57 -30 89.5t-83 32.5q-84 0 -129 -58h-87l9 408h435v-123h-318l-3 -182q54 67 151 67t154 -62q57 -65 57 -172q0 -117 -71 -186q-70 -68 -191 -68z" glyph-name="five.tab" unicode=""/>
<glyph d="M317 -11q-140 0 -210 91q-63 82 -63 233v48q0 174 81 271q78 93 209 93q101 0 160.5 -49t67.5 -149h-139q-9 40 -29.5 60t-61.5 20q-65 0 -101 -57.5t-38 -172.5q51 87 161 87q95 0 157 -60q62 -62 62 -168q0 -113 -68 -179q-70 -68 -188 -68zM315 109q51 0 82.5 34 t31.5 89q0 57 -31.5 90.5t-83.5 33.5t-85.5 -32t-33.5 -85q0 -62 33 -96t87 -34z" glyph-name="six.tab" unicode=""/>
<glyph d="M364 586h-308v129h509v-18l-265 -697h-163z" glyph-name="seven.tab" unicode=""/>
<glyph d="M306 -11q-116 0 -186 54q-77 58 -77 159q0 129 125 179q-98 43 -98 148q0 88 72 145q68 51 166 51q99 0 167 -51q69 -53 69 -144q0 -102 -99 -148q60 -22 92.5 -67t32.5 -109q0 -102 -75 -161q-73 -56 -189 -56zM307 110q50 0 82 29t32 79q0 51 -31.5 79.5t-81.5 28.5 t-83 -28.5t-33 -80.5q0 -51 34 -79q31 -28 81 -28zM309 426q43 0 70 25t27 68q0 41 -27.5 66t-70.5 25q-42 0 -70 -25t-28 -66q0 -43 28 -68t71 -25z" glyph-name="eight.tab" unicode=""/>
<glyph d="M288 -10q-224 0 -244 203h140q18 -85 102 -85q69 0 101 55t34 174q-54 -86 -163 -86q-97 0 -156 59q-63 63 -63 168q0 112 68 180q70 68 188 68q136 0 204.5 -82.5t68.5 -239.5v-62q0 -170 -72.5 -261t-207.5 -91zM298 360q53 0 86 31.5t33 84.5q0 61 -33 96t-87 35 q-51 0 -82.5 -33.5t-31.5 -89.5q0 -57 31.5 -90.5t83.5 -33.5z" glyph-name="nine.tab" unicode=""/>
<glyph d="M286 -9q-108 11 -172 78q-68 70 -68 186v8q0 113 69 188q67 70 171 82v96h71v-96q87 -8 144 -55q62 -55 69 -146h-134q-10 73 -79 91v-328q81 19 88 104h128q-5 -88 -62.5 -143.5t-153.5 -64.5v-126h-71v126zM190 257q0 -134 96 -160v325q-45 -12 -70.5 -52.5 t-25.5 -104.5v-8z" glyph-name="cent.tab" unicode=""/>
<glyph d="M273 -10q-117 7 -182 74q-58 58 -64 159h142q5 -50 26 -76q25 -35 78 -42v194q-118 19 -170 68q-56 50 -56 147q0 88 62 145q62 58 164 65v89h70v-90q203 -18 222 -209h-138q-14 79 -84 94v-179q119 -20 171 -63q62 -51 62 -150q0 -92 -59 -153q-64 -66 -174 -73v-125 h-70v125zM433 200q0 37 -19 56t-71 31v-182q43 8 66.5 33t23.5 62zM184 527q0 -36 18 -54q16 -20 71 -32v169q-44 -6 -66.5 -28t-22.5 -55z" glyph-name="dollar.tab" unicode=""/>
<glyph d="M19 453h53q6 127 76 200q67 72 181 72q217 0 233 -232h-135q-6 58 -29.5 85.5t-68.5 27.5q-106 0 -113 -153h173l-12 -67h-161v-61h150l-12 -66h-138q4 -78 31 -113.5t84 -35.5q48 0 73 29t32 94h133q-7 -122 -69 -183t-174 -61q-114 0 -180.5 70t-73.5 200h-53v66h53v61 h-53v67z" glyph-name="Euro.tab" unicode=""/>
<glyph d="M262 -11q-94 0 -156 68q-67 72 -67 197v8q0 124 67 201q63 72 160 72q107 0 159 -89v77h144v-523h-144v85q-22 -41 -65.5 -68.5t-97.5 -27.5zM304 102q56 0 90.5 40t34.5 117v8q0 78 -32 117.5t-88 39.5q-58 0 -90 -41t-32 -118v-8q0 -76 32 -115.5t85 -39.5z" glyph-name="a.alt" horiz-adv-x="639" unicode=""/>
<glyph d="M100 420h-75v103h75v113h145v-113h102v-103h-102v-420h-145v420z" glyph-name="t.alt" horiz-adv-x="376" unicode=""/>
<glyph d="M94 420h-69v103h69v60q0 91 48.5 137t137.5 46q45 0 71 -9v-109q-21 8 -49 8q-64 0 -64 -69v-64h113v-103h-113v-420h-144v420zM510 594q-35 0 -58.5 22.5t-23.5 56.5t23.5 56.5t58.5 22.5t59 -22.5t24 -56.5t-24 -56.5t-59 -22.5zM439 523h144v-523h-144v523z" glyph-name="f_i" horiz-adv-x="647" unicode="ﬁ"/>
<glyph d="M94 420h-69v103h69v60q0 91 48.5 137t137.5 46q45 0 71 -9v-109q-21 8 -49 8q-64 0 -64 -69v-64h113v-103h-113v-420h-144v420zM439 760h144v-760h-144v760z" glyph-name="f_l" horiz-adv-x="646" unicode="ﬂ"/>
<glyph d="M295 -105q-120 0 -183 57.5t-67 159.5h137q6 -49 31.5 -75t80.5 -26q53 0 81 34.5t28 95.5q0 58 -30 91t-83 33q-84 0 -129 -58h-83l8 412h425v-120h-312l-3 -190q50 65 150 65q93 0 149 -61.5t56 -166.5q0 -116 -69.5 -183.5t-186.5 -67.5z" glyph-name="five.oldtab" horiz-adv-x="600"/>
<glyph d="M392 420h-184v-420h-143v523h470v-523h-143v420z" glyph-name="uni043F.locl" horiz-adv-x="600"/>
<glyph d="M262 -11q-94 0 -156 68q-67 72 -67 197v8q0 124 67 201q63 72 160 72q107 0 159 -89v77h144v-523h-144v85q-22 -41 -65.5 -68.5t-97.5 -27.5zM304 102q56 0 90.5 40t34.5 117v8q0 78 -32 117.5t-88 39.5q-58 0 -90 -41t-32 -118v-8q0 -76 32 -115.5t85 -39.5zM219 600 q-31 0 -52.5 21t-21.5 51t21.5 51t52.5 21t52.5 -21t21.5 -51t-21.5 -51t-52.5 -21zM423 600q-31 0 -52.5 21t-21.5 51t21.5 51t52.5 21t52.5 -21t21.5 -51t-21.5 -51t-52.5 -21z" glyph-name="adieresis.alt" horiz-adv-x="639"/>
<glyph d="M262 -11q-94 0 -156 68q-67 72 -67 197v8q0 124 67 201q63 72 160 72q107 0 159 -89v77h144v-523h-144v85q-22 -41 -65.5 -68.5t-97.5 -27.5zM304 102q56 0 90.5 40t34.5 117v8q0 78 -32 117.5t-88 39.5q-58 0 -90 -41t-32 -118v-8q0 -76 32 -115.5t85 -39.5zM267 751 h109l114 -156h-102l-69 63l-70 -63h-99z" glyph-name="acircumflex.alt" horiz-adv-x="639"/>
<glyph d="M262 -11q-94 0 -156 68q-67 72 -67 197v8q0 124 67 201q63 72 160 72q107 0 159 -89v77h144v-523h-144v85q-22 -41 -65.5 -68.5t-97.5 -27.5zM304 102q56 0 90.5 40t34.5 117v8q0 78 -32 117.5t-88 39.5q-58 0 -90 -41t-32 -118v-8q0 -76 32 -115.5t85 -39.5zM319 598 q-66 0 -107 40t-45 109h95q7 -54 57 -54t61 54h93q-4 -68 -46.5 -108.5t-107.5 -40.5z" glyph-name="abreve.alt" horiz-adv-x="627"/>
<glyph d="M262 -11q-94 0 -156 68q-67 72 -67 197v8q0 124 67 201q63 72 160 72q107 0 159 -89v77h144v-523h-144v85q-22 -41 -65.5 -68.5t-97.5 -27.5zM304 102q56 0 90.5 40t34.5 117v8q0 78 -32 117.5t-88 39.5q-58 0 -90 -41t-32 -118v-8q0 -76 32 -115.5t85 -39.5zM318 753 h152l-104 -159h-105z" glyph-name="aacute.alt" horiz-adv-x="639"/>
<glyph d="M262 -11q-94 0 -156 68q-67 72 -67 197v8q0 124 67 201q63 72 160 72q107 0 159 -89v77h144v-523h-144v85q-22 -41 -65.5 -68.5t-97.5 -27.5zM304 102q56 0 90.5 40t34.5 117v8q0 78 -32 117.5t-88 39.5q-58 0 -90 -41t-32 -118v-8q0 -76 32 -115.5t85 -39.5zM174 712 h291v-87h-291v87z" glyph-name="amacron.alt" horiz-adv-x="627"/>
<glyph d="M490 -182q-51 0 -81.5 21.5t-30.5 59.5q0 60 83 101h-42v85q-22 -41 -65.5 -68.5t-97.5 -27.5q-94 0 -158.5 70.5t-64.5 194.5v8q0 125 65.5 199t161.5 74q107 0 159 -89v77h144v-514q-64 -42 -64 -80q0 -31 33 -31q24 0 38 7v-72q-32 -15 -80 -15zM298 102q56 0 90.5 40 t34.5 117v8q0 78 -32 117.5t-88 39.5q-58 0 -90 -41t-32 -118v-8q0 -76 32 -115.5t85 -39.5z" glyph-name="aogonek.alt" horiz-adv-x="627"/>
<glyph d="M43 633h277v-78h-277v78z" glyph-name="minus.sup" horiz-adv-x="363"/>
<glyph d="M141 555h-98v78h98v102h80v-102h99v-78h-99v-101h-80v101z" glyph-name="plus.sup" horiz-adv-x="363"/>
<glyph d="M179 403q-65 0 -102.5 29t-42.5 81h100q7 -31 44 -31q58 0 60 94q-30 -40 -83 -40q-56 0 -91 28.5t-35 85.5q0 58 40.5 93t111.5 35q82 0 124 -47.5t42 -129.5v-13q0 -88 -43.5 -136.5t-124.5 -48.5zM181 601q23 0 36.5 14t13.5 35q0 25 -13.5 40t-36.5 15q-22 0 -35 -15 t-13 -38q0 -24 12.5 -37.5t35.5 -13.5z" glyph-name="nine.sup" horiz-adv-x="378"/>
<glyph d="M184 403q-73 0 -114.5 28t-41.5 80q0 67 67 90q-52 21 -52 75q0 49 42 75q40 27 100 27q62 0 101.5 -26.5t39.5 -75.5q0 -53 -52 -74q66 -22 66 -87q0 -53 -41.5 -82.5t-114.5 -29.5zM184 478q22 0 35.5 12.5t13.5 33.5q0 20 -13.5 32.5t-35.5 12.5q-21 0 -35 -12.5 t-14 -33.5t14 -33t35 -12zM185 628q18 0 30 10.5t12 28.5t-12 28.5t-30 10.5t-30.5 -11t-12.5 -28t12.5 -28t30.5 -11z" glyph-name="eight.sup" horiz-adv-x="368"/>
<glyph d="M176 687h-152v86h288v-11l-132 -352h-109z" glyph-name="seven.sup" horiz-adv-x="328"/>
<glyph d="M196 403q-87 0 -126 50q-38 45 -38 129v10q0 87 48 137q44 49 122 49q128 0 139 -108h-99q-7 30 -39 30q-58 0 -63 -97q29 42 87 42q53 0 87 -28q35 -32 35 -86q0 -58 -41 -93t-112 -35zM195 477q22 0 35.5 14.5t13.5 37.5q0 24 -13 38t-36 14t-36 -14t-13 -36 q0 -25 13.5 -39.5t35.5 -14.5z" glyph-name="six.sup" horiz-adv-x="378"/>
<glyph d="M173 403q-72 0 -108.5 32t-38.5 86h99q3 -19 13 -28.5t33 -9.5q21 0 32.5 13.5t11.5 37.5q0 49 -46 49q-35 0 -51 -26h-78l8 216h255v-78h-178l-3 -84q29 41 90 41q52 0 82 -30.5t30 -86.5q0 -61 -40 -96.5t-111 -35.5z" glyph-name="five.sup" horiz-adv-x="356"/>
<glyph d="M201 479h-181v40l155 254h131v-221h47v-73h-47v-69h-105v69zM204 552v147l-85 -147h85z" glyph-name="four.sup" horiz-adv-x="379"/>
<glyph d="M94 420h-69v103h69v60q0 91 48.5 137t137.5 46q45 0 71 -9v-109q-21 8 -49 8q-64 0 -64 -69v-64h113v-103h-113v-420h-144v420z" glyph-name="f.short" horiz-adv-x="372"/>
<glyph d="M94 420h-69v103h69v54q0 90 48.5 136.5t137.5 46.5q38 0 74 -11v-108q-30 8 -52 8q-64 0 -64 -69v-57h171v60q0 91 48.5 137t137.5 46q45 0 71 -9v-109q-24 8 -49 8q-64 0 -64 -69v-64h113v-103h-113v-420h-144v420h-171v-420h-144v420z" glyph-name="f_f.short" horiz-adv-x="687"/>
<glyph d="M180 403q-74 0 -116 35q-37 34 -39 91h96q5 -49 53 -49t48 41t-50 41h-29v64h28q49 0 49 40q0 36 -40 36q-43 0 -49 -45h-96q4 55 42 88t105 33q66 0 103.5 -27t37.5 -73q0 -60 -64 -78q33 -6 53 -28t20 -54q0 -53 -39.5 -84t-112.5 -31z" glyph-name="three.sup" horiz-adv-x="363"/>
<glyph d="M12 424l128 134q33 34 48 56t15 44q0 39 -38 39q-40 0 -47 -57h-99q3 67 42.5 102.5t108.5 35.5q67 0 103 -31t36 -82q0 -36 -18 -65.5t-54 -63.5l-49 -48h124v-78h-300v14z" glyph-name="two.sup" horiz-adv-x="341"/>
<glyph d="M109 668l-82 -49v89l97 65h95v-363h-110v258z" glyph-name="one.sup" horiz-adv-x="279"/>
<glyph d="M204 487q63 0 63 100v10q0 99 -64 99q-62 0 -62 -100v-9q0 -100 63 -100zM202 403q-81 0 -125.5 48.5t-44.5 134.5v10q0 85 47.5 133.5t124.5 48.5q75 0 123 -45q49 -49 49 -135v-9q0 -87 -46.5 -136.5t-127.5 -49.5z" glyph-name="zero.sup" horiz-adv-x="408"/>
<glyph d="M43 116h277v-78h-277v78z" glyph-name="minus.sub" horiz-adv-x="363"/>
<glyph d="M141 38h-98v78h98v102h80v-102h99v-78h-99v-101h-80v101z" glyph-name="plus.sub" horiz-adv-x="363"/>
<glyph d="M179 -114q-65 0 -102.5 29t-42.5 81h100q7 -31 44 -31q58 0 60 94q-30 -40 -83 -40q-56 0 -91 28.5t-35 85.5q0 58 40.5 93t111.5 35q82 0 124 -47.5t42 -129.5v-13q0 -88 -43.5 -136.5t-124.5 -48.5zM181 84q23 0 36.5 14t13.5 35q0 25 -13.5 40t-36.5 15q-22 0 -35 -15 t-13 -38q0 -24 12.5 -37.5t35.5 -13.5z" glyph-name="nine.sub" horiz-adv-x="378"/>
<glyph d="M184 -114q-73 0 -114.5 28t-41.5 80q0 67 67 90q-52 21 -52 75q0 49 42 75q40 27 100 27q62 0 101.5 -26.5t39.5 -75.5q0 -53 -52 -74q66 -23 66 -87q0 -53 -41.5 -82.5t-114.5 -29.5zM184 -39q22 0 35.5 12.5t13.5 33.5q0 20 -13.5 32.5t-35.5 12.5q-21 0 -35 -12.5 t-14 -33.5t14 -33t35 -12zM185 111q18 0 30 10.5t12 28.5t-12 28.5t-30 10.5t-30.5 -11t-12.5 -28t12.5 -28t30.5 -11z" glyph-name="eight.sub" horiz-adv-x="368"/>
<glyph d="M176 169h-152v86h288v-11l-132 -352h-109z" glyph-name="seven.sub" horiz-adv-x="328"/>
<glyph d="M196 -114q-87 0 -126 50q-38 45 -38 129v10q0 87 48 137q44 49 122 49q128 0 139 -108h-99q-7 30 -39 30q-58 0 -63 -97q29 42 87 42q53 0 87 -28q35 -32 35 -86q0 -58 -41 -93t-112 -35zM195 -40q22 0 35.5 14.5t13.5 37.5q0 24 -13 38t-36 14t-36 -14t-13 -36 q0 -25 13.5 -39.5t35.5 -14.5z" glyph-name="six.sub" horiz-adv-x="378"/>
<glyph d="M173 -114q-72 0 -108.5 32t-38.5 86h99q3 -19 13 -28.5t33 -9.5q21 0 32.5 13.5t11.5 37.5q0 49 -46 49q-35 0 -51 -26h-78l8 216h255v-78h-178l-3 -84q29 41 90 41q52 0 82 -30.5t30 -86.5q0 -61 -40 -96.5t-111 -35.5z" glyph-name="five.sub" horiz-adv-x="356"/>
<glyph d="M201 -39h-181v40l155 254h131v-221h47v-73h-47v-69h-105v69zM204 34v147l-85 -147h85z" glyph-name="four.sub" horiz-adv-x="379"/>
<glyph d="M180 -114q-74 0 -116 35q-37 34 -39 91h96q5 -49 53 -49t48 41t-50 41h-29v64h28q49 0 49 40q0 36 -40 36q-43 0 -49 -45h-96q4 55 42 88t105 33q66 0 103.5 -27t37.5 -73q0 -60 -64 -78q33 -6 53 -28t20 -54q0 -53 -39.5 -84t-112.5 -31z" glyph-name="three.sub" horiz-adv-x="363"/>
<glyph d="M12 -94l128 134q33 34 48 56t15 44q0 39 -38 39q-40 0 -47 -57h-99q3 67 42.5 102.5t108.5 35.5q67 0 103 -31t36 -82q0 -36 -18 -65.5t-54 -63.5l-49 -48h124v-78h-300v14z" glyph-name="two.sub" horiz-adv-x="341"/>
<glyph d="M109 150l-82 -49v89l97 65h95v-363h-110v258z" glyph-name="one.sub" horiz-adv-x="279"/>
<glyph d="M204 -30q63 0 63 100v10q0 99 -64 99q-62 0 -62 -100v-9q0 -100 63 -100zM202 -114q-81 0 -125.5 48.5t-44.5 134.5v10q0 85 47.5 133.5t124.5 48.5q75 0 123 -45q49 -49 49 -135v-9q0 -87 -46.5 -136.5t-127.5 -49.5z" glyph-name="zero.sub" horiz-adv-x="408"/>
<glyph d="M179 -6q-65 0 -102.5 29t-42.5 81h100q7 -31 44 -31q58 0 60 94q-30 -40 -83 -40q-56 0 -91 28.5t-35 85.5q0 58 40.5 93t111.5 35q82 0 124 -47.5t42 -129.5v-13q0 -88 -43.5 -136.5t-124.5 -48.5zM181 192q23 0 36.5 14t13.5 35q0 25 -13.5 40t-36.5 15q-22 0 -35 -15 t-13 -38q0 -24 12.5 -37.5t35.5 -13.5z" glyph-name="nine.den" horiz-adv-x="378"/>
<glyph d="M184 -6q-73 0 -114.5 28t-41.5 80q0 67 67 90q-52 21 -52 75q0 49 42 75q40 27 100 27q62 0 101.5 -26.5t39.5 -75.5q0 -53 -52 -74q66 -23 66 -87q0 -53 -41.5 -82.5t-114.5 -29.5zM184 69q22 0 35.5 12.5t13.5 33.5q0 20 -13.5 32.5t-35.5 12.5q-21 0 -35 -12.5 t-14 -33.5t14 -33t35 -12zM185 219q18 0 30 10.5t12 28.5t-12 28.5t-30 10.5t-30.5 -11t-12.5 -28t12.5 -28t30.5 -11z" glyph-name="eight.den" horiz-adv-x="368"/>
<glyph d="M176 277h-152v86h288v-11l-132 -352h-109z" glyph-name="seven.den" horiz-adv-x="328"/>
<glyph d="M196 -6q-87 0 -126 50q-38 45 -38 129v10q0 87 48 137q44 49 122 49q128 0 139 -108h-99q-7 30 -39 30q-58 0 -63 -97q29 42 87 42q53 0 87 -28q35 -32 35 -86q0 -58 -41 -93t-112 -35zM195 68q22 0 35.5 14.5t13.5 37.5q0 24 -13 38t-36 14t-36 -14t-13 -36 q0 -25 13.5 -39.5t35.5 -14.5z" glyph-name="six.den" horiz-adv-x="378"/>
<glyph d="M173 -6q-72 0 -108.5 32t-38.5 86h99q3 -19 13 -28.5t33 -9.5q21 0 32.5 13.5t11.5 37.5q0 49 -46 49q-35 0 -51 -26h-78l8 216h255v-78h-178l-3 -84q29 41 90 41q52 0 82 -30.5t30 -86.5q0 -61 -40 -96.5t-111 -35.5z" glyph-name="five.den" horiz-adv-x="356"/>
<glyph d="M201 69h-181v40l155 254h131v-221h47v-73h-47v-69h-105v69zM204 142v147l-85 -147h85z" glyph-name="four.den" horiz-adv-x="379"/>
<glyph d="M180 -6q-74 0 -116 35q-37 34 -39 91h96q5 -49 53 -49t48 41t-50 41h-29v64h28q49 0 49 40q0 36 -40 36q-43 0 -49 -45h-96q4 55 42 88t105 33q66 0 103.5 -27t37.5 -73q0 -60 -64 -78q33 -6 53 -28t20 -54q0 -53 -39.5 -84t-112.5 -31z" glyph-name="three.den" horiz-adv-x="363"/>
<glyph d="M12 14l128 134q33 34 48 56t15 44q0 39 -38 39q-40 0 -47 -57h-99q3 67 42.5 102.5t108.5 35.5q67 0 103 -31t36 -82q0 -36 -18 -65.5t-54 -63.5l-49 -48h124v-78h-300v14z" glyph-name="two.den" horiz-adv-x="341"/>
<glyph d="M109 258l-82 -49v89l97 65h95v-363h-110v258z" glyph-name="one.den" horiz-adv-x="279"/>
<glyph d="M204 78q63 0 63 100v10q0 99 -64 99q-62 0 -62 -100v-9q0 -100 63 -100zM202 -6q-81 0 -125.5 48.5t-44.5 134.5v10q0 85 47.5 133.5t124.5 48.5q75 0 123 -45q49 -49 49 -135v-9q0 -87 -46.5 -136.5t-127.5 -49.5z" glyph-name="zero.den" horiz-adv-x="408"/>
<glyph d="M179 345q-65 0 -102.5 29t-42.5 81h100q7 -31 44 -31q58 0 60 94q-30 -40 -83 -40q-56 0 -91 28.5t-35 85.5q0 58 40.5 93t111.5 35q82 0 124 -47.5t42 -129.5v-13q0 -88 -43.5 -136.5t-124.5 -48.5zM181 543q23 0 36.5 14t13.5 35q0 25 -13.5 40t-36.5 15q-22 0 -35 -15 t-13 -38q0 -24 12.5 -37.5t35.5 -13.5z" glyph-name="nine.num" horiz-adv-x="377"/>
<glyph d="M244 -11q-80 0 -127 47q-51 51 -51 150v337h144v-317q0 -105 91 -105q48 0 78.5 29.5t30.5 85.5v307h144v-523h-144v82q-47 -93 -166 -93zM160 753h152l57 -159h-105z" glyph-name="uni045D.bgr"/>
<glyph d="M184 345q-73 0 -114.5 28t-41.5 80q0 67 67 90q-52 21 -52 75q0 49 42 75q40 27 100 27q62 0 101.5 -26.5t39.5 -75.5q0 -53 -52 -74q66 -22 66 -87q0 -53 -41.5 -82.5t-114.5 -29.5zM184 420q22 0 35.5 12.5t13.5 33.5q0 20 -13.5 32.5t-35.5 12.5q-21 0 -35 -12.5 t-14 -33.5t14 -33t35 -12zM185 570q18 0 30 10.5t12 28.5t-12 28.5t-30 10.5t-30.5 -11t-12.5 -28t12.5 -28t30.5 -11z" glyph-name="eight.num" horiz-adv-x="368"/>
<glyph d="M262 -11q-94 0 -156 68q-67 72 -67 197v8q0 124 67 201q63 72 160 72q107 0 159 -89v77h144v-523h-144v85q-22 -41 -65.5 -68.5t-97.5 -27.5zM304 102q56 0 90.5 40t34.5 117v8q0 78 -32 117.5t-88 39.5q-58 0 -90 -41t-32 -118v-8q0 -76 32 -115.5t85 -39.5zM317 643 q21 0 35 15t14 38t-14 38.5t-35 15.5q-22 0 -35.5 -15.5t-13.5 -38.5t13.5 -38t35.5 -15zM317 585q-46 0 -81 33q-34 32 -34 78q0 47 34 79q35 33 81 33t81 -33q34 -32 34 -79q0 -46 -34 -78q-35 -33 -81 -33z" glyph-name="aring.alt" horiz-adv-x="639"/>
<glyph d="M309 -11q-118 0 -185.5 51.5t-67.5 144.5q0 39 14 75h-43v65h96q40 29 125 60h-221v64h367q22 25 22 69q0 70 -92 70q-48 0 -73 -21.5t-33 -67.5h-144q18 204 250 204q111 0 176 -48t65 -132q0 -41 -12 -74h46v-64h-91q-40 -35 -108 -60h199v-65h-357q-35 -26 -35 -76 q0 -80 102 -80q64 0 91.5 28.5t34.5 80.5h150q-6 -106 -75 -165t-201 -59z" glyph-name="uni20B4.old" horiz-adv-x="625"/>
<glyph d="M296 -11q-114 0 -179 51.5t-65 144.5q0 42 14 75h-43v65h94q41 31 120 60h-214v64h356q21 25 21 69q0 70 -90 70q-45 0 -70 -21.5t-33 -67.5h-138q8 102 69.5 153t171.5 51q107 0 170 -48t63 -132q0 -41 -12 -74h44v-64h-87q-38 -35 -105 -60h192v-65h-344 q-34 -27 -34 -76q0 -80 99 -80q62 0 89 29t34 80h143q-6 -106 -73 -165t-193 -59z" glyph-name="uni20B4.oldtab" horiz-adv-x="600"/>
<glyph d="M296 -11q-111 0 -174 53t-63 149q0 45 14 78h-41v66h90q36 31 115 62h-205v66h343q19 24 19 71q0 72 -83 72q-44 0 -66.5 -21.5t-30.5 -69.5h-138q19 210 235 210q104 0 164.5 -49.5t60.5 -136.5q0 -40 -11 -76h43v-66h-85q-36 -36 -102 -62h187v-66h-333 q-31 -28 -31 -79q0 -41 24.5 -62t67.5 -21q59 0 84 30t32 83h143q-6 -109 -71 -170t-188 -61z" glyph-name="uni20B4.tab" horiz-adv-x="600"/>
<glyph d="M262 -11q-94 0 -156 68q-67 72 -67 197v8q0 124 67 201q63 72 160 72q107 0 159 -89v77h144v-523h-144v85q-22 -41 -65.5 -68.5t-97.5 -27.5zM304 102q56 0 90.5 40t34.5 117v8q0 78 -32 117.5t-88 39.5q-58 0 -90 -41t-32 -118v-8q0 -76 32 -115.5t85 -39.5zM317 632 q21 0 35 15t14 38t-14 38.5t-35 15.5q-22 0 -35.5 -15.5t-13.5 -38.5t13.5 -38t35.5 -15zM317 574q-46 0 -81 33q-34 32 -34 78q0 47 34 79q35 33 81 33t81 -33q34 -32 34 -79q0 -46 -34 -78q-35 -33 -81 -33zM320 967h157l-101 -139h-109z" glyph-name="aringacute.alt" horiz-adv-x="627"/>
<glyph d="M24 629v65h520v-65h-520zM206 446h-182v122h520v-122h-181v-446h-157v446z" glyph-name="uni20B8.old" horiz-adv-x="568"/>
<glyph d="M46 629v65h508v-65h-508zM221 446h-175v122h508v-122h-175v-446h-158v446z" glyph-name="uni20B8.oldtab" horiz-adv-x="600"/>
<glyph d="M48 647v68h504v-68h-504zM219 459h-171v127h504v-127h-170v-459h-163v459z" glyph-name="uni20B8.tab" horiz-adv-x="600"/>
<glyph d="M262 -11q-94 0 -156 68q-67 72 -67 197v8q0 124 67 201q63 72 160 72q107 0 159 -89v77h144v-523h-144v85q-22 -41 -65.5 -68.5t-97.5 -27.5zM304 102q56 0 90.5 40t34.5 117v8q0 78 -32 117.5t-88 39.5q-58 0 -90 -41t-32 -118v-8q0 -76 32 -115.5t85 -39.5zM379 598 q-28 0 -64 19l-26 13q-12 6 -23 6q-13 0 -22.5 -10.5t-12.5 -26.5h-83q5 68 34.5 104.5t75.5 36.5q21 0 64 -18q40 -19 51 -19q28 0 34 37h84q-6 -68 -37 -105t-75 -37z" glyph-name="atilde.alt" horiz-adv-x="639"/>
<glyph d="M277 131v-131h-158v131h-95v64h95v60h-95v64h95v383h242q130 0 199 -56.5t69 -167.5v-4q0 -108 -69 -163.5t-188 -55.5h-95v-60h211v-64h-211zM357 366q120 0 120 107v4q0 55 -30 79.5t-89 24.5h-81v-215h80z" glyph-name="uni20BD.old" horiz-adv-x="651"/>
<glyph d="M325 362q113 0 113 106v4q0 54 -28.5 77.5t-84.5 23.5h-70v-211h70zM255 126v-126h-147v126h-91v65h91v60h-91v64h91v379h220q122 0 187 -56t65 -166v-4q0 -108 -66 -163t-181 -55h-78v-59h192v-65h-192z" glyph-name="uni20BD.oldtab" horiz-adv-x="600"/>
<glyph d="M323 373q110 0 110 109v4q0 106 -110 106h-67v-219h67zM256 135v-135h-149v135h-90v66h90v62h-90v66h90v386h219q122 0 187 -57.5t65 -170.5v-4q0 -110 -66 -167t-181 -57h-75v-58h194v-66h-194z" glyph-name="uni20BD.tab" horiz-adv-x="600"/>
<glyph d="M176 629h-152v86h288v-11l-132 -352h-109z" glyph-name="seven.num" horiz-adv-x="328"/>
<glyph d="M196 345q-87 0 -126 50q-38 45 -38 129v10q0 87 48 137q44 49 122 49q128 0 139 -108h-99q-7 30 -39 30q-58 0 -63 -97q29 42 87 42q53 0 87 -28q35 -32 35 -86q0 -58 -41 -93t-112 -35zM195 419q22 0 35.5 14.5t13.5 37.5q0 24 -13 38t-36 14t-36 -14t-13 -36 q0 -25 13.5 -39.5t35.5 -14.5z" glyph-name="six.num" horiz-adv-x="377"/>
<glyph d="M173 345q-72 0 -108.5 32t-38.5 86h99q3 -19 13 -28.5t33 -9.5q21 0 32.5 13.5t11.5 37.5q0 49 -46 49q-35 0 -51 -26h-78l8 216h255v-78h-178l-3 -84q29 41 90 41q52 0 82 -30.5t30 -86.5q0 -61 -40 -96.5t-111 -35.5z" glyph-name="five.num" horiz-adv-x="355"/>
<glyph d="M201 421h-181v40l155 254h131v-221h47v-73h-47v-69h-105v69zM204 494v147l-85 -147h85z" glyph-name="four.num" horiz-adv-x="378"/>
<glyph d="M180 345q-74 0 -116 35q-37 34 -39 91h96q5 -49 53 -49t48 41t-50 41h-29v64h28q49 0 49 40q0 36 -40 36q-43 0 -49 -45h-96q4 55 42 88t105 33q66 0 103.5 -27t37.5 -73q0 -60 -64 -78q33 -6 53 -28t20 -54q0 -53 -39.5 -84t-112.5 -31z" glyph-name="three.num" horiz-adv-x="363"/>
<glyph d="M12 366l128 134q33 34 48 56t15 44q0 39 -38 39q-40 0 -47 -57h-99q3 67 42.5 102.5t108.5 35.5q67 0 103 -31t36 -82q0 -36 -18 -65.5t-54 -63.5l-49 -48h124v-78h-300v14z" glyph-name="two.num" horiz-adv-x="341"/>
<glyph d="M69 -201l47 170l130 -21l-95 -176zM100 420h-75v103h75v113h145v-113h102v-103h-102v-420h-145v420z" glyph-name="uni021B.alt" horiz-adv-x="364"/>
<glyph d="M483 24q0 -98 -62 -157.5t-174 -59.5q-107 0 -166 52.5t-70 135.5h144q13 -82 88 -82q94 0 94 113v5q0 56 -24.5 83.5t-80.5 27.5h-49v102h48q88 0 88 91v8q0 87 -75 87q-70 0 -79 -90h-137q17 195 222 195q98 0 155.5 -51.5t57.5 -133.5v-6q0 -53 -31.5 -93.5 t-79.5 -51.5q131 -31 131 -169v-6z" glyph-name="uni0437.bgr" horiz-adv-x="510"/>
<glyph d="M811 -127l-6 127h-90v81q-22 -41 -63 -67t-98 -26q-107 0 -146 91q-61 -91 -175 -91q-77 0 -125 50t-48 150v335h144v-319q0 -97 83 -97q43 0 72 28t29 79v309h143v-319q0 -97 83 -97q43 0 72 28.5t29 79.5v308h144v-420h73v-230h-121z" glyph-name="uni0449.bgr" horiz-adv-x="946"/>
<glyph d="M109 610l-82 -49v89l97 65h95v-363h-110v258z" glyph-name="one.num" horiz-adv-x="278"/>
<glyph d="M22 420v103h262v-170q27 5 75 4q108 0 164 -44.5t56 -129.5v-5q0 -88 -61.5 -138t-162.5 -50q-112 1 -163 53t-51 160v217h-119zM356 87q36 0 56 22t20 61v5q0 83 -88 83q-40 2 -60 -3v-78q0 -90 72 -90z" glyph-name="uni044A.bgr" horiz-adv-x="605"/>
<glyph d="M204 429q63 0 63 100v10q0 99 -64 99q-62 0 -62 -100v-9q0 -100 63 -100zM202 345q-81 0 -125.5 48.5t-44.5 134.5v10q0 85 47.5 133.5t124.5 48.5q75 0 123 -45q49 -49 49 -135v-9q0 -87 -46.5 -136.5t-127.5 -49.5z" glyph-name="zero.num" horiz-adv-x="408"/>
<glyph d="M291 267q51 0 83.5 33t32.5 87q0 62 -32.5 96.5t-84.5 34.5q-49 0 -81.5 -34.5t-32.5 -89.5q0 -59 31.5 -93t83.5 -34zM281 -106q-107 0 -168 52t-69 151h134q15 -87 105 -87q66 0 95 56.5t31 180.5q-49 -83 -156 -83q-95 0 -155.5 59t-60.5 163q0 109 69.5 176.5 t183.5 67.5q133 0 198.5 -83t65.5 -230v-70q0 -172 -69 -262.5t-204 -90.5z" glyph-name="nine.oldtab" horiz-adv-x="600"/>
<glyph d="M301 -11q-112 0 -185 56t-73 155q0 65 34 110.5t95 67.5q-102 43 -102 150q0 91 67.5 144t164.5 53q98 0 164 -52.5t66 -142.5q0 -107 -102 -151q61 -22 94.5 -67t33.5 -107q0 -101 -72 -158.5t-185 -57.5zM303 423q42 0 68 26.5t26 71.5q0 42 -27.5 68.5t-67.5 26.5 q-41 0 -68.5 -26t-27.5 -70t28.5 -70.5t68.5 -26.5zM301 103q50 0 81 29.5t31 81.5q0 51 -30.5 80.5t-80.5 29.5q-49 0 -81.5 -29.5t-32.5 -81.5q0 -51 32 -80.5t81 -29.5z" glyph-name="eight.oldtab" horiz-adv-x="600"/>
<glyph d="M355 494h-306v124h506v-17l-273 -695h-162z" glyph-name="seven.oldtab" horiz-adv-x="600"/>
<glyph d="M313 -11q-134 0 -200 84.5t-66 231.5v65q0 168 76 261.5t204 93.5q99 0 158 -49t68 -146h-136q-14 80 -93 80q-129 0 -133 -242q57 87 160 87q96 0 154.5 -59t58.5 -163q0 -111 -67.5 -177.5t-183.5 -66.5zM313 103q49 0 81 33.5t32 89.5q0 59 -31 93t-83 34 q-51 0 -84 -33t-33 -87q0 -61 32.5 -95.5t85.5 -34.5z" glyph-name="six.oldtab" horiz-adv-x="600"/>
<glyph d="M307 -11q-118 0 -196.5 72t-78.5 185v8q0 84 55 148.5t146 76.5l17 3q3 1 12 1q-94 36 -138.5 69t-44.5 89q0 57 38 88t110 31h152q115 0 159 11v-107q-42 -17 -160 -17h-142q-39 0 -39 -26q0 -30 119 -78q138 -51 202.5 -115.5t64.5 -170.5v-8q0 -115 -78.5 -187.5 t-197.5 -72.5zM308 99q60 0 94 40.5t34 108.5v7q0 69 -34 109.5t-94 40.5t-94 -39.5t-34 -108.5v-8q0 -70 33.5 -110t94.5 -40z" glyph-name="uni0431.locl" horiz-adv-x="615"/>
<glyph d="M300 777h119l-288 -861h-119z" glyph-name="slash.uc" horiz-adv-x="435"/>
<glyph d="M452 -9q-91 0 -142 43t-53 119h127q5 -63 61 -63q58 0 58 60q0 27 -26 48q-21 16 -65 37q-60 32 -82 54q-40 35 -40 87t62 116l11.5 11.5t11.5 12t9.5 11t10 12t7.5 11t7 12.5t3.5 12t1.5 13q0 71 -87 71q-53 0 -83 -30t-30 -89v-539h-144v536q0 108 74 171q69 61 185 61 q100 0 162 -42q64 -45 64 -121q0 -68 -64 -126q-6 -6 -19 -17t-19 -17t-13.5 -14.5t-10.5 -16t-3 -15.5q0 -14 23 -30q2 -1 77 -43q53 -31 80 -63q36 -46 36 -101q0 -82 -53 -127q-53 -44 -137 -44z" glyph-name="germandbls.alt" horiz-adv-x="676"/>
<glyph d="M342 47h-318v50l276 521h187v-467h82v-104h-82v-141h-145v141zM345 151v346l-182 -346h182z" glyph-name="four.oldtab" horiz-adv-x="600"/>
<glyph d="M295 -105q-126 0 -193.5 64t-71.5 172h139q12 -121 124 -121q115 0 115 108q0 104 -114 104h-53v103h50q53 0 79.5 26t26.5 73q0 43 -24 67.5t-71 24.5q-103 0 -114 -110h-136q4 97 72.5 160.5t181.5 63.5q109 0 170.5 -53.5t61.5 -138.5q0 -117 -111 -156 q62 -15 97.5 -57.5t35.5 -109.5q0 -101 -71 -160.5t-194 -59.5z" glyph-name="three.oldtab" horiz-adv-x="600"/>
<glyph d="M35 25l236 223q59 56 85.5 95.5t26.5 82.5q0 41 -23 64t-66 23q-90 0 -106 -122h-137q8 111 74 175t177 64q109 0 171.5 -53t62.5 -140q0 -60 -35 -110.5t-109 -119.5l-101 -93h251v-114h-507v25z" glyph-name="two.oldtab" horiz-adv-x="600"/>
<glyph d="M283 468l-186 -127v132l204 146h134v-619h-152v468z" glyph-name="one.oldtab" horiz-adv-x="600"/>
<glyph d="M299 -11q-119 0 -188.5 75t-69.5 202v89q0 126 71.5 200.5t187.5 74.5q117 0 188 -73t71 -199v-89q0 -128 -70 -204t-190 -76zM302 112q108 0 108 155v88q0 155 -109 155q-111 0 -111 -154v-90q0 -154 112 -154z" glyph-name="zero.oldtab" horiz-adv-x="600"/>
<glyph d="M77 354h141l-180 340h160l114 -244l110 244h140l-172 -340h145v-65h-154v-59h154v-65h-154v-165h-153v165h-151v65h151v59h-151v65z" glyph-name="yen.oldtab" horiz-adv-x="600"/>
<glyph d="M37 385h50q-13 50 -13 103q0 99 70 157t172 58q110 0 169 -55.5t64 -159.5h-142q-7 51 -25.5 72.5t-60.5 21.5q-43 0 -66.5 -26t-23.5 -75q0 -46 8 -96h171v-97h-154q6 -39 6 -81q0 -32 -10 -59q15 -4 38.5 -13t39.5 -14t30 -5q64 0 70 66h136q-4 -88 -51.5 -139.5 t-127.5 -51.5q-49 0 -110 27.5t-80 27.5q-45 0 -51 -46h-122q3 47 28 86.5t66 59.5q10 24 10 61q0 29 -13 81h-78v97z" glyph-name="sterling.oldtab" horiz-adv-x="600"/>
<glyph d="M28 439h51q6 123 73 193.5t176 70.5q211 0 227 -225h-131q-6 57 -28.5 83t-66.5 26q-103 0 -110 -148h168l-11 -64h-157v-59h145l-11 -65h-134q4 -75 30 -109.5t81 -34.5q47 0 71.5 28t31.5 91h129q-7 -118 -67.5 -177.5t-168.5 -59.5q-110 0 -175 67.5t-72 194.5h-51v65 h51v59h-51v64z" glyph-name="Euro.oldtab" horiz-adv-x="600"/>
<glyph d="M241 -11q-100 0 -157 41.5t-57 116.5q0 73 46.5 107.5t134.5 52.5q65 13 91 28t26 44q0 52 -68 52q-37 0 -56 -15t-26 -48h-132q23 167 223 167q89 0 144 -39t55 -111q0 -74 -44 -108t-137 -54q-62 -12 -86.5 -28t-24.5 -47q0 -53 76 -53q46 0 66 18t26 56h134 q-8 -180 -234 -180z" glyph-name="uni0433.bgr" horiz-adv-x="502"/>
<glyph d="M64 523h144v-84q49 96 171 96q81 0 128.5 -50t47.5 -152v-333h-144v312q0 54 -22.5 79.5t-70.5 25.5q-49 0 -79.5 -29.5t-30.5 -85.5v-302h-144v523z" glyph-name="uni043F.bgr" horiz-adv-x="615"/>
<glyph d="M859 0h-144v81q-22 -41 -63 -67t-98 -26q-107 0 -146 91q-61 -91 -175 -91q-77 0 -125 50t-48 150v335h144v-319q0 -97 83 -97q43 0 72 28t29 79v309h143v-319q0 -97 83 -97q43 0 72 28.5t29 79.5v308h144v-523z" glyph-name="uni0448.bgr" horiz-adv-x="923"/>
<glyph d="M524 -10q-106 0 -176 60.5t-82 164.5h-58v-215h-143v760h143v-442h59q16 99 86.5 158.5t171.5 59.5q117 0 191 -73.5t74 -194.5v-8q0 -122 -74.5 -196t-191.5 -74zM525 99q57 0 87.5 42t30.5 117v8q0 75 -30.5 117t-87.5 42q-56 0 -87 -41t-31 -116v-8q0 -76 30.5 -118.5 t87.5 -42.5z" glyph-name="uni044E.bgr" horiz-adv-x="822"/>
<glyph d="M182 511q0 -35 17.5 -53t68.5 -30v163q-41 -5 -63.5 -26.5t-22.5 -53.5zM426 194q0 36 -19 54.5t-70 30.5v-177q42 8 65.5 32.5t23.5 59.5zM268 -9q-117 8 -176 68t-65 157h140q7 -48 28.5 -76.5t72.5 -36.5v188q-116 18 -169 66t-53 142q0 84 60 139.5t162 63.5v87h69 v-88q201 -19 219 -202h-136q-7 39 -26 60.5t-57 29.5v-172q116 -19 172.5 -65t56.5 -142q0 -89 -60.5 -150.5t-168.5 -69.5v-121h-69v122z" glyph-name="dollar.oldtab" horiz-adv-x="600"/>
<glyph d="M29 -51q52 2 69 27t7 90l-18 104q-11 56 13.5 90t85.5 55q-61 22 -85.5 56t-13.5 90l18 104q10 62 -7 89q-17 24 -69 25v98q128 0 177 -53t25 -172l-19 -94q-9 -41 7.5 -64.5t67.5 -31.5v-94q-51 -9 -67.5 -33t-7.5 -65l19 -93q23 -118 -26 -171.5t-176 -53.5v97z" glyph-name="braceright.tab" horiz-adv-x="312"/>
<glyph d="M283 -148q-127 0 -176 53.5t-26 171.5l19 93q8 42 -7 64q-16 24 -68 34v94q50 7 68 33q15 22 7 63l-19 94q-24 119 25 172t177 53v-98q-52 -1 -69 -25q-17 -27 -7 -89l18 -104q11 -56 -13.5 -90t-85.5 -56q61 -21 85.5 -55t13.5 -90l-18 -104q-11 -64 6 -89.5t70 -27.5 v-97z" glyph-name="braceleft.tab" horiz-adv-x="312"/>
<glyph d="M29 -49h90v726h-90v99h223v-924h-223v99z" glyph-name="bracketright.tab" horiz-adv-x="312"/>
<glyph d="M303 132q58 0 93.5 38.5t35.5 104.5v7q0 67 -33 105t-93 38t-93 -39t-33 -105v-8q0 -65 34 -103t89 -38zM296 -193q-238 0 -260 182h144q15 -76 116 -76q132 0 132 128v79q-24 -41 -69 -69t-99 -28q-98 0 -163 68t-65 182v7q0 111 65.5 183t164.5 72q113 0 166 -90v78 h144v-482q-1 -115 -72.5 -174.5t-203.5 -59.5z" glyph-name="uni0434.bgr" horiz-adv-x="636"/>
<glyph d="M60 776h223v-99h-90v-726h90v-99h-223v924z" glyph-name="bracketleft.tab" horiz-adv-x="312"/>
<glyph d="M238 -11q-80 0 -129 49.5t-49 147.5v337h144v-317q0 -105 91 -105q48 0 78.5 29.5t30.5 85.5v307h144v-523h-144v82q-48 -93 -166 -93z" glyph-name="uni0438.bgr"/>
<glyph d="M262 -11q-94 0 -156 68q-67 72 -67 197v8q0 124 67 201q63 72 160 72q107 0 159 -89v77h144v-523h-144v85q-22 -41 -65.5 -68.5t-97.5 -27.5zM304 102q56 0 90.5 40t34.5 117v8q0 78 -32 117.5t-88 39.5q-58 0 -90 -41t-32 -118v-8q0 -76 32 -115.5t85 -39.5zM169 753 h152l57 -159h-105z" glyph-name="agrave.alt" horiz-adv-x="639"/>
<glyph d="M14 -148q53 96 82 193q37 122 37 268q0 145 -37 269q-30 98 -82 192h110q63 -93 96 -187q46 -129 46 -274t-46 -274q-33 -94 -96 -187h-110z" glyph-name="parenright.tab" horiz-adv-x="312"/>
<glyph d="M188 -148q-63 93 -96 187q-46 129 -46 274t46 274q33 94 96 187h110q-49 -81 -82 -192q-37 -124 -37 -269q0 -146 37 -268q33 -109 82 -193h-110z" glyph-name="parenleft.tab" horiz-adv-x="312"/>
<glyph d="M274 -10q-112 1 -163 53t-51 160v320h143v-170q27 5 75 4q108 0 164 -44.5t56 -129.5v-5q0 -88 -61.5 -138t-162.5 -50zM275 87q36 0 56 22t20 61v5q0 83 -88 83q-41 2 -60 -3v-78q0 -90 72 -90z" glyph-name="uni044C.bgr" horiz-adv-x="524"/>
<glyph d="M11 -86l88 247l136 -51l-136 -233zM161 281q-38 0 -63.5 25.5t-25.5 62.5q0 36 25.5 61.5t63.5 25.5t64 -25.5t26 -61.5t-26 -62t-64 -26z" glyph-name="semicolon.tab" horiz-adv-x="312"/>
<glyph d="M300 599q-68 0 -108.5 39.5t-44.5 106.5h103q6 -60 50 -60q47 0 54 60h102q-5 -67 -46.5 -106.5t-109.5 -39.5zM238 -11q-80 0 -129 49.5t-49 147.5v337h144v-317q0 -105 91 -105q48 0 78.5 29.5t30.5 85.5v307h144v-523h-144v82q-48 -93 -166 -93z" glyph-name="uni0439.bgr"/>
<glyph d="M215 128h269l-135 425zM144 -130h-141v258h60l201 587h190l202 -587h60v-258h-140l-5 130h-422z" glyph-name="uni0414.bgr" horiz-adv-x="719"/>
<glyph d="M406 325l-219 -325h-175l262 373l-250 342h168l214 -313v313h159v-314l217 314h165l-250 -336l264 -379h-179l-217 327v-327h-159v325z" glyph-name="uni0416.bgr" horiz-adv-x="973"/>
<glyph d="M239 322v-322h-162v715h162v-307l250 307h172l-283 -337l297 -378h-189z" glyph-name="uni041A.bgr" horiz-adv-x="686"/>
<glyph d="M313 250l-149 -250h-155l178 281l-165 242h149l142 -227v464h142v-465l143 228h148l-165 -239l180 -284h-158l-148 252v-252h-142v250z" glyph-name="uni0436.bgr" horiz-adv-x="770"/>
<glyph d="M155 -9q-38 0 -63 25.5t-25 62.5q0 36 25 61.5t63 25.5t64 -25.5t26 -61.5t-26 -62t-64 -26zM155 281q-38 0 -63 25.5t-25 62.5q0 36 25 61.5t63 25.5t64 -25.5t26 -61.5t-26 -62t-64 -26z" glyph-name="colon.tab" horiz-adv-x="312"/>
<glyph d="M29 -86l88 247l136 -51l-136 -233z" glyph-name="comma.tab" horiz-adv-x="312"/>
<glyph d="M42 495q0 139 61 207t169 68q103 0 159 -49.5t56 -142.5v-8q0 -60 -34 -108t-89 -58q143 -23 143 -178v-6q0 -98 -65.5 -165.5t-168.5 -67.5q-110 0 -170.5 63.5t-60.5 189.5v255zM190 449h54q100 0 100 114v8q0 93 -72 93q-44 0 -63 -36t-19 -110v-69zM272 93 q89 0 89 130v8q0 63 -27 91.5t-89 28.5h-55v-124q0 -66 18.5 -100t63.5 -34z" glyph-name="uni0432.bgr" horiz-adv-x="536"/>
<glyph d="M156 -9q-38 0 -63.5 25.5t-25.5 62.5q0 36 25.5 61.5t63.5 25.5t64 -25.5t26 -61.5t-26 -62t-64 -26z" glyph-name="period.tab" horiz-adv-x="312"/>
<glyph d="M532 670q149 -4 239.5 -82.5t90.5 -221.5v-8q0 -143 -93 -220.5t-237 -81.5v-66h-161v66q-150 4 -240 81t-90 220v7q0 146 92.5 224t237.5 82v61h161v-61zM371 554q-76 -4 -122.5 -49t-46.5 -141v-7q0 -93 46 -137.5t123 -46.5v381zM532 172q76 2 122 47t46 139v8 q0 178 -168 187v-381z" glyph-name="uni0424.bgr" horiz-adv-x="901"/>
<glyph d="M107 266l200 101l-200 102v130l408 -218v-29l-408 -218v132zM107 100h408v-100h-408v100z" glyph-name="greaterequal.tab"/>
<glyph d="M97 352v29l408 218v-130l-200 -102l200 -101v-132zM97 100h408v-100h-408v100z" glyph-name="lessequal.tab"/>
<glyph d="M99 205l225 117l-225 121v130l420 -236v-29l-420 -235v132z" glyph-name="greater.tab"/>
<glyph d="M64 523h144v-80q22 41 63.5 66.5t97.5 25.5q110 0 146 -91q61 91 176 91q77 0 124.5 -50t47.5 -150v-335h-144v319q0 97 -83 97q-43 0 -72 -28t-29 -79v-309h-143v319q0 97 -83 97q-43 0 -72 -28t-29 -79v-309h-144v523z" glyph-name="uni0442.bgr" horiz-adv-x="923"/>
<glyph d="M93 308v29l421 235v-132l-226 -117l226 -121v-130z" glyph-name="less.tab"/>
<glyph d="M73 137q6 80 44 120q34 37 85 37q44 0 113 -21q67 -21 91 -21q39 0 45 45h88q-4 -77 -41 -117q-35 -39 -86 -39q-47 0 -114 21q-78 20 -91 20q-39 0 -46 -45h-88zM73 342q6 79 44 119q34 37 85 37q33 0 113 -20q67 -21 91 -21q39 0 45 44h88q-4 -77 -41 -117 q-35 -39 -86 -39q-47 0 -114 21t-91 21q-39 0 -46 -45h-88z" glyph-name="approxequal.tab"/>
<glyph d="M80 472h233l39 99h101l-39 -99h118v-104h-158l-33 -87h191v-103h-231l-38 -99h-101l38 99h-120v103h160l33 87h-193v104z" glyph-name="notequal.tab"/>
<glyph d="M84 281h444v-103h-444v103zM84 472h444v-104h-444v104z" glyph-name="equal.tab"/>
<glyph d="M306 60q-35 0 -59 23.5t-24 58.5q0 34 24 58t59 24t59 -24t24 -58q0 -35 -24 -58.5t-59 -23.5zM67 393h479v-104h-479v104zM306 458q-35 0 -59 23.5t-24 58.5t24 58.5t59 23.5t59 -23.5t24 -58.5t-24 -58.5t-59 -23.5z" glyph-name="divide.tab"/>
<glyph d="M76 182l153 153l-154 154l77 78l154 -155l153 153l78 -77l-154 -153l155 -154l-78 -78l-154 155l-153 -153z" glyph-name="multiply.tab"/>
<glyph d="M247 336h-180v108h180v172h118v-172h180v-108h-180v-171h-118v171zM67 100h480v-100h-480v100z" glyph-name="plusminus.tab"/>
<glyph d="M71 397h471v-113h-471v113z" glyph-name="minus.tab"/>
<glyph d="M247 286h-175v109h175v191h118v-191h176v-109h-176v-191h-118v191z" glyph-name="plus.tab"/>
<glyph d="M184 472q47 0 47 85t-47 85q-48 0 -48 -85t48 -85zM183 390q-65 0 -106 45t-41 121t43 122q42 44 105 44t104 -43q43 -45 43 -120q0 -77 -41 -123q-43 -46 -107 -46zM535 715h88l-466 -715h-88zM504 71q47 0 47 86q0 84 -47 84t-47 -84q0 -86 47 -86zM504 -11 q-66 0 -106.5 45t-40.5 122q0 76 43 121q42 44 104 44q63 0 104 -43q43 -45 43 -120q0 -77 -41 -123q-43 -46 -106 -46zM829 71q47 0 47 86q0 84 -47 84q-48 0 -48 -84q0 -86 48 -86zM828 -11q-66 0 -106.5 45t-40.5 122q0 75 43 121q42 44 105 44t104 -43q43 -45 43 -120 q0 -79 -42 -123q-43 -46 -106 -46z" glyph-name="perthousand.tab" horiz-adv-x="1012"/>
<glyph d="M216 469q31 0 48.5 22.5t17.5 62.5q0 38 -17.5 61t-48.5 23t-48.5 -22t-17.5 -62q0 -41 17.5 -63t48.5 -22zM215 383q-75 0 -124 49q-49 46 -49 121q0 72 51 121q51 48 123 48q73 0 123 -47t50 -120q0 -74 -49 -123t-125 -49zM595 715h90l-466 -715h-90zM597 76 q31 0 48 22t17 62q0 38 -17 60.5t-48 22.5t-49 -22t-18 -61q0 -41 18 -62.5t49 -21.5zM596 -11q-75 0 -124 49q-49 46 -49 121t51 121q51 48 123 48q73 0 123 -47t50 -119q0 -74 -49 -123q-48 -50 -125 -50z" glyph-name="percent.tab" horiz-adv-x="812"/>
<glyph d="M19 335h75v85h-75v103h75v113h145v-113h102v-103h-102v-85h102v-85h-102v-250h-145v250h-75v85z" glyph-name="tbar.alt" horiz-adv-x="364"/>
<glyph d="M100 420h-75v103h75v113h145v-113h102v-103h-102v-420h-145v420zM304 760h119l-49 -174h-80z" glyph-name="tcaron.alt" horiz-adv-x="364"/>
<glyph d="M345 553l-172 -553h-152l238 715h190l239 -715h-172z" glyph-name="uni041B.bgr" horiz-adv-x="708"/>
<glyph d="M69 -201l47 170l130 -21l-95 -176zM100 420h-75v103h75v113h145v-113h102v-103h-102v-420h-145v420z" glyph-name="tcommaaccent.alt" horiz-adv-x="364"/>
<glyph d="M135 600l95 175l82 -26l-47 -170z" glyph-name="space_uni0326.alt" horiz-adv-x="412"/>
<glyph d="M270 561h153q160 0 160 -125v-2q0 -80 -75 -106l99 -168h-111l-86 147h-33v-147h-107v401zM418 378q60 0 60 51v3q0 26 -14.5 36.5t-44.5 10.5h-42v-101h41zM421 32q134 0 227.5 91.5t93.5 235.5q0 142 -92.5 233t-226.5 91q-137 0 -229.5 -92t-92.5 -234 q0 -143 93.5 -234t226.5 -91zM421 -16q-157 0 -267 107.5t-110 265.5q0 156 110 265t269 109t268 -108t109 -264q0 -158 -110 -266.5t-269 -108.5z" glyph-name="registered.alt" horiz-adv-x="843"/>
<glyph d="M178 760h119l-49 -174h-80z" glyph-name="caron.alt" horiz-adv-x="412"/>
<glyph d="M365 462q0 -53 -32 -98q-21 -31 -67 -75q-34 -32 -51 -56t-17 -51q0 -74 77 -74q42 0 68 27.5t31 75.5h139q-5 -104 -72 -162q-67 -59 -175 -59q-109 0 -167 50q-56 48 -56 130q0 47 25 89q16 27 57 68q7 7 22.5 21t26.5 25t20 21q33 38 37 73v25h134v-30zM299 724 q38 0 64.5 -25t26.5 -61t-26 -62q-27 -25 -65 -25t-64.5 25t-26.5 62q0 36 27 61q25 25 64 25z" glyph-name="questiondown.uc" horiz-adv-x="544"/>
<glyph d="M105 492h118l22 -492h-162zM165 551q-38 0 -65 25t-27 62q0 35 28 61q25 25 64 25q38 0 65 -25q26 -26 26 -61q0 -37 -26.5 -62t-64.5 -25z" glyph-name="exclamdown.uc" horiz-adv-x="329"/>
<glyph d="M60 386h282v-119h-282v119z" glyph-name="hyphen.uc" horiz-adv-x="402"/>
<glyph d="M51 374h445v-92h-445v92z" glyph-name="endash.uc" horiz-adv-x="547"/>
<glyph d="M101 414h109l20 134q24 176 201 176q43 0 75 -11v-110q-27 9 -57 9q-66 0 -77 -75l-18 -123h130v-102h-145l-72 -494h-144l72 494h-94v102z" glyph-name="florin.tab"/>
<glyph d="M76 356h145l-184 359h164l117 -253l112 253h145l-177 -359h149v-67h-158v-61h158v-66h-158v-162h-158v162h-155v66h155v61h-155v67z" glyph-name="yen.tab"/>
<glyph d="M44 392h53q-14 58 -14 112q0 104 69 163q67 58 170 58q224 0 235 -221h-135q-8 52 -29.5 74.5t-65.5 22.5t-69.5 -27t-25.5 -77q0 -53 11 -105h180v-91h-164q8 -45 8 -88q0 -34 -11 -60q11 -4 32 -11.5t32 -11t26 -7t26 -3.5q67 0 72 68h131q-3 -91 -49 -144t-127 -53 q-55 0 -115 28q-8 3 -23 9.5t-23 9.5t-19 6t-20 3q-45 0 -51 -47h-117q4 53 28 95t67 60q9 21 9 59q0 33 -13 87h-78v91z" glyph-name="sterling.tab"/>
<glyph d="M51 374h834v-92h-834v92z" glyph-name="emdash.uc" horiz-adv-x="936"/>
<glyph d="M47 301l127 192h107l-122 -192l122 -192h-107z" glyph-name="guilsinglleft.uc" horiz-adv-x="324"/>
<glyph d="M165 301l-121 192h107l126 -192l-126 -192h-107z" glyph-name="guilsinglright.uc" horiz-adv-x="324"/>
<glyph glyph-name="space.tab" horiz-adv-x="300"/>
<glyph d="M303 -105q-111 0 -176 53t-76 149h145q20 -85 111 -85q72 0 105 57q29 55 34 184q-56 -89 -170 -89q-102 0 -165 60q-66 63 -66 163q0 111 72 177q76 66 198 66q150 0 221 -95q63 -86 63 -242v-30q0 -177 -76 -272.5t-220 -95.5zM315 266q54 0 88.5 34.5t34.5 86.5 q0 60 -34 95t-89 35q-54 0 -86.5 -34.5t-32.5 -89.5q0 -57 32.5 -92t86.5 -35z" glyph-name="nine.old" horiz-adv-x="648"/>
<glyph d="M317 -11q-121 0 -194 54q-80 59 -80 157q0 64 37.5 109.5t100.5 68.5q-109 46 -109 150q0 92 74 146q70 51 173 51t173 -51q72 -54 72 -144q0 -105 -109 -151q64 -22 100 -67t36 -107q0 -101 -78 -159q-75 -57 -196 -57zM318 103q53 0 86.5 30t33.5 81t-33.5 80.5 t-85.5 29.5q-54 0 -86 -29q-36 -30 -36 -81q0 -52 36 -82q32 -29 85 -29zM320 423q45 0 73 26.5t28 70.5q0 42 -29.5 68.5t-72.5 26.5q-44 0 -73.5 -26t-29.5 -70t30 -70t74 -26z" glyph-name="eight.old" horiz-adv-x="635"/>
<glyph d="M471 420h-155v-420h-144v420h-155v103h454v-103z" glyph-name="uni0442.locl" horiz-adv-x="488"/>
<glyph d="M346 494h-316v124h514v-17l-271 -695h-161z" glyph-name="seven.old" horiz-adv-x="566"/>
<glyph d="M334 -11q-150 0 -221 95q-64 84 -64 238v32q0 175 84 275q81 96 215 96q104 0 166 -49.5t74 -145.5h-144q-18 78 -98 78q-137 0 -143 -241q53 88 170 88q102 0 165 -60q66 -63 66 -166q0 -110 -73 -174q-72 -66 -197 -66zM333 102q54 0 86.5 34.5t32.5 90.5 q0 57 -32.5 91.5t-86.5 34.5t-88 -34q-35 -32 -35 -87q0 -59 34 -94.5t89 -35.5z" glyph-name="six.old" horiz-adv-x="648"/>
<glyph d="M297 -105q-124 0 -192 62q-63 57 -69 155h142q7 -48 32 -71q26 -29 86 -29q53 0 84 35.5t31 93.5q0 57 -32.5 90.5t-86.5 33.5q-89 0 -135 -58h-86l9 412h443v-121h-328l-3 -189q56 63 158 63q94 0 154 -60q60 -65 60 -171q0 -112 -73 -179t-194 -67z" glyph-name="five.old" horiz-adv-x="609"/>
<glyph d="M383 47h-357v51l314 520h194v-466h95v-105h-95v-141h-151v141zM386 152v350l-203 -350h203z" glyph-name="four.old" horiz-adv-x="662"/>
<glyph d="M310 -105q-131 0 -202 65q-68 64 -72 171h139q12 -121 129 -121q120 0 120 109q0 103 -120 103h-55v103h51q111 0 111 98q0 43 -25 68t-72 25q-51 0 -82 -29.5t-37 -80.5h-137q6 99 72 159q70 65 188 65q111 0 176 -54q62 -54 62 -138q0 -114 -115 -157q136 -34 136 -170 q0 -96 -70 -157q-72 -59 -197 -59z" glyph-name="three.old" horiz-adv-x="622"/>
<glyph d="M21 25l236 223q61 58 86 92q33 46 33 87q0 40 -24 63t-68 23q-94 0 -110 -122h-137q6 112 73 174q70 65 182 65q108 0 174 -53q63 -54 63 -140q0 -59 -41 -118q-34 -47 -106 -112l-100 -93h253v-114h-514v25z" glyph-name="two.old" horiz-adv-x="582"/>
<glyph d="M181 468l-142 -92v131l161 112h133v-619h-152v468z" glyph-name="one.old" horiz-adv-x="430"/>
<glyph d="M339 108q136 0 136 189v27q0 92 -34.5 140.5t-102.5 48.5q-138 0 -138 -188v-28q0 -189 139 -189zM337 -11q-131 0 -210 82q-82 82 -82 224v28q0 142 82 226q81 81 211 81q129 0 210 -79q82 -82 82 -224v-28q0 -144 -80 -227q-81 -83 -213 -83z" glyph-name="zero.old" horiz-adv-x="675"/>
<glyph d="M75 345h140l-192 349h169l126 -259l123 259h151l-183 -349h141v-64h-159v-60h159v-64h-159v-157h-157v157h-159v64h159v60h-159v64z" glyph-name="yen.old" horiz-adv-x="614"/>
<glyph d="M44 384h55q-14 54 -14 105q0 98 71 158q68 56 176 56q115 0 179 -59q59 -57 65 -157h-144q-8 50 -30 72.5t-66 22.5q-43 0 -69 -27t-26 -74q0 -53 10 -97h185v-96h-167q7 -47 7 -81q0 -33 -11 -59q12 -4 41 -14.5t45.5 -14.5t30.5 -4q67 0 71 67h140q-5 -88 -50 -136 q-50 -55 -133 -55q-58 0 -120 28q-8 3 -24.5 9.5t-24 9.5t-19 5.5t-20.5 2.5q-46 0 -52 -46h-120q5 52 29 92q25 42 73 60q9 29 9 55q0 31 -13 81h-84v96z" glyph-name="sterling.old" horiz-adv-x="636"/>
<glyph d="M31 438h65q17 119 91 190q77 75 196 75q117 0 185 -60.5t79 -175.5h-145q-17 117 -121 117q-113 0 -133 -146h181l-12 -64h-172v-59h161l-11 -65h-147q19 -138 135 -138q109 0 126 129h145q-14 -121 -83.5 -186.5t-190.5 -65.5t-197 74q-73 68 -87 187h-65v65h62v59h-62 v64z" glyph-name="Euro.old" horiz-adv-x="694"/>
<glyph d="M283 -9q-117 7 -182 72q-58 56 -64 153h144q7 -49 26 -73q25 -33 76 -40v188q-117 18 -171 66t-54 142q0 83 61 139q62 58 164 65v86h71v-87q205 -20 223 -203h-139q-7 39 -26.5 60.5t-57.5 29.5v-172q118 -20 172 -62q62 -50 62 -145q0 -90 -59 -149q-65 -64 -175 -71 v-121h-71v122zM444 194q0 36 -19 54.5t-71 30.5v-177q42 8 66 32.5t24 59.5zM196 511q0 -35 18 -53.5t69 -29.5v163q-42 -6 -64.5 -27.5t-22.5 -52.5z" glyph-name="dollar.old" horiz-adv-x="640"/>
<glyph d="M47 301l127 192h103l-122 -192l122 -192h-103zM226 301l127 192h103l-122 -192l122 -192h-103z" glyph-name="guillemotleft.uc" horiz-adv-x="499"/>
<glyph d="M165 301l-121 192h103l126 -192l-126 -192h-103zM344 301l-121 192h103l126 -192l-126 -192h-103z" glyph-name="guillemotright.uc" horiz-adv-x="499"/>
<glyph d="M208 247v-247h-144v760h144v-461l169 224h154l-191 -239l206 -284h-164z" glyph-name="uni043A.bgr" horiz-adv-x="555"/>
<glyph d="M402 215h-194v-215h-143v523h143v-205h194v205h143v-523h-143v215z" glyph-name="uni043D.bgr" horiz-adv-x="610"/>
<glyph d="M216 -98q-70 82 -111 182q-53 121 -53 259q0 136 53 260q43 101 111 181h119q-59 -84 -98 -189q-45 -121 -45 -252q0 -134 45 -251q38 -104 98 -190h-119z" glyph-name="parenleft.uc" horiz-adv-x="355"/>
<glyph d="M21 -98q60 86 98 190q44 119 44 251q0 130 -44 252q-37 102 -98 189h118q69 -82 113 -181q52 -126 52 -260q0 -137 -52 -259q-42 -99 -113 -182h-118z" glyph-name="parenright.uc" horiz-adv-x="355"/>
<glyph d="M80 781h276v-107h-131v-657h131v-107h-276v871z" glyph-name="bracketleft.uc" horiz-adv-x="402"/>
<glyph d="M208 420v-420h-143v523h359v-103h-216z" glyph-name="uni0433.locl" horiz-adv-x="442"/>
<glyph d="M500 -127l-6 127h-90v82q-48 -93 -166 -93q-80 0 -129 49.5t-49 147.5v337h144v-317q0 -105 91 -105q48 0 78.5 29.5t30.5 85.5v307h144v-420h73v-230h-121z" glyph-name="uni0446.bgr" horiz-adv-x="635"/>
<glyph d="M368 0v225q-9 -10 -22.5 -21t-50.5 -24.5t-81 -13.5q-78 0 -123.5 49t-45.5 147v161h144v-141q0 -55 19 -79.5t63 -24.5q63 0 97 44v201h144v-523h-144z" glyph-name="uni0447.bgr" horiz-adv-x="577"/>
<glyph d="M47 17h130v657h-130v107h275v-871h-275v107z" glyph-name="bracketright.uc" horiz-adv-x="402"/>
<glyph d="M558 0h-154l-126 374l-124 -374h-140l190 523h163z" glyph-name="uni043B.bgr" horiz-adv-x="572"/>
<glyph d="M370 -92q-139 0 -198.5 50.5t-41.5 162.5l12 78q7 42 -15 67q-26 28 -87 28v103q61 0 87 28q22 25 15 66l-12 78q-18 114 41.5 163.5t198.5 49.5v-106q-64 -2 -85.5 -23.5t-13.5 -80.5l11 -93q12 -106 -101 -133q113 -25 101 -132l-11 -93q-8 -60 15 -83q21 -22 84 -24 v-106z" glyph-name="braceleft.uc" horiz-adv-x="417"/>
<glyph d="M114 -201l47 170l130 -21l-95 -176z" glyph-name="space_uni0326" horiz-adv-x="412"/>
<glyph d="M46 14q63 2 85 24t14 83l-11 93q-6 53 20.5 86.5t81.5 45.5q-114 27 -102 133l11 93q7 60 -14 81t-85 23v106q140 0 199.5 -49.5t41.5 -163.5l-12 -78q-7 -42 16 -66q25 -28 85 -28v-103q-60 0 -85 -28q-23 -24 -16 -67l12 -78q17 -112 -43 -162.5t-198 -50.5v106z" glyph-name="braceright.uc" horiz-adv-x="417"/>
<glyph d="M105 902h132l-73 -139h-98zM285 902h132l-74 -139h-97z" glyph-name="hungarumlaut.uc" horiz-adv-x="412"/>
<glyph d="M267 764q-26 0 -66 19q-5 2 -16.5 7.5t-18.5 8t-14 2.5q-28 0 -35 -37h-86q5 67 36.5 103.5t77.5 36.5q23 0 65 -19q40 -19 51 -19q27 0 34 37h87q-6 -66 -38 -102.5t-77 -36.5z" glyph-name="tilde.uc" horiz-adv-x="412"/>
<glyph d="M139 594q-35 0 -58.5 22.5t-23.5 56.5t23.5 56.5t58.5 22.5t59 -22.5t24 -56.5t-24 -56.5t-59 -22.5zM68 523h144v-523h-144v523z" glyph-name="idotaccent" horiz-adv-x="281"/>
<glyph d="M206 808q21 0 35 15t14 38t-14 38.5t-35 15.5q-22 0 -35.5 -15.5t-13.5 -38.5t13.5 -38t35.5 -15zM206 750q-46 0 -81 33q-34 32 -34 78q0 47 34 79q35 33 81 33t81 -33q34 -32 34 -79q0 -46 -34 -78q-35 -33 -81 -33z" glyph-name="ring.uc" horiz-adv-x="412"/>
<glyph d="M206 768q-35 0 -58 22t-23 55t23 55t58 22q34 0 57 -22.5t23 -54.5t-23 -54.5t-57 -22.5z" glyph-name="dotaccent.uc" horiz-adv-x="412"/>
<glyph d="M205 757q-66 0 -107.5 40t-45.5 106h97q8 -52 56 -52t59 52h96q-5 -66 -47 -106t-108 -40z" glyph-name="breve.uc" horiz-adv-x="412"/>
<glyph d="M34 902h104l69 -52l68 52h102l-112 -139h-123z" glyph-name="caron.uc" horiz-adv-x="412"/>
<glyph d="M146 902h123l108 -139h-104l-68 53l-69 -53h-102z" glyph-name="circumflex.uc" horiz-adv-x="412"/>
<glyph d="M195 902h157l-101 -139h-109z" glyph-name="acute.uc" horiz-adv-x="412"/>
<glyph d="M262 -11q-94 0 -156 68q-67 72 -67 197v8q0 124 67 201q63 72 160 72q107 0 159 -89v77h144v-523h-144v85q-22 -41 -65.5 -68.5t-97.5 -27.5zM304 102q56 0 90.5 40t34.5 117v8q0 78 -32 117.5t-88 39.5q-58 0 -90 -41t-32 -118v-8q0 -76 32 -115.5t85 -39.5z" glyph-name="uni0430.alt" horiz-adv-x="627"/>
<glyph d="M55 868h302v-91h-302v91z" glyph-name="macron.uc" horiz-adv-x="412"/>
<glyph d="M227 234q-8 -87 -29 -131h179v318h-140q-2 -123 -10 -187zM137 -127h-125v230h30q25 11 38 44.5t20 97.5q12 102 12 278h407v-420h74v-230h-125l-2 127h-327z" glyph-name="uni0434.locl" horiz-adv-x="600"/>
<glyph d="M98 769q-31 0 -52.5 21.5t-21.5 51.5t21.5 51t52.5 21q30 0 52 -21t22 -51t-22 -51.5t-52 -21.5zM313 769q-30 0 -51.5 21.5t-21.5 51.5t21.5 51t51.5 21q31 0 52.5 -21t21.5 -51t-21.5 -51.5t-52.5 -21.5z" glyph-name="dieresis.uc" horiz-adv-x="412"/>
<glyph d="M62 902h156l52 -139h-109z" glyph-name="grave.uc" horiz-adv-x="412"/>
<glyph d="M466 -72q-192 0 -309 119q-110 110 -110 282q0 185 131 309q126 118 303 118q175 0 289 -100q113 -100 113 -258q0 -135 -65 -203q-58 -59 -138 -59q-114 0 -133 81q-45 -85 -137 -85q-73 0 -116 47.5t-43 130.5q0 103 57 166q56 64 136 64q84 0 112 -62l7 54h123 l-31 -261q-11 -69 43 -69q45 0 74 46q33 51 33 151q0 129 -86 209q-88 80 -237 80q-153 0 -251 -98q-101 -101 -101 -261q0 -146 85 -235q90 -98 253 -98q151 0 244 83h86q-47 -69 -133 -110q-93 -41 -199 -41zM447 228q40 0 66 35q29 39 29 97q0 83 -77 83q-39 0 -63.5 -35 t-24.5 -93q0 -39 18.5 -63t51.5 -24z" glyph-name="at.uc" horiz-adv-x="931"/>
<glyph d="M85 777h104v-861h-104v861z" glyph-name="bar.uc" horiz-adv-x="274"/>
<glyph d="M16 777h118l288 -861h-119z" glyph-name="backslash.uc" horiz-adv-x="435"/>
</font>
</defs>
</svg>
