<svg xmlns="http://www.w3.org/2000/svg" width="261" height="220" viewBox="0 0 261 220">
    <g fill="none" fill-rule="evenodd">
        <path fill="#ECB22E" d="M205.064 176.256l75.481-128.002c8.977-15.223 3.913-34.841-11.31-43.818C264.31 1.532 258.698 0 252.981 0H102.019c-17.673 0-32 14.327-32 32 0 5.717 1.532 11.33 4.436 16.254l75.48 128.002c8.978 15.223 28.596 20.287 43.82 11.31 4.666-2.752 8.558-6.644 11.31-11.31z" transform="translate(-24)"/>
        <path fill="#005240" d="M159.064 204.256l75.481-128.002c8.977-15.223 3.913-34.841-11.31-43.818C218.31 29.532 212.698 28 206.981 28H56.019c-17.673 0-32 14.327-32 32 0 5.717 1.532 11.33 4.436 16.254l75.48 128.002c8.978 15.223 28.596 20.287 43.82 11.31 4.666-2.752 8.558-6.644 11.31-11.31z" transform="translate(-24)"/>
    </g>
</svg>
